SplineFontDB: 3.0
FontName: PuraleckaNarrow-Regular
FullName: Puralecka Narrow Regular
FamilyName: Puralecka Narrow
Weight: Regular
Copyright: Copyright (c) 2012-2014, Omnibus-Type (www.omnibus-type.com omnibus.type@gmail.com) with Reserved Font Name 'Puralecka'
Version: 001.004
ItalicAngle: 0
UnderlinePosition: -129.024
UnderlineWidth: 129.024
Ascent: 1638
Descent: 410
InvalidEm: 0
sfntRevision: 0x00010106
LayerCount: 2
Layer: 0 1 "Back" 1
Layer: 1 1 "Fore" 0
XUID: [1021 191 1600663927 94360]
FSType: 8
OS2Version: 3
OS2_WeightWidthSlopeOnly: 0
OS2_UseTypoMetrics: 1
CreationTime: 1417528908
ModificationTime: 1417561973
PfmFamily: 33
TTFWeight: 400
TTFWidth: 5
LineGap: 0
VLineGap: 0
Panose: 2 11 5 6 2 2 2 2 11 4
OS2TypoAscent: 2302
OS2TypoAOffset: 0
OS2TypoDescent: -1044
OS2TypoDOffset: 0
OS2TypoLinegap: 0
OS2WinAscent: 2302
OS2WinAOffset: 0
OS2WinDescent: 1044
OS2WinDOffset: 0
HheadAscent: 2302
HheadAOffset: 0
HheadDescent: -1044
HheadDOffset: 0
OS2SubXSize: 1681
OS2SubYSize: 1552
OS2SubXOff: 0
OS2SubYOff: 195
OS2SupXSize: 1681
OS2SupYSize: 1552
OS2SupXOff: 0
OS2SupYOff: 905
OS2StrikeYSize: 129
OS2StrikeYPos: 721
OS2CapHeight: 0
OS2XHeight: 0
OS2Vendor: 'OMNI'
OS2CodePages: 20000093.00000000
OS2UnicodeRanges: 00008007.00000000.00000000.00000000
Lookup: 1 0 0 "'aalt' Access All Alternates lookup 0" { "'aalt' Access All Alternates lookup 0 subtable"  } ['aalt' ('DFLT' <'dflt' > 'dev2' <'MAR ' 'NEP ' 'dflt' > 'deva' <'MAR ' 'NEP ' 'dflt' > 'grek' <'dflt' > 'latn' <'CAT ' 'MOL ' 'ROM ' 'dflt' > ) ]
Lookup: 3 0 0 "'aalt' Access All Alternates lookup 1" { "'aalt' Access All Alternates lookup 1 subtable"  } ['aalt' ('DFLT' <'dflt' > 'dev2' <'MAR ' 'NEP ' 'dflt' > 'deva' <'MAR ' 'NEP ' 'dflt' > 'grek' <'dflt' > 'latn' <'CAT ' 'MOL ' 'ROM ' 'dflt' > ) ]
Lookup: 4 0 0 "Ligature Substitution lookup 2" { "Ligature Substitution lookup 2 subtable"  } []
Lookup: 4 0 0 "Ligature Substitution lookup 3" { "Ligature Substitution lookup 3 subtable"  } []

StartChar: .notdef
Encoding: 65536 -1 0
Width: 1142
VWidth: 2586
Flags: W
HStem: 0 115<184 961> 1487 115<184 961>
VStem: 0 115<217 1384> 1030 113<217 1384>
LayerCount: 2
Back
Fore
SplineSet
0 1602 m 1,0,-1
 1143 1602 l 1,1,-1
 1143 0 l 1,2,-1
 0 0 l 1,3,-1
 0 1602 l 1,0,-1
961 1487 m 1,4,-1
 184 1487 l 1,5,-1
 571 903 l 1,6,-1
 961 1487 l 1,4,-1
115 1384 m 1,7,-1
 115 217 l 1,8,-1
 502 799 l 1,9,-1
 115 1384 l 1,7,-1
1030 1384 m 1,10,-1
 641 799 l 1,11,-1
 1030 217 l 1,12,-1
 1030 1384 l 1,10,-1
571 698 m 1,13,-1
 184 115 l 1,14,-1
 961 115 l 1,15,-1
 571 698 l 1,13,-1
EndSplineSet
EndChar

StartChar: A
Encoding: 65 65 2
Width: 1251
VWidth: 2586
GlyphClass: 2
Flags: W
HStem: 0 43G<-2 211 1022 1251> 350 182<362 872> 1526 41G<483 769>
AnchorPoint: "Anchor-1" 0 0 basechar 0
AnchorPoint: "Anchor-0" 627 1567 basechar 0
LayerCount: 2
Back
Fore
SplineSet
1034 0 m 1,0,-1
 928 350 l 1,1,-1
 305 350 l 1,2,-1
 199 0 l 1,3,-1
 -2 0 l 1,4,-1
 496 1567 l 1,5,-1
 756 1567 l 1,6,-1
 1251 0 l 1,7,-1
 1034 0 l 1,0,-1
630 1402 m 1,8,-1
 362 532 l 1,9,-1
 872 532 l 1,10,-1
 659 1231 l 2,11,12
 651 1254 651 1254 643.5 1296.5 c 128,-1,13
 636 1339 636 1339 633 1370.5 c 2,14,-1
 630 1402 l 1,8,-1
EndSplineSet
Substitution2: "Single Substitution lookup 40 subtable" ordfeminine
Substitution2: "'aalt' Access All Alternates lookup 0 subtable" ordfeminine
Position2: "'cpsp' Capital Spacing lookup 0 subtable" dx=12 dy=0 dh=27 dv=0
EndChar

StartChar: Aacute
Encoding: 193 193 3
Width: 1251
VWidth: 2586
GlyphClass: 2
Flags: W
HStem: 0 43G<-2 211 1022 1251> 350 182<362 872> 1526 41G<483 769>
LayerCount: 2
Back
Fore
SplineSet
647 1718 m 1,0,-1
 489 1718 l 1,1,-1
 686 2019 l 1,2,-1
 893 2019 l 1,3,-1
 647 1718 l 1,0,-1
1034 0 m 1,4,-1
 928 350 l 1,5,-1
 305 350 l 1,6,-1
 199 0 l 1,7,-1
 -2 0 l 1,8,-1
 496 1567 l 1,9,-1
 756 1567 l 1,10,-1
 1251 0 l 1,11,-1
 1034 0 l 1,4,-1
630 1402 m 1,12,-1
 362 532 l 1,13,-1
 872 532 l 1,14,-1
 659 1231 l 2,15,16
 651 1254 651 1254 643.5 1296.5 c 128,-1,17
 636 1339 636 1339 633 1370.5 c 2,18,-1
 630 1402 l 1,12,-1
EndSplineSet
Position2: "'cpsp' Capital Spacing lookup 0 subtable" dx=12 dy=0 dh=27 dv=0
EndChar

StartChar: Abreve
Encoding: 258 258 4
Width: 1251
VWidth: 2586
GlyphClass: 2
Flags: W
HStem: 0 43G<-2 211 1022 1251> 350 182<362 872> 1526 41G<483 769> 1798 145<510 742>
VStem: 344 145<1970 2019> 760 147<1970 2019>
LayerCount: 2
Back
Fore
SplineSet
907 2019 m 1,0,1
 907 1935 907 1935 827.5 1866.5 c 128,-1,2
 748 1798 748 1798 623.5 1798 c 0,3,4
 499 1798 499 1798 421.5 1866.5 c 128,-1,5
 344 1935 344 1935 344 2019 c 1,6,-1
 489 2019 l 1,7,8
 496 1991 496 1991 533 1967.5 c 128,-1,9
 570 1944 570 1944 624 1944 c 0,10,11
 678 1944 678 1944 718 1968 c 128,-1,12
 758 1992 758 1992 760 2019 c 1,13,-1
 907 2019 l 1,0,1
1034 0 m 1,14,-1
 928 350 l 1,15,-1
 305 350 l 1,16,-1
 199 0 l 1,17,-1
 -2 0 l 1,18,-1
 496 1567 l 1,19,-1
 756 1567 l 1,20,-1
 1251 0 l 1,21,-1
 1034 0 l 1,14,-1
630 1402 m 1,22,-1
 362 532 l 1,23,-1
 872 532 l 1,24,-1
 659 1231 l 2,25,26
 651 1254 651 1254 643.5 1296.5 c 128,-1,27
 636 1339 636 1339 633 1370.5 c 2,28,-1
 630 1402 l 1,22,-1
EndSplineSet
Position2: "'cpsp' Capital Spacing lookup 0 subtable" dx=12 dy=0 dh=27 dv=0
EndChar

StartChar: Acircumflex
Encoding: 194 194 5
Width: 1251
VWidth: 2586
GlyphClass: 2
Flags: W
HStem: 0 43G<-2 211 1022 1251> 350 182<362 872> 1526 41G<483 769>
LayerCount: 2
Back
Fore
SplineSet
727 1708 m 1,0,-1
 627 1888 l 1,1,-1
 522 1708 l 1,2,-1
 342 1708 l 1,3,-1
 539 2017 l 1,4,-1
 717 2017 l 1,5,-1
 911 1708 l 1,6,-1
 727 1708 l 1,0,-1
1034 0 m 1,7,-1
 928 350 l 1,8,-1
 305 350 l 1,9,-1
 199 0 l 1,10,-1
 -2 0 l 1,11,-1
 496 1567 l 1,12,-1
 756 1567 l 1,13,-1
 1251 0 l 1,14,-1
 1034 0 l 1,7,-1
630 1402 m 1,15,-1
 362 532 l 1,16,-1
 872 532 l 1,17,-1
 659 1231 l 2,18,19
 651 1254 651 1254 643.5 1296.5 c 128,-1,20
 636 1339 636 1339 633 1370.5 c 2,21,-1
 630 1402 l 1,15,-1
EndSplineSet
Position2: "'cpsp' Capital Spacing lookup 0 subtable" dx=12 dy=0 dh=27 dv=0
EndChar

StartChar: Adieresis
Encoding: 196 196 6
Width: 1251
VWidth: 2586
GlyphClass: 2
Flags: W
HStem: 0 43G<-2 211 1022 1251> 350 182<362 872> 1526 41G<483 769> 1802 217<354 553 698 897>
VStem: 354 199<1802 2019> 698 199<1802 2019>
LayerCount: 2
Back
Fore
SplineSet
354 1802 m 1,0,-1
 354 2019 l 1,1,-1
 553 2019 l 1,2,-1
 553 1802 l 1,3,-1
 354 1802 l 1,0,-1
698 1802 m 1,4,-1
 698 2019 l 1,5,-1
 897 2019 l 1,6,-1
 897 1802 l 1,7,-1
 698 1802 l 1,4,-1
1034 0 m 1,8,-1
 928 350 l 1,9,-1
 305 350 l 1,10,-1
 199 0 l 1,11,-1
 -2 0 l 1,12,-1
 496 1567 l 1,13,-1
 756 1567 l 1,14,-1
 1251 0 l 1,15,-1
 1034 0 l 1,8,-1
630 1402 m 1,16,-1
 362 532 l 1,17,-1
 872 532 l 1,18,-1
 659 1231 l 2,19,20
 651 1254 651 1254 643.5 1296.5 c 128,-1,21
 636 1339 636 1339 633 1370.5 c 2,22,-1
 630 1402 l 1,16,-1
EndSplineSet
Position2: "'cpsp' Capital Spacing lookup 0 subtable" dx=12 dy=0 dh=27 dv=0
EndChar

StartChar: Agrave
Encoding: 192 192 7
Width: 1251
VWidth: 2586
GlyphClass: 2
Flags: W
HStem: 0 43G<-2 211 1022 1251> 350 182<362 872> 1526 41G<483 769>
LayerCount: 2
Back
Fore
SplineSet
602 1718 m 1,0,-1
 353 2017 l 1,1,-1
 563 2017 l 1,2,-1
 760 1718 l 1,3,-1
 602 1718 l 1,0,-1
1034 0 m 1,4,-1
 928 350 l 1,5,-1
 305 350 l 1,6,-1
 199 0 l 1,7,-1
 -2 0 l 1,8,-1
 496 1567 l 1,9,-1
 756 1567 l 1,10,-1
 1251 0 l 1,11,-1
 1034 0 l 1,4,-1
630 1402 m 1,12,-1
 362 532 l 1,13,-1
 872 532 l 1,14,-1
 659 1231 l 2,15,16
 651 1254 651 1254 643.5 1296.5 c 128,-1,17
 636 1339 636 1339 633 1370.5 c 2,18,-1
 630 1402 l 1,12,-1
EndSplineSet
Position2: "'cpsp' Capital Spacing lookup 0 subtable" dx=12 dy=0 dh=27 dv=0
EndChar

StartChar: Amacron
Encoding: 256 256 8
Width: 1251
VWidth: 2586
GlyphClass: 2
Flags: W
HStem: 0 43G<-2 211 1022 1251> 350 182<362 872> 1526 41G<483 769> 1735 166<338 913>
LayerCount: 2
Back
Fore
SplineSet
338 1735 m 1,0,-1
 338 1901 l 1,1,-1
 913 1901 l 1,2,-1
 913 1735 l 1,3,-1
 338 1735 l 1,0,-1
1034 0 m 1,4,-1
 928 350 l 1,5,-1
 305 350 l 1,6,-1
 199 0 l 1,7,-1
 -2 0 l 1,8,-1
 496 1567 l 1,9,-1
 756 1567 l 1,10,-1
 1251 0 l 1,11,-1
 1034 0 l 1,4,-1
630 1402 m 1,12,-1
 362 532 l 1,13,-1
 872 532 l 1,14,-1
 659 1231 l 2,15,16
 651 1254 651 1254 643.5 1296.5 c 128,-1,17
 636 1339 636 1339 633 1370.5 c 2,18,-1
 630 1402 l 1,12,-1
EndSplineSet
Position2: "'cpsp' Capital Spacing lookup 0 subtable" dx=12 dy=0 dh=27 dv=0
EndChar

StartChar: Aogonek
Encoding: 260 260 9
Width: 1251
VWidth: 2586
GlyphClass: 2
Flags: W
HStem: -416 150<1219 1372> -385 119<1235 1374> 0 43G<-2 211> 350 182<362 872> 1526 41G<483 769>
VStem: 1020 178<-246 -58> 1102 96<-68 -14>
LayerCount: 2
Back
Fore
SplineSet
1374 -266 m 1,0,-1
 1374 -385 l 1,1,2
 1293 -416 1293 -416 1243.5 -416 c 0,3,4
 1194 -416 1194 -416 1158 -405.5 c 128,-1,5
 1122 -395 1122 -395 1090 -372.5 c 128,-1,6
 1058 -350 1058 -350 1039 -308 c 128,-1,7
 1020 -266 1020 -266 1020 -214.5 c 0,8,9
 1020 -163 1020 -163 1033.5 -123 c 128,-1,10
 1047 -83 1047 -83 1061 -62.5 c 128,-1,11
 1075 -42 1075 -42 1102 -8 c 1,12,-1
 1102 0 l 1,13,-1
 1034 0 l 1,14,-1
 928 350 l 1,15,-1
 305 350 l 1,16,-1
 199 0 l 1,17,-1
 -2 0 l 1,18,-1
 496 1567 l 1,19,-1
 756 1567 l 1,20,-1
 1252 -2 l 1,21,22
 1198 -75 1198 -75 1198 -135 c 0,23,24
 1198 -195 1198 -195 1224 -230.5 c 128,-1,25
 1250 -266 1250 -266 1305 -266 c 2,26,-1
 1374 -266 l 1,0,-1
872 532 m 1,27,-1
 608 1401 l 1,28,29
 594 1280 594 1280 578 1231 c 2,30,-1
 362 532 l 1,31,-1
 872 532 l 1,27,-1
EndSplineSet
Position2: "'cpsp' Capital Spacing lookup 0 subtable" dx=12 dy=0 dh=27 dv=0
EndChar

StartChar: Aring
Encoding: 197 197 10
Width: 1251
VWidth: 2586
GlyphClass: 2
Flags: W
HStem: 0 43G<-2 211 1022 1251> 350 182<362 872> 1526 41G<483 769> 1653 104<533 714> 1989 104<533 712>
VStem: 403 104<1783 1963> 739 104<1782 1962>
LayerCount: 2
Back
Fore
SplineSet
467.5 2028 m 128,-1,1
 532 2093 532 2093 624.5 2093 c 128,-1,2
 717 2093 717 2093 780.5 2028 c 128,-1,3
 844 1963 844 1963 844 1872 c 128,-1,4
 844 1781 844 1781 780 1717 c 128,-1,5
 716 1653 716 1653 624.5 1653 c 128,-1,6
 533 1653 533 1653 468 1716 c 128,-1,7
 403 1779 403 1779 403 1871 c 128,-1,0
 403 1963 403 1963 467.5 2028 c 128,-1,1
704.5 1955 m 128,-1,9
 670 1989 670 1989 623.5 1989 c 128,-1,10
 577 1989 577 1989 542.5 1955 c 128,-1,11
 508 1921 508 1921 508 1872 c 128,-1,12
 508 1823 508 1823 542 1790 c 128,-1,13
 576 1757 576 1757 623 1757 c 128,-1,14
 670 1757 670 1757 704.5 1790 c 128,-1,15
 739 1823 739 1823 739 1872 c 128,-1,8
 739 1921 739 1921 704.5 1955 c 128,-1,9
1034 0 m 1,16,-1
 928 350 l 1,17,-1
 305 350 l 1,18,-1
 199 0 l 1,19,-1
 -2 0 l 1,20,-1
 496 1567 l 1,21,-1
 756 1567 l 1,22,-1
 1251 0 l 1,23,-1
 1034 0 l 1,16,-1
630 1402 m 1,24,-1
 362 532 l 1,25,-1
 872 532 l 1,26,-1
 659 1231 l 2,27,28
 651 1254 651 1254 643.5 1296.5 c 128,-1,29
 636 1339 636 1339 633 1370.5 c 2,30,-1
 630 1402 l 1,24,-1
EndSplineSet
Position2: "'cpsp' Capital Spacing lookup 0 subtable" dx=12 dy=0 dh=27 dv=0
EndChar

StartChar: Aringacute
Encoding: 506 506 11
Width: 1251
VWidth: 2586
GlyphClass: 2
Flags: W
HStem: 0 43G<-2 211 1022 1251> 350 182<362 872> 1780 98<535 715>
VStem: 406 104<1579 1754> 741 104<1579 1753>
LayerCount: 2
Back
Fore
SplineSet
557 1939 m 1,0,-1
 719 2187 l 1,1,-1
 924 2187 l 1,2,-1
 715 1939 l 1,3,-1
 557 1939 l 1,0,-1
471 1816 m 128,-1,5
 536 1878 536 1878 628 1878 c 128,-1,6
 720 1878 720 1878 783 1816 c 128,-1,7
 846 1754 846 1754 846 1663 c 128,-1,8
 846 1572 846 1572 774 1507 c 1,9,-1
 1251 0 l 1,10,-1
 1034 0 l 1,11,-1
 928 350 l 1,12,-1
 305 350 l 1,13,-1
 199 0 l 1,14,-1
 -2 0 l 1,15,-1
 479 1511 l 1,16,17
 406 1574 406 1574 406 1664 c 128,-1,4
 406 1754 406 1754 471 1816 c 128,-1,5
707 1745.5 m 128,-1,19
 673 1780 673 1780 625.5 1780 c 128,-1,20
 578 1780 578 1780 544 1745.5 c 128,-1,21
 510 1711 510 1711 510 1665.5 c 128,-1,22
 510 1620 510 1620 544 1587 c 128,-1,23
 578 1554 578 1554 625.5 1554 c 128,-1,24
 673 1554 673 1554 707 1587.5 c 128,-1,25
 741 1621 741 1621 741 1666 c 128,-1,18
 741 1711 741 1711 707 1745.5 c 128,-1,19
630 1402 m 1,26,-1
 362 532 l 1,27,-1
 872 532 l 1,28,-1
 659 1231 l 2,29,30
 651 1254 651 1254 643.5 1296.5 c 128,-1,31
 636 1339 636 1339 633 1370.5 c 2,32,-1
 630 1402 l 1,26,-1
EndSplineSet
Position2: "'cpsp' Capital Spacing lookup 0 subtable" dx=12 dy=0 dh=27 dv=0
EndChar

StartChar: Atilde
Encoding: 195 195 12
Width: 1251
VWidth: 2586
GlyphClass: 2
Flags: W
HStem: 0 43G<-2 211 1022 1251> 350 182<362 872> 1526 41G<483 769> 1782 168<609 818> 1851 168<430 643>
VStem: 289 135<1782 1842> 825 131<1958 2019>
LayerCount: 2
Back
Fore
SplineSet
619 1985.5 m 128,-1,1
 704 1950 704 1950 742.5 1950 c 128,-1,2
 781 1950 781 1950 800 1965 c 128,-1,3
 819 1980 819 1980 825 2019 c 1,4,-1
 956 2019 l 1,5,6
 956 1977 956 1977 945 1937 c 128,-1,7
 934 1897 934 1897 912.5 1861.5 c 128,-1,8
 891 1826 891 1826 852.5 1804 c 128,-1,9
 814 1782 814 1782 764.5 1782 c 128,-1,10
 715 1782 715 1782 632 1816.5 c 128,-1,11
 549 1851 549 1851 502 1851 c 0,12,13
 432 1851 432 1851 424 1782 c 1,14,-1
 289 1782 l 1,15,16
 289 1872 289 1872 339 1945.5 c 128,-1,17
 389 2019 389 2019 483 2019 c 0,18,0
 534 2021 534 2021 619 1985.5 c 128,-1,1
1034 0 m 1,19,-1
 928 350 l 1,20,-1
 305 350 l 1,21,-1
 199 0 l 1,22,-1
 -2 0 l 1,23,-1
 496 1567 l 1,24,-1
 756 1567 l 1,25,-1
 1251 0 l 1,26,-1
 1034 0 l 1,19,-1
630 1402 m 1,27,-1
 362 532 l 1,28,-1
 872 532 l 1,29,-1
 659 1231 l 2,30,31
 651 1254 651 1254 643.5 1296.5 c 128,-1,32
 636 1339 636 1339 633 1370.5 c 2,33,-1
 630 1402 l 1,27,-1
EndSplineSet
Position2: "'cpsp' Capital Spacing lookup 0 subtable" dx=12 dy=0 dh=27 dv=0
EndChar

StartChar: AE
Encoding: 198 198 13
Width: 1873
VWidth: 2586
GlyphClass: 2
Flags: W
HStem: 0 184<1210 1790> 350 182<403 918> 711 184<1092 1675> 1386 180<936 1778>
AnchorPoint: "Anchor-1" 0 0 basechar 0
AnchorPoint: "Anchor-0" 936 1567 basechar 0
LayerCount: 2
Back
Fore
SplineSet
1675 895 m 1,0,-1
 1675 711 l 1,1,-1
 1092 711 l 1,2,-1
 1210 184 l 1,3,-1
 1790 184 l 1,4,-1
 1790 0 l 1,5,-1
 1034 0 l 1,6,-1
 956 350 l 1,7,-1
 334 350 l 1,8,-1
 199 0 l 1,9,-1
 -2 0 l 1,10,-1
 639 1567 l 1,11,-1
 1778 1567 l 1,12,-1
 1778 1386 l 1,13,-1
 936 1386 l 1,14,-1
 1051 895 l 1,15,-1
 1675 895 l 1,0,-1
733 1385 m 1,16,-1
 403 532 l 1,17,-1
 918 532 l 1,18,-1
 733 1385 l 1,16,-1
EndSplineSet
Position2: "'cpsp' Capital Spacing lookup 0 subtable" dx=12 dy=0 dh=27 dv=0
EndChar

StartChar: AEacute
Encoding: 508 508 14
Width: 1873
VWidth: 2586
GlyphClass: 2
Flags: W
HStem: 0 184<1210 1790> 350 182<403 918> 711 184<1092 1675> 1386 180<936 1778>
LayerCount: 2
Back
Fore
SplineSet
1182 1718 m 1,0,-1
 1024 1718 l 1,1,-1
 1221 2019 l 1,2,-1
 1427 2019 l 1,3,-1
 1182 1718 l 1,0,-1
1675 895 m 1,4,-1
 1675 711 l 1,5,-1
 1092 711 l 1,6,-1
 1210 184 l 1,7,-1
 1790 184 l 1,8,-1
 1790 0 l 1,9,-1
 1034 0 l 1,10,-1
 956 350 l 1,11,-1
 334 350 l 1,12,-1
 199 0 l 1,13,-1
 -2 0 l 1,14,-1
 639 1567 l 1,15,-1
 1778 1567 l 1,16,-1
 1778 1386 l 1,17,-1
 936 1386 l 1,18,-1
 1051 895 l 1,19,-1
 1675 895 l 1,4,-1
733 1385 m 1,20,-1
 403 532 l 1,21,-1
 918 532 l 1,22,-1
 733 1385 l 1,20,-1
EndSplineSet
Position2: "'cpsp' Capital Spacing lookup 0 subtable" dx=12 dy=0 dh=27 dv=0
EndChar

StartChar: B
Encoding: 66 66 15
Width: 1251
VWidth: 2586
GlyphClass: 2
Flags: W
HStem: 0 184<350 871> 711 184<350 831> 1386 180<350 846>
VStem: 147 203<184 711 895 1386> 936 213<999 1298> 975 209<288 589>
LayerCount: 2
Back
Fore
SplineSet
741 1567 m 2,0,1
 918 1567 918 1567 1033.5 1460.5 c 128,-1,2
 1149 1354 1149 1354 1149 1184 c 0,3,4
 1149 1054 1149 1054 1081 957.5 c 128,-1,5
 1013 861 1013 861 907 823 c 1,6,-1
 907 815 l 1,7,8
 1028 777 1028 777 1106 670.5 c 128,-1,9
 1184 564 1184 564 1184 426 c 0,10,11
 1184 288 1184 288 1123 192 c 128,-1,12
 1062 96 1062 96 962.5 48 c 128,-1,13
 863 0 863 0 741 0 c 2,14,-1
 147 0 l 1,15,-1
 147 1567 l 1,16,-1
 741 1567 l 2,0,1
682 895 m 2,17,18
 795 895 795 895 865.5 967 c 128,-1,19
 936 1039 936 1039 936 1150.5 c 0,20,21
 936 1262 936 1262 872 1324 c 128,-1,22
 808 1386 808 1386 698 1386 c 2,23,-1
 350 1386 l 1,24,-1
 350 895 l 1,25,-1
 682 895 l 2,17,18
717 184 m 2,26,27
 831 184 831 184 903 252 c 128,-1,28
 975 320 975 320 975 436 c 0,29,30
 975 552 975 552 898.5 631.5 c 128,-1,31
 822 711 822 711 700 711 c 2,32,-1
 350 711 l 1,33,-1
 350 184 l 1,34,-1
 717 184 l 2,26,27
EndSplineSet
Position2: "'cpsp' Capital Spacing lookup 0 subtable" dx=12 dy=0 dh=27 dv=0
EndChar

StartChar: C
Encoding: 67 67 16
Width: 1351
VWidth: 2586
GlyphClass: 2
Flags: W
HStem: -29 186<519 896> 1409 186<519 888>
VStem: 96 209<428 1141> 1061 199<342 561 1001 1218>
AnchorPoint: "Anchor-1" 678 0 basechar 0
AnchorPoint: "Anchor-0" 678 1567 basechar 0
LayerCount: 2
Back
Fore
SplineSet
715 1595 m 0,0,1
 965 1595 965 1595 1112.5 1444 c 128,-1,2
 1260 1293 1260 1293 1260 1001 c 1,3,-1
 1055 1001 l 1,4,5
 1055 1201 1055 1201 964 1305 c 128,-1,6
 873 1409 873 1409 715 1409 c 0,7,8
 305 1409 305 1409 305 840 c 2,9,-1
 305 727 l 2,10,11
 305 158 305 158 715 158 c 0,12,13
 876 158 876 158 968.5 260 c 128,-1,14
 1061 362 1061 362 1061 561 c 1,15,-1
 1260 561 l 1,16,17
 1260 413 1260 413 1220.5 299.5 c 128,-1,18
 1181 186 1181 186 1108 114.5 c 128,-1,19
 1035 43 1035 43 936 7 c 128,-1,20
 837 -29 837 -29 715 -29 c 0,21,22
 96 -29 96 -29 96 783 c 0,23,24
 96 1595 96 1595 715 1595 c 0,0,1
EndSplineSet
Position2: "'cpsp' Capital Spacing lookup 0 subtable" dx=12 dy=0 dh=27 dv=0
EndChar

StartChar: Cacute
Encoding: 262 262 17
Width: 1351
VWidth: 2586
GlyphClass: 2
Flags: W
HStem: -29 186<519 896> 1409 186<519 888>
VStem: 96 209<428 1141> 1061 199<342 561 1001 1218>
LayerCount: 2
Back
Fore
SplineSet
731 1718 m 1,0,-1
 573 1718 l 1,1,-1
 770 2019 l 1,2,-1
 975 2019 l 1,3,-1
 731 1718 l 1,0,-1
715 1595 m 0,4,5
 965 1595 965 1595 1112.5 1444 c 128,-1,6
 1260 1293 1260 1293 1260 1001 c 1,7,-1
 1055 1001 l 1,8,9
 1055 1201 1055 1201 964 1305 c 128,-1,10
 873 1409 873 1409 715 1409 c 0,11,12
 305 1409 305 1409 305 840 c 2,13,-1
 305 727 l 2,14,15
 305 158 305 158 715 158 c 0,16,17
 876 158 876 158 968.5 260 c 128,-1,18
 1061 362 1061 362 1061 561 c 1,19,-1
 1260 561 l 1,20,21
 1260 413 1260 413 1220.5 299.5 c 128,-1,22
 1181 186 1181 186 1108 114.5 c 128,-1,23
 1035 43 1035 43 936 7 c 128,-1,24
 837 -29 837 -29 715 -29 c 0,25,26
 96 -29 96 -29 96 783 c 0,27,28
 96 1595 96 1595 715 1595 c 0,4,5
EndSplineSet
Position2: "'cpsp' Capital Spacing lookup 0 subtable" dx=12 dy=0 dh=27 dv=0
EndChar

StartChar: Ccaron
Encoding: 268 268 18
Width: 1351
VWidth: 2586
GlyphClass: 2
Flags: W
HStem: -29 186<519 896> 1409 186<519 888>
VStem: 96 209<428 1141> 1061 199<342 561 1001 1218>
LayerCount: 2
Back
Fore
SplineSet
391 2019 m 1,0,-1
 573 2019 l 1,1,-1
 678 1839 l 1,2,-1
 778 2019 l 1,3,-1
 963 2019 l 1,4,-1
 764 1710 l 1,5,-1
 584 1710 l 1,6,-1
 391 2019 l 1,0,-1
715 1595 m 0,7,8
 965 1595 965 1595 1112.5 1444 c 128,-1,9
 1260 1293 1260 1293 1260 1001 c 1,10,-1
 1055 1001 l 1,11,12
 1055 1201 1055 1201 964 1305 c 128,-1,13
 873 1409 873 1409 715 1409 c 0,14,15
 305 1409 305 1409 305 840 c 2,16,-1
 305 727 l 2,17,18
 305 158 305 158 715 158 c 0,19,20
 876 158 876 158 968.5 260 c 128,-1,21
 1061 362 1061 362 1061 561 c 1,22,-1
 1260 561 l 1,23,24
 1260 413 1260 413 1220.5 299.5 c 128,-1,25
 1181 186 1181 186 1108 114.5 c 128,-1,26
 1035 43 1035 43 936 7 c 128,-1,27
 837 -29 837 -29 715 -29 c 0,28,29
 96 -29 96 -29 96 783 c 0,30,31
 96 1595 96 1595 715 1595 c 0,7,8
EndSplineSet
Position2: "'cpsp' Capital Spacing lookup 0 subtable" dx=12 dy=0 dh=27 dv=0
EndChar

StartChar: Ccedilla
Encoding: 199 199 19
Width: 1351
VWidth: 2586
GlyphClass: 2
Flags: W
HStem: -416 129<465 716> -399 113<463 652> -18 176<516 590 715 895> 1409 186<519 888>
VStem: 96 209<426 1141> 719 174<-283 -180> 1061 199<342 561 1001 1218>
LayerCount: 2
Back
Fore
SplineSet
715 1595 m 0,0,1
 965 1595 965 1595 1112.5 1444 c 128,-1,2
 1260 1293 1260 1293 1260 1001 c 1,3,-1
 1055 1001 l 1,4,5
 1055 1201 1055 1201 964 1305 c 128,-1,6
 873 1409 873 1409 715 1409 c 0,7,8
 305 1409 305 1409 305 840 c 2,9,-1
 305 727 l 2,10,11
 305 158 305 158 715 158 c 0,12,13
 876 158 876 158 968.5 260 c 128,-1,14
 1061 362 1061 362 1061 561 c 1,15,-1
 1260 561 l 1,16,17
 1260 413 1260 413 1220.5 299.5 c 128,-1,18
 1181 186 1181 186 1108 114.5 c 128,-1,19
 1035 43 1035 43 936 7 c 128,-1,20
 837 -29 837 -29 715 -29 c 1,21,-1
 715 -82 l 1,22,23
 893 -93 893 -93 893 -229 c 0,24,25
 893 -284 893 -284 869.5 -323.5 c 128,-1,26
 846 -363 846 -363 807.5 -381.5 c 128,-1,27
 769 -400 769 -400 732 -408 c 128,-1,28
 695 -416 695 -416 625.5 -416 c 0,29,30
 556 -416 556 -416 463 -399 c 1,31,-1
 463 -287 l 1,32,-1
 637 -287 l 2,33,34
 719 -287 719 -287 719 -229 c 0,35,36
 719 -201 719 -201 701.5 -188.5 c 128,-1,37
 684 -176 684 -176 641 -176 c 2,38,-1
 563 -176 l 1,39,-1
 590 -18 l 1,40,41
 96 56 96 56 96 784 c 0,42,43
 96 1595 96 1595 715 1595 c 0,0,1
EndSplineSet
Position2: "'cpsp' Capital Spacing lookup 0 subtable" dx=12 dy=0 dh=27 dv=0
EndChar

StartChar: Ccircumflex
Encoding: 264 264 20
Width: 1351
VWidth: 2586
GlyphClass: 2
Flags: W
HStem: -29 186<519 896> 1409 186<519 888>
VStem: 96 209<428 1141> 1061 199<342 561 1001 1218>
LayerCount: 2
Back
Fore
SplineSet
680 1888 m 1,0,-1
 573 1708 l 1,1,-1
 391 1708 l 1,2,-1
 588 2017 l 1,3,-1
 766 2017 l 1,4,-1
 963 1708 l 1,5,-1
 778 1708 l 1,6,-1
 680 1888 l 1,0,-1
715 1595 m 0,7,8
 965 1595 965 1595 1112.5 1444 c 128,-1,9
 1260 1293 1260 1293 1260 1001 c 1,10,-1
 1055 1001 l 1,11,12
 1055 1201 1055 1201 964 1305 c 128,-1,13
 873 1409 873 1409 715 1409 c 0,14,15
 305 1409 305 1409 305 840 c 2,16,-1
 305 727 l 2,17,18
 305 158 305 158 715 158 c 0,19,20
 876 158 876 158 968.5 260 c 128,-1,21
 1061 362 1061 362 1061 561 c 1,22,-1
 1260 561 l 1,23,24
 1260 413 1260 413 1220.5 299.5 c 128,-1,25
 1181 186 1181 186 1108 114.5 c 128,-1,26
 1035 43 1035 43 936 7 c 128,-1,27
 837 -29 837 -29 715 -29 c 0,28,29
 96 -29 96 -29 96 783 c 0,30,31
 96 1595 96 1595 715 1595 c 0,7,8
EndSplineSet
Position2: "'cpsp' Capital Spacing lookup 0 subtable" dx=12 dy=0 dh=27 dv=0
EndChar

StartChar: Cdotaccent
Encoding: 266 266 21
Width: 1351
VWidth: 2586
GlyphClass: 2
Flags: W
HStem: -29 186<519 896> 1409 186<519 888> 1802 217<578 778>
VStem: 96 209<428 1141> 578 201<1802 2019> 1061 199<342 561 1001 1218>
LayerCount: 2
Back
Fore
SplineSet
578 2019 m 1,0,-1
 778 2019 l 1,1,-1
 778 1802 l 1,2,-1
 578 1802 l 1,3,-1
 578 2019 l 1,0,-1
715 1595 m 0,4,5
 965 1595 965 1595 1112.5 1444 c 128,-1,6
 1260 1293 1260 1293 1260 1001 c 1,7,-1
 1055 1001 l 1,8,9
 1055 1201 1055 1201 964 1305 c 128,-1,10
 873 1409 873 1409 715 1409 c 0,11,12
 305 1409 305 1409 305 840 c 2,13,-1
 305 727 l 2,14,15
 305 158 305 158 715 158 c 0,16,17
 876 158 876 158 968.5 260 c 128,-1,18
 1061 362 1061 362 1061 561 c 1,19,-1
 1260 561 l 1,20,21
 1260 413 1260 413 1220.5 299.5 c 128,-1,22
 1181 186 1181 186 1108 114.5 c 128,-1,23
 1035 43 1035 43 936 7 c 128,-1,24
 837 -29 837 -29 715 -29 c 0,25,26
 96 -29 96 -29 96 783 c 0,27,28
 96 1595 96 1595 715 1595 c 0,4,5
EndSplineSet
Position2: "'cpsp' Capital Spacing lookup 0 subtable" dx=12 dy=0 dh=27 dv=0
EndChar

StartChar: D
Encoding: 68 68 22
Width: 1351
VWidth: 2586
GlyphClass: 2
Flags: W
HStem: 0 184<362 810> 1386 180<362 810>
VStem: 160 203<184 1386> 1032 209<454 1138>
AnchorPoint: "Anchor-1" 0 0 basechar 0
AnchorPoint: "Anchor-0" 678 1567 basechar 0
LayerCount: 2
Back
Fore
SplineSet
647 1567 m 2,0,1
 930 1567 930 1567 1085.5 1373.5 c 128,-1,2
 1241 1180 1241 1180 1241 794.5 c 0,3,4
 1241 409 1241 409 1085.5 204.5 c 128,-1,5
 930 0 930 0 647 0 c 2,6,-1
 160 0 l 1,7,-1
 160 1567 l 1,8,-1
 647 1567 l 2,0,1
629 184 m 2,9,10
 820 184 820 184 926 326.5 c 128,-1,11
 1032 469 1032 469 1032 750 c 2,12,-1
 1032 864 l 2,13,14
 1032 1121 1032 1121 925.5 1253.5 c 128,-1,15
 819 1386 819 1386 629 1386 c 2,16,-1
 362 1386 l 1,17,-1
 362 184 l 1,18,-1
 629 184 l 2,9,10
EndSplineSet
Position2: "'cpsp' Capital Spacing lookup 0 subtable" dx=12 dy=0 dh=27 dv=0
EndChar

StartChar: Eth
Encoding: 208 208 23
Width: 1351
VWidth: 2586
GlyphClass: 2
Flags: W
HStem: 0 184<362 810> 739 145<10 160 362 719> 1386 180<362 810>
VStem: 160 203<184 739 885 1386> 1032 209<454 1138>
LayerCount: 2
Back
Fore
SplineSet
160 1567 m 1,0,-1
 647 1567 l 2,1,2
 930 1567 930 1567 1085.5 1373.5 c 128,-1,3
 1241 1180 1241 1180 1241 794.5 c 0,4,5
 1241 409 1241 409 1085.5 204.5 c 128,-1,6
 930 0 930 0 647 0 c 2,7,-1
 160 0 l 1,8,-1
 160 739 l 1,9,-1
 10 739 l 1,10,-1
 10 885 l 1,11,-1
 160 885 l 1,12,-1
 160 1567 l 1,0,-1
719 885 m 1,13,-1
 719 739 l 1,14,-1
 362 739 l 1,15,-1
 362 184 l 1,16,-1
 629 184 l 2,17,18
 820 184 820 184 926 326.5 c 128,-1,19
 1032 469 1032 469 1032 750 c 2,20,-1
 1032 864 l 2,21,22
 1032 1121 1032 1121 925.5 1253.5 c 128,-1,23
 819 1386 819 1386 629 1386 c 2,24,-1
 362 1386 l 1,25,-1
 362 885 l 1,26,-1
 719 885 l 1,13,-1
EndSplineSet
Position2: "'cpsp' Capital Spacing lookup 0 subtable" dx=12 dy=0 dh=27 dv=0
EndChar

StartChar: Dcaron
Encoding: 270 270 24
Width: 1351
VWidth: 2586
GlyphClass: 2
Flags: W
HStem: 0 184<362 810> 1386 180<362 810>
VStem: 160 203<184 1386> 1032 209<454 1138>
LayerCount: 2
Back
Fore
SplineSet
391 2019 m 1,0,-1
 573 2019 l 1,1,-1
 678 1839 l 1,2,-1
 778 2019 l 1,3,-1
 963 2019 l 1,4,-1
 764 1710 l 1,5,-1
 584 1710 l 1,6,-1
 391 2019 l 1,0,-1
647 1567 m 2,7,8
 930 1567 930 1567 1085.5 1373.5 c 128,-1,9
 1241 1180 1241 1180 1241 794.5 c 0,10,11
 1241 409 1241 409 1085.5 204.5 c 128,-1,12
 930 0 930 0 647 0 c 2,13,-1
 160 0 l 1,14,-1
 160 1567 l 1,15,-1
 647 1567 l 2,7,8
629 184 m 2,16,17
 820 184 820 184 926 326.5 c 128,-1,18
 1032 469 1032 469 1032 750 c 2,19,-1
 1032 864 l 2,20,21
 1032 1121 1032 1121 925.5 1253.5 c 128,-1,22
 819 1386 819 1386 629 1386 c 2,23,-1
 362 1386 l 1,24,-1
 362 184 l 1,25,-1
 629 184 l 2,16,17
EndSplineSet
Position2: "'cpsp' Capital Spacing lookup 0 subtable" dx=12 dy=0 dh=27 dv=0
EndChar

StartChar: Dcroat
Encoding: 272 272 25
Width: 1351
VWidth: 2586
GlyphClass: 2
Flags: W
HStem: 0 184<362 810> 739 145<10 160 362 719> 1386 180<362 810>
VStem: 160 203<184 739 885 1386> 1032 209<454 1138>
LayerCount: 2
Back
Fore
SplineSet
160 1567 m 1,0,-1
 647 1567 l 2,1,2
 930 1567 930 1567 1085.5 1373.5 c 128,-1,3
 1241 1180 1241 1180 1241 794.5 c 0,4,5
 1241 409 1241 409 1085.5 204.5 c 128,-1,6
 930 0 930 0 647 0 c 2,7,-1
 160 0 l 1,8,-1
 160 739 l 1,9,-1
 10 739 l 1,10,-1
 10 885 l 1,11,-1
 160 885 l 1,12,-1
 160 1567 l 1,0,-1
719 885 m 1,13,-1
 719 739 l 1,14,-1
 362 739 l 1,15,-1
 362 184 l 1,16,-1
 629 184 l 2,17,18
 820 184 820 184 926 326.5 c 128,-1,19
 1032 469 1032 469 1032 750 c 2,20,-1
 1032 864 l 2,21,22
 1032 1121 1032 1121 925.5 1253.5 c 128,-1,23
 819 1386 819 1386 629 1386 c 2,24,-1
 362 1386 l 1,25,-1
 362 885 l 1,26,-1
 719 885 l 1,13,-1
EndSplineSet
Position2: "'cpsp' Capital Spacing lookup 0 subtable" dx=12 dy=0 dh=27 dv=0
EndChar

StartChar: E
Encoding: 69 69 26
Width: 1251
VWidth: 2586
GlyphClass: 2
Flags: W
HStem: 0 184<362 1141> 711 184<362 1026> 1386 180<362 1128>
VStem: 160 203<184 711 895 1386>
AnchorPoint: "Anchor-1" 627 0 basechar 0
AnchorPoint: "Anchor-0" 627 1567 basechar 0
LayerCount: 2
Back
Fore
SplineSet
1128 1567 m 1,0,-1
 1128 1386 l 1,1,-1
 362 1386 l 1,2,-1
 362 895 l 1,3,-1
 1026 895 l 1,4,-1
 1026 711 l 1,5,-1
 362 711 l 1,6,-1
 362 184 l 1,7,-1
 1141 184 l 1,8,-1
 1141 0 l 1,9,-1
 160 0 l 1,10,-1
 160 1567 l 1,11,-1
 1128 1567 l 1,0,-1
EndSplineSet
Position2: "'cpsp' Capital Spacing lookup 0 subtable" dx=12 dy=0 dh=27 dv=0
EndChar

StartChar: Eacute
Encoding: 201 201 27
Width: 1251
VWidth: 2586
GlyphClass: 2
Flags: W
HStem: 0 184<362 1141> 711 184<362 1026> 1386 180<362 1128>
VStem: 160 203<184 711 895 1386>
LayerCount: 2
Back
Fore
SplineSet
647 1718 m 1,0,-1
 489 1718 l 1,1,-1
 686 2019 l 1,2,-1
 893 2019 l 1,3,-1
 647 1718 l 1,0,-1
362 1386 m 1,4,-1
 362 895 l 1,5,-1
 1026 895 l 1,6,-1
 1026 711 l 1,7,-1
 362 711 l 1,8,-1
 362 184 l 1,9,-1
 1141 184 l 1,10,-1
 1141 0 l 1,11,-1
 160 0 l 1,12,-1
 160 1567 l 1,13,-1
 1128 1567 l 1,14,-1
 1128 1386 l 1,15,-1
 362 1386 l 1,4,-1
EndSplineSet
Position2: "'cpsp' Capital Spacing lookup 0 subtable" dx=12 dy=0 dh=27 dv=0
EndChar

StartChar: Ebreve
Encoding: 276 276 28
Width: 1251
VWidth: 2586
GlyphClass: 2
Flags: W
HStem: 0 184<362 1141> 711 184<362 1026> 1386 180<362 1128> 1798 145<510 742>
VStem: 160 203<184 711 895 1386> 344 145<1970 2019> 760 147<1970 2019>
LayerCount: 2
Back
Fore
SplineSet
907 2019 m 1,0,1
 907 1935 907 1935 827.5 1866.5 c 128,-1,2
 748 1798 748 1798 623.5 1798 c 0,3,4
 499 1798 499 1798 421.5 1866.5 c 128,-1,5
 344 1935 344 1935 344 2019 c 1,6,-1
 489 2019 l 1,7,8
 496 1991 496 1991 533 1967.5 c 128,-1,9
 570 1944 570 1944 624 1944 c 0,10,11
 678 1944 678 1944 718 1968 c 128,-1,12
 758 1992 758 1992 760 2019 c 1,13,-1
 907 2019 l 1,0,1
1128 1567 m 1,14,-1
 1128 1386 l 1,15,-1
 362 1386 l 1,16,-1
 362 895 l 1,17,-1
 1026 895 l 1,18,-1
 1026 711 l 1,19,-1
 362 711 l 1,20,-1
 362 184 l 1,21,-1
 1141 184 l 1,22,-1
 1141 0 l 1,23,-1
 160 0 l 1,24,-1
 160 1567 l 1,25,-1
 1128 1567 l 1,14,-1
EndSplineSet
Position2: "'cpsp' Capital Spacing lookup 0 subtable" dx=12 dy=0 dh=27 dv=0
EndChar

StartChar: Ecaron
Encoding: 282 282 29
Width: 1251
VWidth: 2586
GlyphClass: 2
Flags: W
HStem: 0 184<362 1141> 711 184<362 1026> 1386 180<362 1128>
VStem: 160 203<184 711 895 1386>
LayerCount: 2
Back
Fore
SplineSet
342 2019 m 1,0,-1
 522 2019 l 1,1,-1
 623 1839 l 1,2,-1
 727 2019 l 1,3,-1
 911 2019 l 1,4,-1
 715 1710 l 1,5,-1
 535 1710 l 1,6,-1
 342 2019 l 1,0,-1
1128 1567 m 1,7,-1
 1128 1386 l 1,8,-1
 362 1386 l 1,9,-1
 362 895 l 1,10,-1
 1026 895 l 1,11,-1
 1026 711 l 1,12,-1
 362 711 l 1,13,-1
 362 184 l 1,14,-1
 1141 184 l 1,15,-1
 1141 0 l 1,16,-1
 160 0 l 1,17,-1
 160 1567 l 1,18,-1
 1128 1567 l 1,7,-1
EndSplineSet
Position2: "'cpsp' Capital Spacing lookup 0 subtable" dx=12 dy=0 dh=27 dv=0
EndChar

StartChar: Ecircumflex
Encoding: 202 202 30
Width: 1251
VWidth: 2586
GlyphClass: 2
Flags: W
HStem: 0 184<362 1141> 711 184<362 1026> 1386 180<362 1128>
VStem: 160 203<184 711 895 1386>
LayerCount: 2
Back
Fore
SplineSet
627 1888 m 1,0,-1
 522 1708 l 1,1,-1
 342 1708 l 1,2,-1
 539 2017 l 1,3,-1
 717 2017 l 1,4,-1
 911 1708 l 1,5,-1
 727 1708 l 1,6,-1
 627 1888 l 1,0,-1
1128 1567 m 1,7,-1
 1128 1386 l 1,8,-1
 362 1386 l 1,9,-1
 362 895 l 1,10,-1
 1026 895 l 1,11,-1
 1026 711 l 1,12,-1
 362 711 l 1,13,-1
 362 184 l 1,14,-1
 1141 184 l 1,15,-1
 1141 0 l 1,16,-1
 160 0 l 1,17,-1
 160 1567 l 1,18,-1
 1128 1567 l 1,7,-1
EndSplineSet
Position2: "'cpsp' Capital Spacing lookup 0 subtable" dx=12 dy=0 dh=27 dv=0
EndChar

StartChar: Edieresis
Encoding: 203 203 31
Width: 1251
VWidth: 2586
GlyphClass: 2
Flags: W
HStem: 0 184<362 1141> 711 184<362 1026> 1386 180<362 1128> 1802 217<354 553 698 897>
VStem: 160 203<184 711 895 1386> 354 199<1802 2019> 698 199<1802 2019>
LayerCount: 2
Back
Fore
SplineSet
354 1802 m 1,0,-1
 354 2019 l 1,1,-1
 553 2019 l 1,2,-1
 553 1802 l 1,3,-1
 354 1802 l 1,0,-1
698 1802 m 1,4,-1
 698 2019 l 1,5,-1
 897 2019 l 1,6,-1
 897 1802 l 1,7,-1
 698 1802 l 1,4,-1
362 1386 m 1,8,-1
 362 895 l 1,9,-1
 1026 895 l 1,10,-1
 1026 711 l 1,11,-1
 362 711 l 1,12,-1
 362 184 l 1,13,-1
 1141 184 l 1,14,-1
 1141 0 l 1,15,-1
 160 0 l 1,16,-1
 160 1567 l 1,17,-1
 1128 1567 l 1,18,-1
 1128 1386 l 1,19,-1
 362 1386 l 1,8,-1
EndSplineSet
Position2: "'cpsp' Capital Spacing lookup 0 subtable" dx=12 dy=0 dh=27 dv=0
EndChar

StartChar: Edotaccent
Encoding: 278 278 32
Width: 1251
VWidth: 2586
GlyphClass: 2
Flags: W
HStem: 0 184<362 1141> 711 184<362 1026> 1386 180<362 1128> 1802 217<524 725>
VStem: 160 203<184 711 895 1386> 524 201<1802 2019>
LayerCount: 2
Back
Fore
SplineSet
524 2019 m 1,0,-1
 725 2019 l 1,1,-1
 725 1802 l 1,2,-1
 524 1802 l 1,3,-1
 524 2019 l 1,0,-1
1128 1567 m 1,4,-1
 1128 1386 l 1,5,-1
 362 1386 l 1,6,-1
 362 895 l 1,7,-1
 1026 895 l 1,8,-1
 1026 711 l 1,9,-1
 362 711 l 1,10,-1
 362 184 l 1,11,-1
 1141 184 l 1,12,-1
 1141 0 l 1,13,-1
 160 0 l 1,14,-1
 160 1567 l 1,15,-1
 1128 1567 l 1,4,-1
EndSplineSet
Position2: "'cpsp' Capital Spacing lookup 0 subtable" dx=12 dy=0 dh=27 dv=0
EndChar

StartChar: Egrave
Encoding: 200 200 33
Width: 1251
VWidth: 2586
GlyphClass: 2
Flags: W
HStem: 0 184<362 1141> 711 184<362 1026> 1386 180<362 1128>
VStem: 160 203<184 711 895 1386>
LayerCount: 2
Back
Fore
SplineSet
602 1718 m 1,0,-1
 353 2017 l 1,1,-1
 563 2017 l 1,2,-1
 760 1718 l 1,3,-1
 602 1718 l 1,0,-1
362 1386 m 1,4,-1
 362 895 l 1,5,-1
 1026 895 l 1,6,-1
 1026 711 l 1,7,-1
 362 711 l 1,8,-1
 362 184 l 1,9,-1
 1141 184 l 1,10,-1
 1141 0 l 1,11,-1
 160 0 l 1,12,-1
 160 1567 l 1,13,-1
 1128 1567 l 1,14,-1
 1128 1386 l 1,15,-1
 362 1386 l 1,4,-1
EndSplineSet
Position2: "'cpsp' Capital Spacing lookup 0 subtable" dx=12 dy=0 dh=27 dv=0
EndChar

StartChar: Emacron
Encoding: 274 274 34
Width: 1251
VWidth: 2586
GlyphClass: 2
Flags: W
HStem: 0 184<362 1141> 711 184<362 1026> 1386 180<362 1128> 1735 166<338 913>
VStem: 160 203<184 711 895 1386>
LayerCount: 2
Back
Fore
SplineSet
338 1901 m 1,0,-1
 913 1901 l 1,1,-1
 913 1735 l 1,2,-1
 338 1735 l 1,3,-1
 338 1901 l 1,0,-1
1128 1567 m 1,4,-1
 1128 1386 l 1,5,-1
 362 1386 l 1,6,-1
 362 895 l 1,7,-1
 1026 895 l 1,8,-1
 1026 711 l 1,9,-1
 362 711 l 1,10,-1
 362 184 l 1,11,-1
 1141 184 l 1,12,-1
 1141 0 l 1,13,-1
 160 0 l 1,14,-1
 160 1567 l 1,15,-1
 1128 1567 l 1,4,-1
EndSplineSet
Position2: "'cpsp' Capital Spacing lookup 0 subtable" dx=12 dy=0 dh=27 dv=0
EndChar

StartChar: Eogonek
Encoding: 280 280 35
Width: 1251
VWidth: 2586
GlyphClass: 2
Flags: W
HStem: -416 150<1108 1259> -385 119<1125 1262> 0 184<362 993> 711 184<362 1026> 1386 180<362 1128>
VStem: 160 203<184 711 895 1386> 907 178<-246 -51>
LayerCount: 2
Back
Fore
SplineSet
362 895 m 1,0,-1
 1026 895 l 1,1,-1
 1026 711 l 1,2,-1
 362 711 l 1,3,-1
 362 184 l 1,4,-1
 1141 184 l 1,5,-1
 1141 0 l 1,6,7
 1085 -68 1085 -68 1085 -131.5 c 0,8,9
 1085 -195 1085 -195 1111 -230.5 c 128,-1,10
 1137 -266 1137 -266 1192 -266 c 2,11,-1
 1262 -266 l 1,12,-1
 1262 -385 l 1,13,14
 1178 -416 1178 -416 1130.5 -416 c 0,15,16
 1083 -416 1083 -416 1047 -405.5 c 128,-1,17
 1011 -395 1011 -395 978.5 -372.5 c 128,-1,18
 946 -350 946 -350 926.5 -308 c 128,-1,19
 907 -266 907 -266 907 -209 c 0,20,21
 907 -90 907 -90 993 0 c 1,22,-1
 160 0 l 1,23,-1
 160 1567 l 1,24,-1
 1128 1567 l 1,25,-1
 1128 1386 l 1,26,-1
 362 1386 l 1,27,-1
 362 895 l 1,0,-1
EndSplineSet
Position2: "'cpsp' Capital Spacing lookup 0 subtable" dx=12 dy=0 dh=27 dv=0
EndChar

StartChar: F
Encoding: 70 70 36
Width: 1144
VWidth: 2586
GlyphClass: 2
Flags: W
HStem: 0 43G<160 362> 696 180<362 983> 1386 180<362 1065>
VStem: 160 203<0 696 877 1386>
LayerCount: 2
Back
Fore
SplineSet
1065 1567 m 1,0,-1
 1065 1386 l 1,1,-1
 362 1386 l 1,2,-1
 362 877 l 1,3,-1
 983 877 l 1,4,-1
 983 696 l 1,5,-1
 362 696 l 1,6,-1
 362 0 l 1,7,-1
 160 0 l 1,8,-1
 160 1567 l 1,9,-1
 1065 1567 l 1,0,-1
EndSplineSet
Position2: "'cpsp' Capital Spacing lookup 0 subtable" dx=12 dy=0 dh=27 dv=0
EndChar

StartChar: G
Encoding: 71 71 37
Width: 1458
VWidth: 2586
GlyphClass: 2
Flags: W
HStem: -29 186<538 932> 0 43G<1167 1311> 641 176<698 1104> 1409 186<550 931>
VStem: 111 213<428 1141> 1104 207<349 641 1034 1240> 1178 133<0 55>
AnchorPoint: "Anchor-1" 729 0 basechar 0
AnchorPoint: "Anchor-0" 729 1567 basechar 0
LayerCount: 2
Back
Fore
SplineSet
698 817 m 1,0,-1
 1311 817 l 1,1,-1
 1311 0 l 1,2,-1
 1178 0 l 1,3,-1
 1133 174 l 1,4,5
 995 -29 995 -29 729 -29 c 0,6,7
 429 -29 429 -29 270 176 c 128,-1,8
 111 381 111 381 111 783 c 0,9,10
 111 1185 111 1185 275.5 1390 c 128,-1,11
 440 1595 440 1595 739 1595 c 0,12,13
 863 1595 863 1595 967 1560 c 128,-1,14
 1071 1525 1071 1525 1148 1456.5 c 128,-1,15
 1225 1388 1225 1388 1268 1280 c 128,-1,16
 1311 1172 1311 1172 1311 1034 c 1,17,-1
 1104 1034 l 1,18,19
 1104 1221 1104 1221 1006 1315 c 128,-1,20
 908 1409 908 1409 725.5 1409 c 0,21,22
 543 1409 543 1409 433.5 1265 c 128,-1,23
 324 1121 324 1121 324 840 c 2,24,-1
 324 727 l 2,25,26
 324 442 324 442 426.5 300 c 128,-1,27
 529 158 529 158 726 158 c 0,28,29
 923 158 923 158 1013.5 267.5 c 128,-1,30
 1104 377 1104 377 1104 602 c 2,31,-1
 1104 641 l 1,32,-1
 698 641 l 1,33,-1
 698 817 l 1,0,-1
EndSplineSet
Position2: "'cpsp' Capital Spacing lookup 0 subtable" dx=12 dy=0 dh=27 dv=0
EndChar

StartChar: Gbreve
Encoding: 286 286 38
Width: 1458
VWidth: 2586
GlyphClass: 2
Flags: W
HStem: -29 186<538 932> 0 43G<1167 1311> 641 176<698 1104> 1409 186<550 931> 1798 145<612 848>
VStem: 111 213<428 1141> 446 147<1970 2019> 866 147<1970 2019> 1104 207<349 641 1034 1240> 1178 133<0 55>
LayerCount: 2
Back
Fore
SplineSet
934 1866.5 m 128,-1,1
 854 1798 854 1798 729.5 1798 c 128,-1,2
 605 1798 605 1798 525.5 1866.5 c 128,-1,3
 446 1935 446 1935 446 2019 c 1,4,-1
 594 2019 l 1,5,6
 599 1992 599 1992 637.5 1968 c 128,-1,7
 676 1944 676 1944 730 1944 c 128,-1,8
 784 1944 784 1944 822.5 1968 c 128,-1,9
 861 1992 861 1992 866 2019 c 1,10,-1
 1014 2019 l 1,11,0
 1014 1935 1014 1935 934 1866.5 c 128,-1,1
698 817 m 1,12,-1
 1311 817 l 1,13,-1
 1311 0 l 1,14,-1
 1178 0 l 1,15,-1
 1133 174 l 1,16,17
 995 -29 995 -29 729 -29 c 0,18,19
 429 -29 429 -29 270 176 c 128,-1,20
 111 381 111 381 111 783 c 128,-1,21
 111 1185 111 1185 275.5 1390 c 128,-1,22
 440 1595 440 1595 739 1595 c 0,23,24
 863 1595 863 1595 967 1560 c 128,-1,25
 1071 1525 1071 1525 1148 1456.5 c 128,-1,26
 1225 1388 1225 1388 1268 1280 c 128,-1,27
 1311 1172 1311 1172 1311 1034 c 1,28,-1
 1104 1034 l 1,29,30
 1104 1221 1104 1221 1006 1315 c 128,-1,31
 908 1409 908 1409 725.5 1409 c 128,-1,32
 543 1409 543 1409 433.5 1265 c 128,-1,33
 324 1121 324 1121 324 840 c 2,34,-1
 324 727 l 2,35,36
 324 442 324 442 426.5 300 c 128,-1,37
 529 158 529 158 726 158 c 128,-1,38
 923 158 923 158 1013.5 267.5 c 128,-1,39
 1104 377 1104 377 1104 602 c 2,40,-1
 1104 641 l 1,41,-1
 698 641 l 1,42,-1
 698 817 l 1,12,-1
EndSplineSet
Position2: "'cpsp' Capital Spacing lookup 0 subtable" dx=12 dy=0 dh=27 dv=0
EndChar

StartChar: Gcircumflex
Encoding: 284 284 39
Width: 1458
VWidth: 2586
GlyphClass: 2
Flags: W
HStem: -29 186<538 932> 0 43G<1167 1311> 641 176<698 1104> 1409 186<550 931>
VStem: 111 213<428 1141> 1104 207<349 641 1034 1240> 1178 133<0 55>
LayerCount: 2
Back
Fore
SplineSet
629 1708 m 1,0,-1
 444 1708 l 1,1,-1
 641 2017 l 1,2,-1
 819 2017 l 1,3,-1
 1014 1708 l 1,4,-1
 834 1708 l 1,5,-1
 731 1888 l 1,6,-1
 629 1708 l 1,0,-1
698 817 m 1,7,-1
 1311 817 l 1,8,-1
 1311 0 l 1,9,-1
 1178 0 l 1,10,-1
 1133 174 l 1,11,12
 995 -29 995 -29 729 -29 c 0,13,14
 429 -29 429 -29 270 176 c 128,-1,15
 111 381 111 381 111 783 c 0,16,17
 111 1185 111 1185 275.5 1390 c 128,-1,18
 440 1595 440 1595 739 1595 c 0,19,20
 863 1595 863 1595 967 1560 c 128,-1,21
 1071 1525 1071 1525 1148 1456.5 c 128,-1,22
 1225 1388 1225 1388 1268 1280 c 128,-1,23
 1311 1172 1311 1172 1311 1034 c 1,24,-1
 1104 1034 l 1,25,26
 1104 1221 1104 1221 1006 1315 c 128,-1,27
 908 1409 908 1409 725.5 1409 c 0,28,29
 543 1409 543 1409 433.5 1265 c 128,-1,30
 324 1121 324 1121 324 840 c 2,31,-1
 324 727 l 2,32,33
 324 442 324 442 426.5 300 c 128,-1,34
 529 158 529 158 726 158 c 0,35,36
 923 158 923 158 1013.5 267.5 c 128,-1,37
 1104 377 1104 377 1104 602 c 2,38,-1
 1104 641 l 1,39,-1
 698 641 l 1,40,-1
 698 817 l 1,7,-1
EndSplineSet
Position2: "'cpsp' Capital Spacing lookup 0 subtable" dx=12 dy=0 dh=27 dv=0
EndChar

StartChar: Gcommaaccent
Encoding: 290 290 40
Width: 1458
VWidth: 2586
GlyphClass: 2
Flags: W
HStem: -29 186<538 932> 0 43G<1167 1311> 641 176<698 1104> 1409 186<550 931>
VStem: 111 213<428 1141> 633 195<-328 -137> 1104 207<349 641 1034 1240> 1178 133<0 55>
LayerCount: 2
Back
Fore
SplineSet
698 817 m 1,0,-1
 1311 817 l 1,1,-1
 1311 0 l 1,2,-1
 1178 0 l 1,3,-1
 1133 174 l 1,4,5
 995 -29 995 -29 729 -29 c 0,6,7
 429 -29 429 -29 270 176 c 128,-1,8
 111 381 111 381 111 783 c 0,9,10
 111 1185 111 1185 275.5 1390 c 128,-1,11
 440 1595 440 1595 739 1595 c 0,12,13
 863 1595 863 1595 967 1560 c 128,-1,14
 1071 1525 1071 1525 1148 1456.5 c 128,-1,15
 1225 1388 1225 1388 1268 1280 c 128,-1,16
 1311 1172 1311 1172 1311 1034 c 1,17,-1
 1104 1034 l 1,18,19
 1104 1221 1104 1221 1006 1315 c 128,-1,20
 908 1409 908 1409 725.5 1409 c 0,21,22
 543 1409 543 1409 433.5 1265 c 128,-1,23
 324 1121 324 1121 324 840 c 2,24,-1
 324 727 l 2,25,26
 324 442 324 442 426.5 300 c 128,-1,27
 529 158 529 158 726 158 c 0,28,29
 923 158 923 158 1013.5 267.5 c 128,-1,30
 1104 377 1104 377 1104 602 c 2,31,-1
 1104 641 l 1,32,-1
 698 641 l 1,33,-1
 698 817 l 1,0,-1
633 -137 m 1,34,-1
 827 -137 l 1,35,-1
 827 -328 l 1,36,-1
 760 -508 l 1,37,-1
 659 -508 l 1,38,-1
 711 -344 l 1,39,-1
 633 -344 l 1,40,-1
 633 -137 l 1,34,-1
EndSplineSet
Position2: "'cpsp' Capital Spacing lookup 0 subtable" dx=12 dy=0 dh=27 dv=0
EndChar

StartChar: Gdotaccent
Encoding: 288 288 41
Width: 1458
VWidth: 2586
GlyphClass: 2
Flags: W
HStem: -29 186<538 932> 0 43G<1167 1311> 641 176<698 1104> 1409 186<550 931> 1802 217<631 829>
VStem: 111 213<428 1141> 631 199<1802 2019> 1104 207<349 641 1034 1240> 1178 133<0 55>
LayerCount: 2
Back
Fore
SplineSet
829 1802 m 1,0,-1
 631 1802 l 1,1,-1
 631 2019 l 1,2,-1
 829 2019 l 1,3,-1
 829 1802 l 1,0,-1
698 817 m 1,4,-1
 1311 817 l 1,5,-1
 1311 0 l 1,6,-1
 1178 0 l 1,7,-1
 1133 174 l 1,8,9
 995 -29 995 -29 729 -29 c 0,10,11
 429 -29 429 -29 270 176 c 128,-1,12
 111 381 111 381 111 783 c 0,13,14
 111 1185 111 1185 275.5 1390 c 128,-1,15
 440 1595 440 1595 739 1595 c 0,16,17
 863 1595 863 1595 967 1560 c 128,-1,18
 1071 1525 1071 1525 1148 1456.5 c 128,-1,19
 1225 1388 1225 1388 1268 1280 c 128,-1,20
 1311 1172 1311 1172 1311 1034 c 1,21,-1
 1104 1034 l 1,22,23
 1104 1221 1104 1221 1006 1315 c 128,-1,24
 908 1409 908 1409 725.5 1409 c 0,25,26
 543 1409 543 1409 433.5 1265 c 128,-1,27
 324 1121 324 1121 324 840 c 2,28,-1
 324 727 l 2,29,30
 324 442 324 442 426.5 300 c 128,-1,31
 529 158 529 158 726 158 c 0,32,33
 923 158 923 158 1013.5 267.5 c 128,-1,34
 1104 377 1104 377 1104 602 c 2,35,-1
 1104 641 l 1,36,-1
 698 641 l 1,37,-1
 698 817 l 1,4,-1
EndSplineSet
Position2: "'cpsp' Capital Spacing lookup 0 subtable" dx=12 dy=0 dh=27 dv=0
EndChar

StartChar: H
Encoding: 72 72 42
Width: 1351
VWidth: 2586
GlyphClass: 2
Flags: W
HStem: 0 43G<160 362 993 1192> 711 184<362 993> 1526 41G<160 362 993 1192>
VStem: 160 203<0 711 895 1567> 993 199<0 711 895 1567>
AnchorPoint: "Anchor-1" 0 0 basechar 0
AnchorPoint: "Anchor-0" 678 1567 basechar 0
LayerCount: 2
Back
Fore
SplineSet
993 0 m 1,0,-1
 993 711 l 1,1,-1
 362 711 l 1,2,-1
 362 0 l 1,3,-1
 160 0 l 1,4,-1
 160 1567 l 1,5,-1
 362 1567 l 1,6,-1
 362 895 l 1,7,-1
 993 895 l 1,8,-1
 993 1567 l 1,9,-1
 1192 1567 l 1,10,-1
 1192 0 l 1,11,-1
 993 0 l 1,0,-1
EndSplineSet
Position2: "'cpsp' Capital Spacing lookup 0 subtable" dx=12 dy=0 dh=27 dv=0
EndChar

StartChar: Hbar
Encoding: 294 294 43
Width: 1351
VWidth: 2586
GlyphClass: 2
Flags: W
HStem: 0 43G<160 362 993 1192> 700 182<362 993> 1120 166<47 160 362 993 1192 1309> 1526 41G<160 362 993 1192>
VStem: 160 203<0 700 883 1120 1286 1567> 993 199<0 700 883 1120 1286 1567>
LayerCount: 2
Back
Fore
SplineSet
1192 0 m 1,0,-1
 993 0 l 1,1,-1
 993 700 l 1,2,-1
 362 700 l 1,3,-1
 362 0 l 1,4,-1
 160 0 l 1,5,-1
 160 1120 l 1,6,-1
 47 1120 l 1,7,-1
 47 1286 l 1,8,-1
 160 1286 l 1,9,-1
 160 1567 l 1,10,-1
 362 1567 l 1,11,-1
 362 1286 l 1,12,-1
 993 1286 l 1,13,-1
 993 1567 l 1,14,-1
 1192 1567 l 1,15,-1
 1192 1286 l 1,16,-1
 1309 1286 l 1,17,-1
 1309 1120 l 1,18,-1
 1192 1120 l 1,19,-1
 1192 0 l 1,0,-1
362 1120 m 1,20,-1
 362 883 l 1,21,-1
 993 883 l 1,22,-1
 993 1120 l 1,23,-1
 362 1120 l 1,20,-1
EndSplineSet
Position2: "'cpsp' Capital Spacing lookup 0 subtable" dx=12 dy=0 dh=27 dv=0
EndChar

StartChar: Hcircumflex
Encoding: 292 292 44
Width: 1351
VWidth: 2586
GlyphClass: 2
Flags: W
HStem: 0 43G<160 362 993 1192> 711 184<362 993> 1526 41G<160 362 993 1192>
VStem: 160 203<0 711 895 1567> 993 199<0 711 895 1567>
LayerCount: 2
Back
Fore
SplineSet
778 1708 m 1,0,-1
 680 1888 l 1,1,-1
 573 1708 l 1,2,-1
 391 1708 l 1,3,-1
 588 2017 l 1,4,-1
 766 2017 l 1,5,-1
 963 1708 l 1,6,-1
 778 1708 l 1,0,-1
993 0 m 1,7,-1
 993 711 l 1,8,-1
 362 711 l 1,9,-1
 362 0 l 1,10,-1
 160 0 l 1,11,-1
 160 1567 l 1,12,-1
 362 1567 l 1,13,-1
 362 895 l 1,14,-1
 993 895 l 1,15,-1
 993 1567 l 1,16,-1
 1192 1567 l 1,17,-1
 1192 0 l 1,18,-1
 993 0 l 1,7,-1
EndSplineSet
Position2: "'cpsp' Capital Spacing lookup 0 subtable" dx=12 dy=0 dh=27 dv=0
EndChar

StartChar: I
Encoding: 73 73 45
Width: 522
VWidth: 2586
GlyphClass: 2
Flags: W
HStem: 0 43G<160 362> 1526 41G<160 362>
VStem: 160 203<0 1567>
AnchorPoint: "Anchor-1" 0 0 basechar 0
AnchorPoint: "Anchor-0" 262 1567 basechar 0
LayerCount: 2
Back
Fore
SplineSet
160 1567 m 1,0,-1
 362 1567 l 1,1,-1
 362 0 l 1,2,-1
 160 0 l 1,3,-1
 160 1567 l 1,0,-1
EndSplineSet
Position2: "'cpsp' Capital Spacing lookup 0 subtable" dx=12 dy=0 dh=27 dv=0
EndChar

StartChar: IJ
Encoding: 306 306 46
Width: 1458
VWidth: 2586
GlyphClass: 2
Flags: W
HStem: -29 186<808 1055> 0 43G<160 362> 1526 41G<160 362 1110 1311>
VStem: 160 203<0 1567> 551 203<219 475> 1110 201<219 1567>
LayerCount: 2
Back
Fore
SplineSet
160 0 m 1,0,-1
 160 1567 l 1,1,-1
 362 1567 l 1,2,-1
 362 0 l 1,3,-1
 160 0 l 1,0,-1
1311 373 m 2,4,5
 1311 178 1311 178 1212 74.5 c 128,-1,6
 1113 -29 1113 -29 931.5 -29 c 0,7,8
 750 -29 750 -29 650.5 74.5 c 128,-1,9
 551 178 551 178 551 373 c 2,10,-1
 551 475 l 1,11,-1
 754 475 l 1,12,-1
 754 362 l 2,13,14
 754 261 754 261 799.5 209.5 c 128,-1,15
 845 158 845 158 932 158 c 128,-1,16
 1019 158 1019 158 1064.5 209.5 c 128,-1,17
 1110 261 1110 261 1110 362 c 2,18,-1
 1110 1567 l 1,19,-1
 1311 1567 l 1,20,-1
 1311 373 l 2,4,5
EndSplineSet
Position2: "'cpsp' Capital Spacing lookup 0 subtable" dx=12 dy=0 dh=27 dv=0
EndChar

StartChar: Iacute
Encoding: 205 205 47
Width: 522
VWidth: 2586
GlyphClass: 2
Flags: W
HStem: 0 43G<160 362> 1526 41G<160 362>
VStem: 160 203<0 1567>
LayerCount: 2
Back
Fore
SplineSet
285 1718 m 1,0,-1
 127 1718 l 1,1,-1
 324 2019 l 1,2,-1
 524 2019 l 1,3,-1
 285 1718 l 1,0,-1
160 0 m 1,4,-1
 160 1567 l 1,5,-1
 362 1567 l 1,6,-1
 362 0 l 1,7,-1
 160 0 l 1,4,-1
EndSplineSet
Position2: "'cpsp' Capital Spacing lookup 0 subtable" dx=12 dy=0 dh=27 dv=0
EndChar

StartChar: Ibreve
Encoding: 300 300 48
Width: 522
VWidth: 2586
GlyphClass: 2
Flags: W
HStem: 0 43G<160 362> 1526 41G<160 362> 1798 145<148 380>
VStem: -23 150<1970 2019> 160 203<0 1567> 399 143<1970 2019>
LayerCount: 2
Back
Fore
SplineSet
543 2019 m 1,0,1
 543 1935 543 1935 465 1866.5 c 128,-1,2
 387 1798 387 1798 262.5 1798 c 0,3,4
 138 1798 138 1798 57.5 1866.5 c 128,-1,5
 -23 1935 -23 1935 -23 2019 c 1,6,-1
 127 2019 l 1,7,8
 132 1992 132 1992 170.5 1968 c 128,-1,9
 209 1944 209 1944 263 1944 c 0,10,11
 317 1944 317 1944 355.5 1968 c 128,-1,12
 394 1992 394 1992 399 2019 c 1,13,-1
 543 2019 l 1,0,1
160 1567 m 1,14,-1
 362 1567 l 1,15,-1
 362 0 l 1,16,-1
 160 0 l 1,17,-1
 160 1567 l 1,14,-1
EndSplineSet
Position2: "'cpsp' Capital Spacing lookup 0 subtable" dx=12 dy=0 dh=27 dv=0
EndChar

StartChar: Icircumflex
Encoding: 206 206 49
Width: 522
VWidth: 2586
GlyphClass: 2
Flags: W
HStem: 0 43G<160 362> 1526 41G<160 362>
VStem: 160 203<0 1567>
LayerCount: 2
Back
Fore
SplineSet
264 1888 m 1,0,-1
 160 1708 l 1,1,-1
 -27 1708 l 1,2,-1
 174 2017 l 1,3,-1
 352 2017 l 1,4,-1
 545 1708 l 1,5,-1
 365 1708 l 1,6,-1
 264 1888 l 1,0,-1
160 1567 m 1,7,-1
 362 1567 l 1,8,-1
 362 0 l 1,9,-1
 160 0 l 1,10,-1
 160 1567 l 1,7,-1
EndSplineSet
Position2: "'cpsp' Capital Spacing lookup 0 subtable" dx=12 dy=0 dh=27 dv=0
EndChar

StartChar: Idieresis
Encoding: 207 207 50
Width: 522
VWidth: 2586
GlyphClass: 2
Flags: W
HStem: 0 43G<160 362> 1526 41G<160 362> 1802 217<-10 188 334 532>
VStem: -10 199<1802 2019> 160 203<0 1567> 334 199<1802 2019>
LayerCount: 2
Back
Fore
SplineSet
-10 1802 m 1,0,-1
 -10 2019 l 1,1,-1
 188 2019 l 1,2,-1
 188 1802 l 1,3,-1
 -10 1802 l 1,0,-1
334 1802 m 1,4,-1
 334 2019 l 1,5,-1
 532 2019 l 1,6,-1
 532 1802 l 1,7,-1
 334 1802 l 1,4,-1
160 0 m 1,8,-1
 160 1567 l 1,9,-1
 362 1567 l 1,10,-1
 362 0 l 1,11,-1
 160 0 l 1,8,-1
EndSplineSet
Position2: "'cpsp' Capital Spacing lookup 0 subtable" dx=12 dy=0 dh=27 dv=0
EndChar

StartChar: Idotaccent
Encoding: 304 304 51
Width: 522
VWidth: 2586
GlyphClass: 2
Flags: W
HStem: 0 43G<160 362> 1526 41G<160 362> 1802 217<164 362>
VStem: 160 203<0 1567 1802 2019>
LayerCount: 2
Back
Fore
SplineSet
164 2019 m 1,0,-1
 362 2019 l 1,1,-1
 362 1802 l 1,2,-1
 164 1802 l 1,3,-1
 164 2019 l 1,0,-1
160 1567 m 1,4,-1
 362 1567 l 1,5,-1
 362 0 l 1,6,-1
 160 0 l 1,7,-1
 160 1567 l 1,4,-1
EndSplineSet
Position2: "'cpsp' Capital Spacing lookup 0 subtable" dx=12 dy=0 dh=27 dv=0
EndChar

StartChar: Igrave
Encoding: 204 204 52
Width: 522
VWidth: 2586
GlyphClass: 2
Flags: W
HStem: 0 43G<160 362> 1526 41G<160 362>
VStem: 160 203<0 1567>
LayerCount: 2
Back
Fore
SplineSet
240 1718 m 1,0,-1
 -11 2017 l 1,1,-1
 203 2017 l 1,2,-1
 399 1718 l 1,3,-1
 240 1718 l 1,0,-1
160 0 m 1,4,-1
 160 1567 l 1,5,-1
 362 1567 l 1,6,-1
 362 0 l 1,7,-1
 160 0 l 1,4,-1
EndSplineSet
Position2: "'cpsp' Capital Spacing lookup 0 subtable" dx=12 dy=0 dh=27 dv=0
EndChar

StartChar: Imacron
Encoding: 298 298 53
Width: 522
VWidth: 2586
GlyphClass: 2
Flags: W
HStem: 0 43G<160 362> 1526 41G<160 362> 1735 166<-27 549>
VStem: 160 203<0 1567>
LayerCount: 2
Back
Fore
SplineSet
-27 1901 m 1,0,-1
 549 1901 l 1,1,-1
 549 1735 l 1,2,-1
 -27 1735 l 1,3,-1
 -27 1901 l 1,0,-1
160 1567 m 1,4,-1
 362 1567 l 1,5,-1
 362 0 l 1,6,-1
 160 0 l 1,7,-1
 160 1567 l 1,4,-1
EndSplineSet
Position2: "'cpsp' Capital Spacing lookup 0 subtable" dx=12 dy=0 dh=27 dv=0
EndChar

StartChar: Iogonek
Encoding: 302 302 54
Width: 522
VWidth: 2586
GlyphClass: 2
Flags: W
HStem: -416 150<325 481> -385 119<346 483> 1526 41G<160 362>
VStem: 129 176<-246 -50> 160 203<0 1567>
LayerCount: 2
Back
Fore
SplineSet
305 -141 m 0,0,1
 305 -195 305 -195 331.5 -230.5 c 128,-1,2
 358 -266 358 -266 412 -266 c 2,3,-1
 483 -266 l 1,4,-1
 483 -385 l 1,5,6
 402 -416 402 -416 353.5 -416 c 128,-1,7
 305 -416 305 -416 269 -405.5 c 128,-1,8
 233 -395 233 -395 200.5 -372.5 c 128,-1,9
 168 -350 168 -350 148.5 -308 c 128,-1,10
 129 -266 129 -266 129 -209 c 0,11,12
 129 -91 129 -91 213 0 c 1,13,-1
 160 0 l 1,14,-1
 160 1567 l 1,15,-1
 362 1567 l 1,16,-1
 362 -6 l 1,17,18
 361 -7 361 -7 354 -17 c 128,-1,19
 347 -27 347 -27 345 -30 c 128,-1,20
 343 -33 343 -33 337 -42.5 c 128,-1,21
 331 -52 331 -52 328.5 -57 c 2,22,23
 314.5 -87 l 2,24,25
 312 -94 312 -94 309.5 -103.5 c 128,-1,26
 307 -113 307 -113 306 -122 c 128,-1,27
 305 -131 305 -131 305 -141 c 0,0,1
EndSplineSet
Position2: "'cpsp' Capital Spacing lookup 0 subtable" dx=12 dy=0 dh=27 dv=0
EndChar

StartChar: Itilde
Encoding: 296 296 55
Width: 522
VWidth: 2586
GlyphClass: 2
Flags: W
HStem: 0 43G<160 362> 1526 41G<160 362> 1782 168<246 456> 1851 168<67 278>
VStem: -72 131<1782 1842> 160 203<0 1567> 463 131<1958 2019>
CounterMasks: 1 0e
LayerCount: 2
Back
Fore
SplineSet
121 2019 m 0,0,1
 169 2019 169 2019 254.5 1984.5 c 128,-1,2
 340 1950 340 1950 385 1950 c 0,3,4
 453 1950 453 1950 463 2019 c 1,5,-1
 594 2019 l 1,6,7
 594 1962 594 1962 575.5 1910 c 128,-1,8
 557 1858 557 1858 511 1820 c 128,-1,9
 465 1782 465 1782 409.5 1782 c 0,10,11
 354 1782 354 1782 268.5 1816.5 c 128,-1,12
 183 1851 183 1851 137 1851 c 0,13,14
 70 1851 70 1851 59 1782 c 1,15,-1
 -72 1782 l 1,16,17
 -72 1872 -72 1872 -22.5 1945.5 c 128,-1,18
 27 2019 27 2019 121 2019 c 0,0,1
160 1567 m 1,19,-1
 362 1567 l 1,20,-1
 362 0 l 1,21,-1
 160 0 l 1,22,-1
 160 1567 l 1,19,-1
EndSplineSet
Position2: "'cpsp' Capital Spacing lookup 0 subtable" dx=12 dy=0 dh=27 dv=0
EndChar

StartChar: J
Encoding: 74 74 56
Width: 935
VWidth: 2586
GlyphClass: 2
Flags: W
HStem: -29 186<285 533> 1526 41G<588 788>
VStem: 29 201<219 475> 588 201<219 1567>
AnchorPoint: "Anchor-1" 0 0 basechar 0
AnchorPoint: "Anchor-0" 469 1567 basechar 0
LayerCount: 2
Back
Fore
SplineSet
788 373 m 2,0,1
 788 178 788 178 689.5 74.5 c 128,-1,2
 591 -29 591 -29 409.5 -29 c 0,3,4
 228 -29 228 -29 128.5 74.5 c 128,-1,5
 29 178 29 178 29 373 c 2,6,-1
 29 475 l 1,7,-1
 229 475 l 1,8,-1
 229 362 l 2,9,10
 229 262 229 262 276 210 c 128,-1,11
 323 158 323 158 410 158 c 128,-1,12
 497 158 497 158 542.5 209.5 c 128,-1,13
 588 261 588 261 588 362 c 2,14,-1
 588 1567 l 1,15,-1
 788 1567 l 1,16,-1
 788 373 l 2,0,1
EndSplineSet
Position2: "'cpsp' Capital Spacing lookup 0 subtable" dx=12 dy=0 dh=27 dv=0
EndChar

StartChar: Jcircumflex
Encoding: 308 308 57
Width: 935
VWidth: 2586
GlyphClass: 2
Flags: W
HStem: -29 186<285 533> 1526 41G<588 788>
VStem: 29 201<219 475> 588 201<219 1567>
LayerCount: 2
Back
Fore
SplineSet
795 1708 m 1,0,-1
 692 1888 l 1,1,-1
 588 1708 l 1,2,-1
 403 1708 l 1,3,-1
 600 2017 l 1,4,-1
 778 2017 l 1,5,-1
 975 1708 l 1,6,-1
 795 1708 l 1,0,-1
788 373 m 2,7,8
 788 178 788 178 689.5 74.5 c 128,-1,9
 591 -29 591 -29 409.5 -29 c 0,10,11
 228 -29 228 -29 128.5 74.5 c 128,-1,12
 29 178 29 178 29 373 c 2,13,-1
 29 475 l 1,14,-1
 229 475 l 1,15,-1
 229 362 l 2,16,17
 229 262 229 262 276 210 c 128,-1,18
 323 158 323 158 410 158 c 128,-1,19
 497 158 497 158 542.5 209.5 c 128,-1,20
 588 261 588 261 588 362 c 2,21,-1
 588 1567 l 1,22,-1
 788 1567 l 1,23,-1
 788 373 l 2,7,8
EndSplineSet
Position2: "'cpsp' Capital Spacing lookup 0 subtable" dx=12 dy=0 dh=27 dv=0
EndChar

StartChar: K
Encoding: 75 75 58
Width: 1251
VWidth: 2586
GlyphClass: 2
Flags: W
HStem: 0 43G<160 362 975 1223> 1526 41G<160 362 952 1208>
VStem: 160 203<0 485 739 1567>
AnchorPoint: "Anchor-1" 627 0 basechar 0
AnchorPoint: "Anchor-0" 627 1567 basechar 0
LayerCount: 2
Back
Fore
SplineSet
362 0 m 1,0,-1
 160 0 l 1,1,-1
 160 1567 l 1,2,-1
 362 1567 l 1,3,-1
 362 739 l 1,4,-1
 983 1567 l 1,5,-1
 1208 1567 l 1,6,-1
 737 936 l 1,7,-1
 1223 0 l 1,8,-1
 995 0 l 1,9,-1
 612 766 l 1,10,-1
 362 485 l 1,11,-1
 362 0 l 1,0,-1
EndSplineSet
Position2: "'cpsp' Capital Spacing lookup 0 subtable" dx=12 dy=0 dh=27 dv=0
EndChar

StartChar: Kcommaaccent
Encoding: 310 310 59
Width: 1251
VWidth: 2586
GlyphClass: 2
Flags: W
HStem: 0 43G<160 362 975 1223> 1526 41G<160 362 952 1208>
VStem: 160 203<0 485 739 1567> 528 193<-328 -137>
LayerCount: 2
Back
Fore
SplineSet
362 0 m 1,0,-1
 160 0 l 1,1,-1
 160 1567 l 1,2,-1
 362 1567 l 1,3,-1
 362 739 l 1,4,-1
 983 1567 l 1,5,-1
 1208 1567 l 1,6,-1
 737 936 l 1,7,-1
 1223 0 l 1,8,-1
 995 0 l 1,9,-1
 612 766 l 1,10,-1
 362 485 l 1,11,-1
 362 0 l 1,0,-1
528 -344 m 1,12,-1
 528 -137 l 1,13,-1
 721 -137 l 1,14,-1
 721 -328 l 1,15,-1
 657 -508 l 1,16,-1
 557 -508 l 1,17,-1
 606 -344 l 1,18,-1
 528 -344 l 1,12,-1
EndSplineSet
Position2: "'cpsp' Capital Spacing lookup 0 subtable" dx=12 dy=0 dh=27 dv=0
EndChar

StartChar: L
Encoding: 76 76 60
Width: 1040
VWidth: 2586
GlyphClass: 2
Flags: W
HStem: 0 184<362 1001> 1526 41G<160 362>
VStem: 160 203<184 1567>
AnchorPoint: "Anchor-1" 522 0 basechar 0
AnchorPoint: "Anchor-0" 522 1567 basechar 0
LayerCount: 2
Back
Fore
SplineSet
1001 184 m 1,0,-1
 1001 0 l 1,1,-1
 160 0 l 1,2,-1
 160 1567 l 1,3,-1
 362 1567 l 1,4,-1
 362 184 l 1,5,-1
 1001 184 l 1,0,-1
EndSplineSet
Position2: "'cpsp' Capital Spacing lookup 0 subtable" dx=12 dy=0 dh=27 dv=0
EndChar

StartChar: Lacute
Encoding: 313 313 61
Width: 1040
VWidth: 2586
GlyphClass: 2
Flags: W
HStem: 0 184<362 1001> 1526 41G<160 362>
VStem: 160 203<184 1567>
LayerCount: 2
Back
Fore
SplineSet
276 1718 m 1,0,-1
 117 1718 l 1,1,-1
 313 2019 l 1,2,-1
 520 2019 l 1,3,-1
 276 1718 l 1,0,-1
1001 184 m 1,4,-1
 1001 0 l 1,5,-1
 160 0 l 1,6,-1
 160 1567 l 1,7,-1
 362 1567 l 1,8,-1
 362 184 l 1,9,-1
 1001 184 l 1,4,-1
EndSplineSet
Position2: "'cpsp' Capital Spacing lookup 0 subtable" dx=12 dy=0 dh=27 dv=0
EndChar

StartChar: Lcaron
Encoding: 317 317 62
Width: 1040
VWidth: 2586
GlyphClass: 2
Flags: W
HStem: 0 184<362 1001> 1526 41G<160 362 729 956>
VStem: 160 203<184 1567> 729 227<1341 1567>
LayerCount: 2
Back
Fore
SplineSet
1001 184 m 1,0,-1
 1001 0 l 1,1,-1
 160 0 l 1,2,-1
 160 1567 l 1,3,-1
 362 1567 l 1,4,-1
 362 184 l 1,5,-1
 1001 184 l 1,0,-1
729 1321 m 1,6,-1
 729 1567 l 1,7,-1
 956 1567 l 1,8,-1
 956 1341 l 1,9,-1
 848 1036 l 1,10,-1
 729 1036 l 1,11,-1
 819 1321 l 1,12,-1
 729 1321 l 1,6,-1
EndSplineSet
Position2: "'cpsp' Capital Spacing lookup 0 subtable" dx=12 dy=0 dh=27 dv=0
EndChar

StartChar: Lcommaaccent
Encoding: 315 315 63
Width: 1040
VWidth: 2586
GlyphClass: 2
Flags: W
HStem: 0 184<362 1001> 1526 41G<160 362>
VStem: 160 203<184 1567> 424 197<-328 -137>
LayerCount: 2
Back
Fore
SplineSet
1001 184 m 1,0,-1
 1001 0 l 1,1,-1
 160 0 l 1,2,-1
 160 1567 l 1,3,-1
 362 1567 l 1,4,-1
 362 184 l 1,5,-1
 1001 184 l 1,0,-1
424 -344 m 1,6,-1
 424 -137 l 1,7,-1
 621 -137 l 1,8,-1
 621 -328 l 1,9,-1
 553 -508 l 1,10,-1
 451 -508 l 1,11,-1
 502 -344 l 1,12,-1
 424 -344 l 1,6,-1
EndSplineSet
Position2: "'cpsp' Capital Spacing lookup 0 subtable" dx=12 dy=0 dh=27 dv=0
EndChar

StartChar: Ldot
Encoding: 319 319 64
Width: 1040
VWidth: 2586
GlyphClass: 2
Flags: W
HStem: 0 184<362 1001> 946 254<676 905> 1526 41G<160 362>
VStem: 160 203<184 1567> 676 229<946 1200>
LayerCount: 2
Back
Fore
SplineSet
1001 184 m 1,0,-1
 1001 0 l 1,1,-1
 160 0 l 1,2,-1
 160 1567 l 1,3,-1
 362 1567 l 1,4,-1
 362 184 l 1,5,-1
 1001 184 l 1,0,-1
676 946 m 1,6,-1
 676 1200 l 1,7,-1
 905 1200 l 1,8,-1
 905 946 l 1,9,-1
 676 946 l 1,6,-1
EndSplineSet
Ligature2: "Ligature Substitution lookup 39 subtable" L periodcentered
Position2: "'cpsp' Capital Spacing lookup 0 subtable" dx=12 dy=0 dh=27 dv=0
EndChar

StartChar: Lslash
Encoding: 321 321 65
Width: 1040
VWidth: 2586
GlyphClass: 2
Flags: W
HStem: 0 184<362 1001> 1526 41G<160 362>
VStem: 160 203<184 561 725 739 903 1567>
LayerCount: 2
Back
Fore
SplineSet
362 184 m 1,0,-1
 1001 184 l 1,1,-1
 1001 0 l 1,2,-1
 160 0 l 1,3,-1
 160 561 l 1,4,-1
 0 422 l 1,5,-1
 0 582 l 1,6,-1
 160 725 l 1,7,-1
 160 1567 l 1,8,-1
 362 1567 l 1,9,-1
 362 903 l 1,10,-1
 676 1182 l 1,11,-1
 676 1014 l 1,12,-1
 362 739 l 1,13,-1
 362 184 l 1,0,-1
EndSplineSet
Position2: "'cpsp' Capital Spacing lookup 0 subtable" dx=12 dy=0 dh=27 dv=0
EndChar

StartChar: M
Encoding: 77 77 66
Width: 1560
VWidth: 2586
GlyphClass: 2
Flags: W
HStem: 0 43G<141 324 669 869 1219 1419> 1526 41G<141 458 1103 1419>
VStem: 141 182<0 1375> 1219 201<0 1299>
LayerCount: 2
Back
Fore
SplineSet
324 1139 m 2,0,-1
 324 0 l 1,1,-1
 141 0 l 1,2,-1
 141 1567 l 1,3,-1
 446 1567 l 1,4,-1
 725 541 l 2,5,6
 739 489 739 489 752 400 c 128,-1,7
 765 311 765 311 771.5 248.5 c 2,8,-1
 778 186 l 1,9,10
 807 430 807 430 838 541 c 1,11,-1
 1114 1567 l 1,12,-1
 1419 1567 l 1,13,-1
 1419 0 l 1,14,-1
 1219 0 l 1,15,-1
 1219 1299 l 1,16,-1
 858 0 l 1,17,-1
 680 0 l 1,18,-1
 299 1375 l 1,19,20
 324 1186 324 1186 324 1139 c 2,0,-1
EndSplineSet
Position2: "'cpsp' Capital Spacing lookup 0 subtable" dx=12 dy=0 dh=27 dv=0
EndChar

StartChar: N
Encoding: 78 78 67
Width: 1351
VWidth: 2586
GlyphClass: 2
Flags: W
HStem: 0 43G<160 342 1003 1192> 1526 41G<160 358 1014 1192>
VStem: 160 182<0 1200> 1014 178<373 1567>
AnchorPoint: "Anchor-1" 678 0 basechar 0
AnchorPoint: "Anchor-0" 678 1567 basechar 0
LayerCount: 2
Back
Fore
SplineSet
342 0 m 1,0,-1
 160 0 l 1,1,-1
 160 1567 l 1,2,-1
 334 1567 l 1,3,-1
 915 582 l 2,4,5
 931 556 931 556 956 503.5 c 128,-1,6
 981 451 981 451 997.5 412 c 2,7,-1
 1014 373 l 1,8,-1
 1014 1567 l 1,9,-1
 1192 1567 l 1,10,-1
 1192 0 l 1,11,-1
 1026 0 l 1,12,-1
 342 1200 l 1,13,-1
 342 0 l 1,0,-1
EndSplineSet
Position2: "'cpsp' Capital Spacing lookup 0 subtable" dx=12 dy=0 dh=27 dv=0
EndChar

StartChar: Nacute
Encoding: 323 323 68
Width: 1351
VWidth: 2586
GlyphClass: 2
Flags: W
HStem: 0 43G<160 342 1003 1192> 1526 41G<160 358 1014 1192>
VStem: 160 182<0 1200> 1014 178<373 1567>
LayerCount: 2
Back
Fore
SplineSet
700 1718 m 1,0,-1
 541 1718 l 1,1,-1
 737 2019 l 1,2,-1
 942 2019 l 1,3,-1
 700 1718 l 1,0,-1
342 0 m 1,4,-1
 160 0 l 1,5,-1
 160 1567 l 1,6,-1
 334 1567 l 1,7,-1
 915 582 l 2,8,9
 931 556 931 556 956 503.5 c 128,-1,10
 981 451 981 451 997.5 412 c 2,11,-1
 1014 373 l 1,12,-1
 1014 1567 l 1,13,-1
 1192 1567 l 1,14,-1
 1192 0 l 1,15,-1
 1026 0 l 1,16,-1
 342 1200 l 1,17,-1
 342 0 l 1,4,-1
EndSplineSet
Position2: "'cpsp' Capital Spacing lookup 0 subtable" dx=12 dy=0 dh=27 dv=0
EndChar

StartChar: Ncaron
Encoding: 327 327 69
Width: 1351
VWidth: 2586
GlyphClass: 2
Flags: W
HStem: 0 43G<160 342 1003 1192> 1526 41G<160 358 1014 1192>
VStem: 160 182<0 1200> 1014 178<373 1567>
LayerCount: 2
Back
Fore
SplineSet
584 1710 m 1,0,-1
 391 2019 l 1,1,-1
 573 2019 l 1,2,-1
 678 1839 l 1,3,-1
 778 2019 l 1,4,-1
 963 2019 l 1,5,-1
 764 1710 l 1,6,-1
 584 1710 l 1,0,-1
342 0 m 1,7,-1
 160 0 l 1,8,-1
 160 1567 l 1,9,-1
 334 1567 l 1,10,-1
 915 582 l 2,11,12
 931 556 931 556 956 503.5 c 128,-1,13
 981 451 981 451 997.5 412 c 2,14,-1
 1014 373 l 1,15,-1
 1014 1567 l 1,16,-1
 1192 1567 l 1,17,-1
 1192 0 l 1,18,-1
 1026 0 l 1,19,-1
 342 1200 l 1,20,-1
 342 0 l 1,7,-1
EndSplineSet
Position2: "'cpsp' Capital Spacing lookup 0 subtable" dx=12 dy=0 dh=27 dv=0
EndChar

StartChar: Ncommaaccent
Encoding: 325 325 70
Width: 1351
VWidth: 2586
GlyphClass: 2
Flags: W
HStem: -344 207<580 659> 0 43G<160 342 1003 1192> 1526 41G<160 358 1014 1192>
VStem: 160 182<0 1200> 580 197<-328 -137> 1014 178<373 1567>
LayerCount: 2
Back
Fore
SplineSet
342 0 m 1,0,-1
 160 0 l 1,1,-1
 160 1567 l 1,2,-1
 334 1567 l 1,3,-1
 915 582 l 2,4,5
 931 556 931 556 956 503.5 c 128,-1,6
 981 451 981 451 997.5 412 c 2,7,-1
 1014 373 l 1,8,-1
 1014 1567 l 1,9,-1
 1192 1567 l 1,10,-1
 1192 0 l 1,11,-1
 1026 0 l 1,12,-1
 342 1200 l 1,13,-1
 342 0 l 1,0,-1
580 -344 m 1,14,-1
 580 -137 l 1,15,-1
 776 -137 l 1,16,-1
 776 -328 l 1,17,-1
 709 -508 l 1,18,-1
 606 -508 l 1,19,-1
 659 -344 l 1,20,-1
 580 -344 l 1,14,-1
EndSplineSet
Position2: "'cpsp' Capital Spacing lookup 0 subtable" dx=12 dy=0 dh=27 dv=0
EndChar

StartChar: Eng
Encoding: 330 330 71
Width: 1351
VWidth: 2586
GlyphClass: 2
Flags: W
HStem: -416 158<801 989> -387 129<799 954> 0 43G<160 342> 1526 41G<160 358 1014 1192>
VStem: 160 182<0 1200> 1014 178<-234 33 373 1567>
LayerCount: 2
Back
Fore
SplineSet
1192 -139 m 2,0,1
 1192 -194 1192 -194 1180 -241 c 128,-1,2
 1168 -288 1168 -288 1142 -328.5 c 128,-1,3
 1116 -369 1116 -369 1068.5 -392.5 c 128,-1,4
 1021 -416 1021 -416 945.5 -416 c 0,5,6
 870 -416 870 -416 799 -387 c 1,7,-1
 799 -258 l 1,8,-1
 897 -258 l 2,9,10
 1006 -258 1006 -258 1006 -147 c 2,11,-1
 1006 33 l 1,12,-1
 342 1200 l 1,13,-1
 342 0 l 1,14,-1
 160 0 l 1,15,-1
 160 1567 l 1,16,-1
 334 1567 l 1,17,-1
 915 582 l 2,18,19
 931 556 931 556 956 503.5 c 128,-1,20
 981 451 981 451 997.5 412 c 2,21,-1
 1014 373 l 1,22,-1
 1014 1567 l 1,23,-1
 1192 1567 l 1,24,-1
 1192 -139 l 2,0,1
EndSplineSet
Position2: "'cpsp' Capital Spacing lookup 0 subtable" dx=12 dy=0 dh=27 dv=0
EndChar

StartChar: Ntilde
Encoding: 209 209 72
Width: 1351
VWidth: 2586
GlyphClass: 2
Flags: W
HStem: 0 43G<160 342 1003 1192> 1526 41G<160 358 1014 1192> 1782 168<660 871> 1851 168<485 696>
VStem: 160 182<0 1200> 344 131<1782 1842> 877 135<1958 2019> 1014 178<373 1567>
LayerCount: 2
Back
Fore
SplineSet
673 1985.5 m 128,-1,1
 756 1950 756 1950 794.5 1950 c 128,-1,2
 833 1950 833 1950 853 1965 c 128,-1,3
 873 1980 873 1980 877 2019 c 1,4,-1
 1012 2019 l 1,5,6
 1012 1977 1012 1977 1000.5 1936.5 c 128,-1,7
 989 1896 989 1896 966.5 1861 c 128,-1,8
 944 1826 944 1826 905 1804 c 128,-1,9
 866 1782 866 1782 817 1782 c 128,-1,10
 768 1782 768 1782 683.5 1816.5 c 128,-1,11
 599 1851 599 1851 553 1851 c 0,12,13
 486 1851 486 1851 475 1782 c 1,14,-1
 344 1782 l 1,15,16
 344 1838 344 1838 363 1890 c 128,-1,17
 382 1942 382 1942 428.5 1980.5 c 128,-1,18
 475 2019 475 2019 532.5 2020 c 128,-1,0
 590 2021 590 2021 673 1985.5 c 128,-1,1
342 0 m 1,19,-1
 160 0 l 1,20,-1
 160 1567 l 1,21,-1
 334 1567 l 1,22,-1
 915 582 l 2,23,24
 931 556 931 556 956 503.5 c 128,-1,25
 981 451 981 451 997.5 412 c 2,26,-1
 1014 373 l 1,27,-1
 1014 1567 l 1,28,-1
 1192 1567 l 1,29,-1
 1192 0 l 1,30,-1
 1026 0 l 1,31,-1
 342 1200 l 1,32,-1
 342 0 l 1,19,-1
EndSplineSet
Position2: "'cpsp' Capital Spacing lookup 0 subtable" dx=12 dy=0 dh=27 dv=0
EndChar

StartChar: O
Encoding: 79 79 73
Width: 1458
VWidth: 2586
GlyphClass: 2
Flags: W
HStem: -29 186<543 915> 1409 186<543 915>
VStem: 111 213<428 1141> 1135 213<428 1141>
AnchorPoint: "Anchor-1" 0 0 basechar 0
AnchorPoint: "Anchor-0" 729 1567 basechar 0
LayerCount: 2
Back
Fore
SplineSet
273 1390.5 m 128,-1,1
 435 1595 435 1595 729.5 1595 c 128,-1,2
 1024 1595 1024 1595 1186 1390 c 128,-1,3
 1348 1185 1348 1185 1348 784.5 c 128,-1,4
 1348 384 1348 384 1185.5 177.5 c 128,-1,5
 1023 -29 1023 -29 729 -29 c 128,-1,6
 435 -29 435 -29 273 177 c 128,-1,7
 111 383 111 383 111 784.5 c 128,-1,0
 111 1186 111 1186 273 1390.5 c 128,-1,1
729 1409 m 128,-1,9
 536 1409 536 1409 430 1265.5 c 128,-1,10
 324 1122 324 1122 324 840 c 2,11,-1
 324 727 l 2,12,13
 324 445 324 445 430 301.5 c 128,-1,14
 536 158 536 158 729 158 c 128,-1,15
 922 158 922 158 1028.5 301.5 c 128,-1,16
 1135 445 1135 445 1135 727 c 2,17,-1
 1135 840 l 2,18,19
 1135 1122 1135 1122 1028.5 1265.5 c 128,-1,8
 922 1409 922 1409 729 1409 c 128,-1,9
EndSplineSet
Substitution2: "Single Substitution lookup 40 subtable" ordmasculine
Substitution2: "'aalt' Access All Alternates lookup 0 subtable" ordmasculine
Position2: "'cpsp' Capital Spacing lookup 0 subtable" dx=12 dy=0 dh=27 dv=0
EndChar

StartChar: Oacute
Encoding: 211 211 74
Width: 1458
VWidth: 2586
GlyphClass: 2
Flags: W
HStem: -29 186<543 915> 1409 186<543 915>
VStem: 111 213<428 1141> 1135 213<428 1141>
LayerCount: 2
Back
Fore
SplineSet
754 1718 m 1,0,-1
 594 1718 l 1,1,-1
 791 2019 l 1,2,-1
 995 2019 l 1,3,-1
 754 1718 l 1,0,-1
273 1390.5 m 128,-1,5
 435 1595 435 1595 729.5 1595 c 128,-1,6
 1024 1595 1024 1595 1186 1390 c 128,-1,7
 1348 1185 1348 1185 1348 784.5 c 128,-1,8
 1348 384 1348 384 1185.5 177.5 c 128,-1,9
 1023 -29 1023 -29 729 -29 c 128,-1,10
 435 -29 435 -29 273 177 c 128,-1,11
 111 383 111 383 111 784.5 c 128,-1,4
 111 1186 111 1186 273 1390.5 c 128,-1,5
729 1409 m 128,-1,13
 536 1409 536 1409 430 1265.5 c 128,-1,14
 324 1122 324 1122 324 840 c 2,15,-1
 324 727 l 2,16,17
 324 445 324 445 430 301.5 c 128,-1,18
 536 158 536 158 729 158 c 128,-1,19
 922 158 922 158 1028.5 301.5 c 128,-1,20
 1135 445 1135 445 1135 727 c 2,21,-1
 1135 840 l 2,22,23
 1135 1122 1135 1122 1028.5 1265.5 c 128,-1,12
 922 1409 922 1409 729 1409 c 128,-1,13
EndSplineSet
Position2: "'cpsp' Capital Spacing lookup 0 subtable" dx=12 dy=0 dh=27 dv=0
EndChar

StartChar: Obreve
Encoding: 334 334 75
Width: 1458
VWidth: 2586
GlyphClass: 2
Flags: W
HStem: -29 186<543 915> 1409 186<543 915> 1798 145<612 848>
VStem: 111 213<428 1141> 446 147<1970 2019> 866 147<1970 2019> 1135 213<428 1141>
LayerCount: 2
Back
Fore
SplineSet
1014 2019 m 1,0,1
 1014 1935 1014 1935 934 1866.5 c 128,-1,2
 854 1798 854 1798 729.5 1798 c 128,-1,3
 605 1798 605 1798 525.5 1866.5 c 128,-1,4
 446 1935 446 1935 446 2019 c 1,5,-1
 594 2019 l 1,6,7
 599 1992 599 1992 637.5 1968 c 128,-1,8
 676 1944 676 1944 730 1944 c 128,-1,9
 784 1944 784 1944 822.5 1968 c 128,-1,10
 861 1992 861 1992 866 2019 c 1,11,-1
 1014 2019 l 1,0,1
273 1390.5 m 128,-1,13
 435 1595 435 1595 729.5 1595 c 128,-1,14
 1024 1595 1024 1595 1186 1390 c 128,-1,15
 1348 1185 1348 1185 1348 784.5 c 128,-1,16
 1348 384 1348 384 1185.5 177.5 c 128,-1,17
 1023 -29 1023 -29 729 -29 c 128,-1,18
 435 -29 435 -29 273 177 c 128,-1,19
 111 383 111 383 111 784.5 c 128,-1,12
 111 1186 111 1186 273 1390.5 c 128,-1,13
729 1409 m 128,-1,21
 536 1409 536 1409 430 1265.5 c 128,-1,22
 324 1122 324 1122 324 840 c 2,23,-1
 324 727 l 2,24,25
 324 445 324 445 430 301.5 c 128,-1,26
 536 158 536 158 729 158 c 128,-1,27
 922 158 922 158 1028.5 301.5 c 128,-1,28
 1135 445 1135 445 1135 727 c 2,29,-1
 1135 840 l 2,30,31
 1135 1122 1135 1122 1028.5 1265.5 c 128,-1,20
 922 1409 922 1409 729 1409 c 128,-1,21
EndSplineSet
Position2: "'cpsp' Capital Spacing lookup 0 subtable" dx=12 dy=0 dh=27 dv=0
EndChar

StartChar: Ocircumflex
Encoding: 212 212 76
Width: 1458
VWidth: 2586
GlyphClass: 2
Flags: W
HStem: -29 186<543 915> 1409 186<543 915>
VStem: 111 213<428 1141> 1135 213<428 1141>
LayerCount: 2
Back
Fore
SplineSet
731 1888 m 1,0,-1
 629 1708 l 1,1,-1
 444 1708 l 1,2,-1
 641 2017 l 1,3,-1
 819 2017 l 1,4,-1
 1014 1708 l 1,5,-1
 834 1708 l 1,6,-1
 731 1888 l 1,0,-1
273 1390.5 m 128,-1,8
 435 1595 435 1595 729.5 1595 c 128,-1,9
 1024 1595 1024 1595 1186 1390 c 128,-1,10
 1348 1185 1348 1185 1348 784.5 c 128,-1,11
 1348 384 1348 384 1185.5 177.5 c 128,-1,12
 1023 -29 1023 -29 729 -29 c 128,-1,13
 435 -29 435 -29 273 177 c 128,-1,14
 111 383 111 383 111 784.5 c 128,-1,7
 111 1186 111 1186 273 1390.5 c 128,-1,8
729 1409 m 128,-1,16
 536 1409 536 1409 430 1265.5 c 128,-1,17
 324 1122 324 1122 324 840 c 2,18,-1
 324 727 l 2,19,20
 324 445 324 445 430 301.5 c 128,-1,21
 536 158 536 158 729 158 c 128,-1,22
 922 158 922 158 1028.5 301.5 c 128,-1,23
 1135 445 1135 445 1135 727 c 2,24,-1
 1135 840 l 2,25,26
 1135 1122 1135 1122 1028.5 1265.5 c 128,-1,15
 922 1409 922 1409 729 1409 c 128,-1,16
EndSplineSet
Position2: "'cpsp' Capital Spacing lookup 0 subtable" dx=12 dy=0 dh=27 dv=0
EndChar

StartChar: Odieresis
Encoding: 214 214 77
Width: 1458
VWidth: 2586
GlyphClass: 2
Flags: W
HStem: -29 186<543 915> 1409 186<543 915> 1802 217<461 659 803 1001>
VStem: 111 213<428 1141> 461 199<1802 2019> 803 199<1802 2019> 1135 213<428 1141>
LayerCount: 2
Back
Fore
SplineSet
461 1802 m 1,0,-1
 461 2019 l 1,1,-1
 659 2019 l 1,2,-1
 659 1802 l 1,3,-1
 461 1802 l 1,0,-1
803 1802 m 1,4,-1
 803 2019 l 1,5,-1
 1001 2019 l 1,6,-1
 1001 1802 l 1,7,-1
 803 1802 l 1,4,-1
273 1390.5 m 128,-1,9
 435 1595 435 1595 729.5 1595 c 128,-1,10
 1024 1595 1024 1595 1186 1390 c 128,-1,11
 1348 1185 1348 1185 1348 784.5 c 128,-1,12
 1348 384 1348 384 1185.5 177.5 c 128,-1,13
 1023 -29 1023 -29 729 -29 c 128,-1,14
 435 -29 435 -29 273 177 c 128,-1,15
 111 383 111 383 111 784.5 c 128,-1,8
 111 1186 111 1186 273 1390.5 c 128,-1,9
729 1409 m 128,-1,17
 536 1409 536 1409 430 1265.5 c 128,-1,18
 324 1122 324 1122 324 840 c 2,19,-1
 324 727 l 2,20,21
 324 445 324 445 430 301.5 c 128,-1,22
 536 158 536 158 729 158 c 128,-1,23
 922 158 922 158 1028.5 301.5 c 128,-1,24
 1135 445 1135 445 1135 727 c 2,25,-1
 1135 840 l 2,26,27
 1135 1122 1135 1122 1028.5 1265.5 c 128,-1,16
 922 1409 922 1409 729 1409 c 128,-1,17
EndSplineSet
Position2: "'cpsp' Capital Spacing lookup 0 subtable" dx=12 dy=0 dh=27 dv=0
EndChar

StartChar: Ograve
Encoding: 210 210 78
Width: 1458
VWidth: 2586
GlyphClass: 2
Flags: W
HStem: -29 186<543 915> 1409 186<543 915>
VStem: 111 213<428 1141> 1135 213<428 1141>
LayerCount: 2
Back
Fore
SplineSet
709 1718 m 1,0,-1
 460 2017 l 1,1,-1
 670 2017 l 1,2,-1
 866 1718 l 1,3,-1
 709 1718 l 1,0,-1
273 1390.5 m 128,-1,5
 435 1595 435 1595 729.5 1595 c 128,-1,6
 1024 1595 1024 1595 1186 1390 c 128,-1,7
 1348 1185 1348 1185 1348 784.5 c 128,-1,8
 1348 384 1348 384 1185.5 177.5 c 128,-1,9
 1023 -29 1023 -29 729 -29 c 128,-1,10
 435 -29 435 -29 273 177 c 128,-1,11
 111 383 111 383 111 784.5 c 128,-1,4
 111 1186 111 1186 273 1390.5 c 128,-1,5
729 1409 m 128,-1,13
 536 1409 536 1409 430 1265.5 c 128,-1,14
 324 1122 324 1122 324 840 c 2,15,-1
 324 727 l 2,16,17
 324 445 324 445 430 301.5 c 128,-1,18
 536 158 536 158 729 158 c 128,-1,19
 922 158 922 158 1028.5 301.5 c 128,-1,20
 1135 445 1135 445 1135 727 c 2,21,-1
 1135 840 l 2,22,23
 1135 1122 1135 1122 1028.5 1265.5 c 128,-1,12
 922 1409 922 1409 729 1409 c 128,-1,13
EndSplineSet
Position2: "'cpsp' Capital Spacing lookup 0 subtable" dx=12 dy=0 dh=27 dv=0
EndChar

StartChar: Ohungarumlaut
Encoding: 336 336 79
Width: 1458
VWidth: 2586
GlyphClass: 2
Flags: W
HStem: -29 186<543 915> 1409 186<543 915>
VStem: 111 213<428 1141> 1135 213<428 1141>
LayerCount: 2
Back
Fore
SplineSet
668 1718 m 1,0,-1
 512 1718 l 1,1,-1
 655 2019 l 1,2,-1
 856 2019 l 1,3,-1
 668 1718 l 1,0,-1
967 1718 m 1,4,-1
 809 1718 l 1,5,-1
 952 2019 l 1,6,-1
 1157 2019 l 1,7,-1
 967 1718 l 1,4,-1
273 1390.5 m 128,-1,9
 435 1595 435 1595 729.5 1595 c 128,-1,10
 1024 1595 1024 1595 1186 1390 c 128,-1,11
 1348 1185 1348 1185 1348 784.5 c 128,-1,12
 1348 384 1348 384 1185.5 177.5 c 128,-1,13
 1023 -29 1023 -29 729 -29 c 128,-1,14
 435 -29 435 -29 273 177 c 128,-1,15
 111 383 111 383 111 784.5 c 128,-1,8
 111 1186 111 1186 273 1390.5 c 128,-1,9
729 1409 m 128,-1,17
 536 1409 536 1409 430 1265.5 c 128,-1,18
 324 1122 324 1122 324 840 c 2,19,-1
 324 727 l 2,20,21
 324 445 324 445 430 301.5 c 128,-1,22
 536 158 536 158 729 158 c 128,-1,23
 922 158 922 158 1028.5 301.5 c 128,-1,24
 1135 445 1135 445 1135 727 c 2,25,-1
 1135 840 l 2,26,27
 1135 1122 1135 1122 1028.5 1265.5 c 128,-1,16
 922 1409 922 1409 729 1409 c 128,-1,17
EndSplineSet
Position2: "'cpsp' Capital Spacing lookup 0 subtable" dx=12 dy=0 dh=27 dv=0
EndChar

StartChar: Omacron
Encoding: 332 332 80
Width: 1458
VWidth: 2586
GlyphClass: 2
Flags: W
HStem: -29 186<543 915> 1409 186<543 915> 1735 166<442 1016>
VStem: 111 213<428 1141> 1135 213<428 1141>
LayerCount: 2
Back
Fore
SplineSet
442 1901 m 1,0,-1
 1016 1901 l 1,1,-1
 1016 1735 l 1,2,-1
 442 1735 l 1,3,-1
 442 1901 l 1,0,-1
273 1390.5 m 128,-1,5
 435 1595 435 1595 729.5 1595 c 128,-1,6
 1024 1595 1024 1595 1186 1390 c 128,-1,7
 1348 1185 1348 1185 1348 784.5 c 128,-1,8
 1348 384 1348 384 1185.5 177.5 c 128,-1,9
 1023 -29 1023 -29 729 -29 c 128,-1,10
 435 -29 435 -29 273 177 c 128,-1,11
 111 383 111 383 111 784.5 c 128,-1,4
 111 1186 111 1186 273 1390.5 c 128,-1,5
729 1409 m 128,-1,13
 536 1409 536 1409 430 1265.5 c 128,-1,14
 324 1122 324 1122 324 840 c 2,15,-1
 324 727 l 2,16,17
 324 445 324 445 430 301.5 c 128,-1,18
 536 158 536 158 729 158 c 128,-1,19
 922 158 922 158 1028.5 301.5 c 128,-1,20
 1135 445 1135 445 1135 727 c 2,21,-1
 1135 840 l 2,22,23
 1135 1122 1135 1122 1028.5 1265.5 c 128,-1,12
 922 1409 922 1409 729 1409 c 128,-1,13
EndSplineSet
Position2: "'cpsp' Capital Spacing lookup 0 subtable" dx=12 dy=0 dh=27 dv=0
EndChar

StartChar: Oslash
Encoding: 216 216 81
Width: 1458
VWidth: 2586
GlyphClass: 2
Flags: W
HStem: -29 186<540 915> 1409 186<543 913> 1612 41G<1174 1348>
VStem: 111 213<421 1141> 1135 213<428 1139>
AnchorPoint: "Anchor-1" 0 0 basechar 0
AnchorPoint: "Anchor-0" 729 1567 basechar 0
LayerCount: 2
Back
Fore
SplineSet
1182 1391 m 1,0,1
 1348 1180 1348 1180 1348 782 c 128,-1,2
 1348 384 1348 384 1185.5 177.5 c 128,-1,3
 1023 -29 1023 -29 729 -29 c 0,4,5
 513 -29 513 -29 365 86 c 1,6,-1
 262 -86 l 1,7,-1
 115 -86 l 1,8,-1
 276 174 l 1,9,10
 111 378 111 378 111 782 c 128,-1,11
 111 1186 111 1186 273 1390.5 c 128,-1,12
 435 1595 435 1595 729 1595 c 0,13,14
 950 1595 950 1595 1094 1483 c 1,15,-1
 1200 1653 l 1,16,-1
 1348 1653 l 1,17,-1
 1182 1391 l 1,0,1
729 1409 m 0,18,19
 536 1409 536 1409 430 1265.5 c 128,-1,20
 324 1122 324 1122 324 840 c 2,21,-1
 324 727 l 2,22,23
 324 494 324 494 393 362 c 1,24,-1
 987 1311 l 1,25,26
 886 1409 886 1409 729 1409 c 0,18,19
729 158 m 0,27,28
 922 158 922 158 1028.5 301.5 c 128,-1,29
 1135 445 1135 445 1135 727 c 2,30,-1
 1135 840 l 2,31,32
 1135 1072 1135 1072 1065 1206 c 1,33,-1
 471 254 l 1,34,35
 570 158 570 158 729 158 c 0,27,28
EndSplineSet
Position2: "'cpsp' Capital Spacing lookup 0 subtable" dx=12 dy=0 dh=27 dv=0
EndChar

StartChar: Oslashacute
Encoding: 510 510 82
Width: 1458
VWidth: 2586
GlyphClass: 2
Flags: W
HStem: -29 186<540 915> 1409 186<543 913> 1612 41G<1174 1348>
VStem: 111 213<421 1141> 1135 213<428 1139>
LayerCount: 2
Back
Fore
SplineSet
754 1718 m 1,0,-1
 594 1718 l 1,1,-1
 791 2019 l 1,2,-1
 995 2019 l 1,3,-1
 754 1718 l 1,0,-1
1182 1391 m 1,4,5
 1348 1180 1348 1180 1348 782 c 128,-1,6
 1348 384 1348 384 1185.5 177.5 c 128,-1,7
 1023 -29 1023 -29 729 -29 c 0,8,9
 513 -29 513 -29 365 86 c 1,10,-1
 262 -86 l 1,11,-1
 115 -86 l 1,12,-1
 276 174 l 1,13,14
 111 378 111 378 111 782 c 128,-1,15
 111 1186 111 1186 273 1390.5 c 128,-1,16
 435 1595 435 1595 729 1595 c 0,17,18
 950 1595 950 1595 1094 1483 c 1,19,-1
 1200 1653 l 1,20,-1
 1348 1653 l 1,21,-1
 1182 1391 l 1,4,5
729 1409 m 0,22,23
 536 1409 536 1409 430 1265.5 c 128,-1,24
 324 1122 324 1122 324 840 c 2,25,-1
 324 727 l 2,26,27
 324 494 324 494 393 362 c 1,28,-1
 987 1311 l 1,29,30
 886 1409 886 1409 729 1409 c 0,22,23
729 158 m 0,31,32
 922 158 922 158 1028.5 301.5 c 128,-1,33
 1135 445 1135 445 1135 727 c 2,34,-1
 1135 840 l 2,35,36
 1135 1072 1135 1072 1065 1206 c 1,37,-1
 471 254 l 1,38,39
 570 158 570 158 729 158 c 0,31,32
EndSplineSet
Position2: "'cpsp' Capital Spacing lookup 0 subtable" dx=12 dy=0 dh=27 dv=0
EndChar

StartChar: Otilde
Encoding: 213 213 83
Width: 1458
VWidth: 2586
GlyphClass: 2
Flags: W
HStem: -29 186<543 915> 1409 186<543 915> 1782 168<714 924> 1851 168<536 748>
VStem: 111 213<428 1141> 395 133<1782 1842> 932 131<1958 2019> 1135 213<428 1141>
LayerCount: 2
Back
Fore
SplineSet
479.5 1980.5 m 128,-1,1
 526 2019 526 2019 582 2019 c 128,-1,2
 638 2019 638 2019 723.5 1984.5 c 128,-1,3
 809 1950 809 1950 848 1950 c 128,-1,4
 887 1950 887 1950 906.5 1965 c 128,-1,5
 926 1980 926 1980 932 2019 c 1,6,-1
 1063 2019 l 1,7,8
 1063 1977 1063 1977 1051.5 1936.5 c 128,-1,9
 1040 1896 1040 1896 1017.5 1861 c 128,-1,10
 995 1826 995 1826 956 1804 c 128,-1,11
 917 1782 917 1782 869 1782 c 128,-1,12
 821 1782 821 1782 736.5 1816.5 c 128,-1,13
 652 1851 652 1851 606 1851 c 0,14,15
 539 1851 539 1851 528 1782 c 1,16,-1
 395 1782 l 1,17,18
 395 1838 395 1838 414 1890 c 128,-1,0
 433 1942 433 1942 479.5 1980.5 c 128,-1,1
273 1390.5 m 128,-1,20
 435 1595 435 1595 729.5 1595 c 128,-1,21
 1024 1595 1024 1595 1186 1390 c 128,-1,22
 1348 1185 1348 1185 1348 784.5 c 128,-1,23
 1348 384 1348 384 1185.5 177.5 c 128,-1,24
 1023 -29 1023 -29 729 -29 c 128,-1,25
 435 -29 435 -29 273 177 c 128,-1,26
 111 383 111 383 111 784.5 c 128,-1,19
 111 1186 111 1186 273 1390.5 c 128,-1,20
729 1409 m 128,-1,28
 536 1409 536 1409 430 1265.5 c 128,-1,29
 324 1122 324 1122 324 840 c 2,30,-1
 324 727 l 2,31,32
 324 445 324 445 430 301.5 c 128,-1,33
 536 158 536 158 729 158 c 128,-1,34
 922 158 922 158 1028.5 301.5 c 128,-1,35
 1135 445 1135 445 1135 727 c 2,36,-1
 1135 840 l 2,37,38
 1135 1122 1135 1122 1028.5 1265.5 c 128,-1,27
 922 1409 922 1409 729 1409 c 128,-1,28
EndSplineSet
Position2: "'cpsp' Capital Spacing lookup 0 subtable" dx=12 dy=0 dh=27 dv=0
EndChar

StartChar: OE
Encoding: 338 338 84
Width: 1873
VWidth: 2586
GlyphClass: 2
Flags: W
HStem: -29 186<502 798> 0 184<1171 1792> 711 184<1171 1675> 1386 180<1171 1780> 1409 186<502 798>
VStem: 111 213<391 1160> 973 199<401 711 895 1165>
AnchorPoint: "Anchor-1" 0 0 basechar 0
AnchorPoint: "Anchor-0" 936 1567 basechar 0
LayerCount: 2
Back
Fore
SplineSet
244 1390.5 m 128,-1,1
 377 1595 377 1595 610.5 1595 c 128,-1,2
 844 1595 844 1595 973 1413 c 1,3,-1
 973 1567 l 1,4,-1
 1780 1567 l 1,5,-1
 1780 1386 l 1,6,-1
 1171 1386 l 1,7,-1
 1171 895 l 1,8,-1
 1675 895 l 1,9,-1
 1675 711 l 1,10,-1
 1171 711 l 1,11,-1
 1171 184 l 1,12,-1
 1792 184 l 1,13,-1
 1792 0 l 1,14,-1
 973 0 l 1,15,-1
 973 156 l 1,16,17
 846 -29 846 -29 612 -29 c 128,-1,18
 378 -29 378 -29 244.5 177 c 128,-1,19
 111 383 111 383 111 784.5 c 128,-1,0
 111 1186 111 1186 244 1390.5 c 128,-1,1
647 1409 m 128,-1,21
 492 1409 492 1409 408 1266 c 128,-1,22
 324 1123 324 1123 324 840 c 2,23,-1
 324 727 l 2,24,25
 324 444 324 444 408 301 c 128,-1,26
 492 158 492 158 647 158 c 128,-1,27
 802 158 802 158 887.5 301.5 c 128,-1,28
 973 445 973 445 973 727 c 2,29,-1
 973 840 l 2,30,31
 973 1122 973 1122 887.5 1265.5 c 128,-1,20
 802 1409 802 1409 647 1409 c 128,-1,21
EndSplineSet
Position2: "'cpsp' Capital Spacing lookup 0 subtable" dx=12 dy=0 dh=27 dv=0
EndChar

StartChar: P
Encoding: 80 80 85
Width: 1251
VWidth: 2586
GlyphClass: 2
Flags: W
HStem: 0 43G<160 362> 647 182<362 859> 1386 180<362 866>
VStem: 160 203<0 647 829 1386> 977 213<943 1280>
LayerCount: 2
Back
Fore
SplineSet
160 0 m 1,0,-1
 160 1567 l 1,1,-1
 719 1567 l 2,2,3
 947 1567 947 1567 1068.5 1444 c 128,-1,4
 1190 1321 1190 1321 1190 1112 c 128,-1,5
 1190 903 1190 903 1063 775 c 128,-1,6
 936 647 936 647 719 647 c 2,7,-1
 362 647 l 1,8,-1
 362 0 l 1,9,-1
 160 0 l 1,0,-1
715 829 m 2,10,11
 835 829 835 829 906 906.5 c 128,-1,12
 977 984 977 984 977 1112 c 128,-1,13
 977 1240 977 1240 909 1313 c 128,-1,14
 841 1386 841 1386 715 1386 c 2,15,-1
 362 1386 l 1,16,-1
 362 829 l 1,17,-1
 715 829 l 2,10,11
EndSplineSet
Position2: "'cpsp' Capital Spacing lookup 0 subtable" dx=12 dy=0 dh=27 dv=0
EndChar

StartChar: Thorn
Encoding: 222 222 86
Width: 1251
VWidth: 2586
GlyphClass: 2
Flags: W
HStem: 0 43G<160 362> 336 184<362 859> 1073 184<362 866> 1526 41G<160 362>
VStem: 160 203<0 336 520 1073 1257 1567> 977 213<631 968>
LayerCount: 2
Back
Fore
SplineSet
719 1257 m 2,0,1
 947 1257 947 1257 1068.5 1133.5 c 128,-1,2
 1190 1010 1190 1010 1190 800 c 0,3,4
 1190 590 1190 590 1063.5 463 c 128,-1,5
 937 336 937 336 719 336 c 2,6,-1
 362 336 l 1,7,-1
 362 0 l 1,8,-1
 160 0 l 1,9,-1
 160 1567 l 1,10,-1
 362 1567 l 1,11,-1
 362 1257 l 1,12,-1
 719 1257 l 2,0,1
362 520 m 1,13,-1
 715 520 l 2,14,15
 835 520 835 520 906 596.5 c 128,-1,16
 977 673 977 673 977 800.5 c 0,17,18
 977 928 977 928 909 1000.5 c 128,-1,19
 841 1073 841 1073 715 1073 c 2,20,-1
 362 1073 l 1,21,-1
 362 520 l 1,13,-1
EndSplineSet
Position2: "'cpsp' Capital Spacing lookup 0 subtable" dx=12 dy=0 dh=27 dv=0
EndChar

StartChar: Q
Encoding: 81 81 87
Width: 1458
VWidth: 2586
GlyphClass: 2
Flags: W
HStem: -14 172<541 743> 1409 186<543 915>
VStem: 111 213<438 1141> 1135 213<427 1141>
LayerCount: 2
Back
Fore
SplineSet
278.5 186.5 m 128,-1,1
 111 387 111 387 111 786.5 c 128,-1,2
 111 1186 111 1186 273 1390.5 c 128,-1,3
 435 1595 435 1595 729.5 1595 c 128,-1,4
 1024 1595 1024 1595 1186 1390 c 128,-1,5
 1348 1185 1348 1185 1348 784 c 0,6,7
 1348 477 1348 477 1251.5 283 c 128,-1,8
 1155 89 1155 89 975 16 c 1,9,-1
 1298 -285 l 1,10,-1
 1030 -285 l 1,11,-1
 743 -14 l 1,12,0
 446 -14 446 -14 278.5 186.5 c 128,-1,1
324 727 m 2,13,14
 324 445 324 445 430 301.5 c 128,-1,15
 536 158 536 158 729 158 c 128,-1,16
 922 158 922 158 1028.5 301.5 c 128,-1,17
 1135 445 1135 445 1135 727 c 2,18,-1
 1135 840 l 2,19,20
 1135 1122 1135 1122 1028.5 1265.5 c 128,-1,21
 922 1409 922 1409 729 1409 c 128,-1,22
 536 1409 536 1409 430 1265.5 c 128,-1,23
 324 1122 324 1122 324 840 c 2,24,-1
 324 727 l 2,13,14
EndSplineSet
Position2: "'cpsp' Capital Spacing lookup 0 subtable" dx=12 dy=0 dh=27 dv=0
EndChar

StartChar: R
Encoding: 82 82 88
Width: 1351
VWidth: 2586
GlyphClass: 2
Flags: W
HStem: 0 43G<160 362 1056 1296> 692 184<362 780> 1386 180<362 948>
VStem: 160 203<0 692 877 1386> 1051 209<982 1291>
AnchorPoint: "Anchor-1" 678 0 basechar 0
AnchorPoint: "Anchor-0" 678 1567 basechar 0
LayerCount: 2
Back
Fore
SplineSet
791 1567 m 2,0,1
 1016 1567 1016 1567 1138 1449 c 128,-1,2
 1260 1331 1260 1331 1260 1133 c 0,3,4
 1260 987 1260 987 1186.5 880 c 128,-1,5
 1113 773 1113 773 981 729 c 1,6,-1
 1296 0 l 1,7,-1
 1073 0 l 1,8,-1
 780 692 l 1,9,-1
 362 692 l 1,10,-1
 362 0 l 1,11,-1
 160 0 l 1,12,-1
 160 1567 l 1,13,-1
 791 1567 l 2,0,1
362 877 m 1,14,-1
 784 877 l 2,15,16
 904 877 904 877 977.5 946.5 c 128,-1,17
 1051 1016 1051 1016 1051 1134.5 c 0,18,19
 1051 1253 1051 1253 982 1319.5 c 128,-1,20
 913 1386 913 1386 784 1386 c 2,21,-1
 362 1386 l 1,22,-1
 362 877 l 1,14,-1
EndSplineSet
Position2: "'cpsp' Capital Spacing lookup 0 subtable" dx=12 dy=0 dh=27 dv=0
EndChar

StartChar: Racute
Encoding: 340 340 89
Width: 1351
VWidth: 2586
GlyphClass: 2
Flags: W
HStem: 0 43G<160 362 1056 1296> 692 184<362 780> 1386 180<362 948>
VStem: 160 203<0 692 877 1386> 1051 209<982 1291>
LayerCount: 2
Back
Fore
SplineSet
649 1718 m 1,0,-1
 489 1718 l 1,1,-1
 686 2019 l 1,2,-1
 893 2019 l 1,3,-1
 649 1718 l 1,0,-1
791 1567 m 2,4,5
 1016 1567 1016 1567 1138 1449 c 128,-1,6
 1260 1331 1260 1331 1260 1133 c 0,7,8
 1260 987 1260 987 1186.5 880 c 128,-1,9
 1113 773 1113 773 981 729 c 1,10,-1
 1296 0 l 1,11,-1
 1073 0 l 1,12,-1
 780 692 l 1,13,-1
 362 692 l 1,14,-1
 362 0 l 1,15,-1
 160 0 l 1,16,-1
 160 1567 l 1,17,-1
 791 1567 l 2,4,5
362 877 m 1,18,-1
 784 877 l 2,19,20
 904 877 904 877 977.5 946.5 c 128,-1,21
 1051 1016 1051 1016 1051 1134.5 c 0,22,23
 1051 1253 1051 1253 982 1319.5 c 128,-1,24
 913 1386 913 1386 784 1386 c 2,25,-1
 362 1386 l 1,26,-1
 362 877 l 1,18,-1
EndSplineSet
Position2: "'cpsp' Capital Spacing lookup 0 subtable" dx=12 dy=0 dh=27 dv=0
EndChar

StartChar: Rcaron
Encoding: 344 344 90
Width: 1351
VWidth: 2586
GlyphClass: 2
Flags: W
HStem: 0 43G<160 362 1056 1296> 692 184<362 780> 1386 180<362 948>
VStem: 160 203<0 692 877 1386> 1051 209<982 1291>
LayerCount: 2
Back
Fore
SplineSet
584 1710 m 1,0,-1
 391 2019 l 1,1,-1
 573 2019 l 1,2,-1
 678 1839 l 1,3,-1
 778 2019 l 1,4,-1
 963 2019 l 1,5,-1
 764 1710 l 1,6,-1
 584 1710 l 1,0,-1
791 1567 m 2,7,8
 1016 1567 1016 1567 1138 1449 c 128,-1,9
 1260 1331 1260 1331 1260 1133 c 0,10,11
 1260 987 1260 987 1186.5 880 c 128,-1,12
 1113 773 1113 773 981 729 c 1,13,-1
 1296 0 l 1,14,-1
 1073 0 l 1,15,-1
 780 692 l 1,16,-1
 362 692 l 1,17,-1
 362 0 l 1,18,-1
 160 0 l 1,19,-1
 160 1567 l 1,20,-1
 791 1567 l 2,7,8
362 877 m 1,21,-1
 784 877 l 2,22,23
 904 877 904 877 977.5 946.5 c 128,-1,24
 1051 1016 1051 1016 1051 1134.5 c 0,25,26
 1051 1253 1051 1253 982 1319.5 c 128,-1,27
 913 1386 913 1386 784 1386 c 2,28,-1
 362 1386 l 1,29,-1
 362 877 l 1,21,-1
EndSplineSet
Position2: "'cpsp' Capital Spacing lookup 0 subtable" dx=12 dy=0 dh=27 dv=0
EndChar

StartChar: Rcommaaccent
Encoding: 342 342 91
Width: 1351
VWidth: 2586
GlyphClass: 2
Flags: W
HStem: -344 207<580 659> 0 43G<160 362 1056 1296> 692 184<362 780> 1386 180<362 948>
VStem: 160 203<0 692 877 1386> 580 197<-328 -137> 1051 209<982 1291>
LayerCount: 2
Back
Fore
SplineSet
791 1567 m 2,0,1
 1016 1567 1016 1567 1138 1449 c 128,-1,2
 1260 1331 1260 1331 1260 1133 c 0,3,4
 1260 987 1260 987 1186.5 880 c 128,-1,5
 1113 773 1113 773 981 729 c 1,6,-1
 1296 0 l 1,7,-1
 1073 0 l 1,8,-1
 780 692 l 1,9,-1
 362 692 l 1,10,-1
 362 0 l 1,11,-1
 160 0 l 1,12,-1
 160 1567 l 1,13,-1
 791 1567 l 2,0,1
362 877 m 1,14,-1
 784 877 l 2,15,16
 904 877 904 877 977.5 946.5 c 128,-1,17
 1051 1016 1051 1016 1051 1134.5 c 0,18,19
 1051 1253 1051 1253 982 1319.5 c 128,-1,20
 913 1386 913 1386 784 1386 c 2,21,-1
 362 1386 l 1,22,-1
 362 877 l 1,14,-1
580 -344 m 1,23,-1
 580 -137 l 1,24,-1
 776 -137 l 1,25,-1
 776 -328 l 1,26,-1
 709 -508 l 1,27,-1
 606 -508 l 1,28,-1
 659 -344 l 1,29,-1
 580 -344 l 1,23,-1
EndSplineSet
Position2: "'cpsp' Capital Spacing lookup 0 subtable" dx=12 dy=0 dh=27 dv=0
EndChar

StartChar: S
Encoding: 83 83 92
Width: 1251
VWidth: 2586
GlyphClass: 2
Flags: W
HStem: -29 186<430 821> 1409 186<438 795>
VStem: 92 213<284 489> 127 211<1066 1321> 907 207<1128 1299> 942 211<275 556>
AnchorPoint: "Anchor-1" 627 0 basechar 0
AnchorPoint: "Anchor-0" 627 1567 basechar 0
LayerCount: 2
Back
Fore
SplineSet
429.5 1569.5 m 128,-1,1
 518 1595 518 1595 623.5 1595 c 128,-1,2
 729 1595 729 1595 816 1569.5 c 128,-1,3
 903 1544 903 1544 971 1492.5 c 128,-1,4
 1039 1441 1039 1441 1076.5 1354.5 c 128,-1,5
 1114 1268 1114 1268 1114 1153 c 2,6,-1
 1114 1128 l 1,7,-1
 907 1128 l 1,8,-1
 907 1161 l 2,9,10
 907 1278 907 1278 829 1343.5 c 128,-1,11
 751 1409 751 1409 624.5 1409 c 128,-1,12
 498 1409 498 1409 418 1354.5 c 128,-1,13
 338 1300 338 1300 338 1192 c 0,14,15
 338 1151 338 1151 350 1116.5 c 128,-1,16
 362 1082 362 1082 389 1055 c 128,-1,17
 416 1028 416 1028 442.5 1008.5 c 128,-1,18
 469 989 469 989 516.5 969 c 128,-1,19
 564 949 564 949 597 937.5 c 128,-1,20
 630 926 630 926 747.903000363 887.271616319 c 128,-1,21
 865.806000725 848.543232638 865.806000725 848.543232638 942.466454164 805.514280957 c 0,22,23
 1119.92977549 705.905416988 1119.92977549 705.905416988 1147.50324618 527.727680893 c 0,24,25
 1153 492.208062662 1153 492.208062662 1153 453 c 0,26,27
 1153 324 1153 324 1113.5 229.5 c 128,-1,28
 1074 135 1074 135 1001 79.5 c 128,-1,29
 928 24 928 24 833.5 -2.5 c 128,-1,30
 739 -29 739 -29 624.5 -29 c 128,-1,31
 510 -29 510 -29 417.5 -3 c 128,-1,32
 325 23 325 23 250.5 77 c 128,-1,33
 176 131 176 131 134 224 c 128,-1,34
 92 317 92 317 92 442 c 0,35,36
 92 469 92 469 96 489 c 1,37,-1
 305 489 l 1,38,-1
 305 442 l 2,39,40
 305 301 305 301 388.5 229.5 c 128,-1,41
 472 158 472 158 621 158 c 128,-1,42
 770 158 770 158 856 225.5 c 128,-1,43
 942 293 942 293 942 420 c 0,44,45
 942 453 942 453 935 481.5 c 128,-1,46
 928 510 928 510 912 534 c 128,-1,47
 896 558 896 558 879.5 577 c 128,-1,48
 863 596 863 596 834 613.5 c 128,-1,49
 805 631 805 631 783 643 c 128,-1,50
 761 655 761 655 722 669.5 c 128,-1,51
 683 684 683 684 658.5 692.5 c 128,-1,52
 634 701 634 701 568 722 c 128,-1,53
 502 743 502 743 454 761 c 128,-1,54
 406 779 406 779 333.5 818.5 c 128,-1,55
 261 858 261 858 223.5 901 c 128,-1,56
 186 944 186 944 156.5 1014.5 c 128,-1,57
 127 1085 127 1085 127 1182 c 128,-1,58
 127 1279 127 1279 165.5 1361 c 128,-1,59
 204 1443 204 1443 272.5 1493.5 c 128,-1,0
 341 1544 341 1544 429.5 1569.5 c 128,-1,1
EndSplineSet
Position2: "'cpsp' Capital Spacing lookup 0 subtable" dx=12 dy=0 dh=27 dv=0
EndChar

StartChar: Sacute
Encoding: 346 346 93
Width: 1251
VWidth: 2586
GlyphClass: 2
Flags: W
HStem: -29 186<430 821> 1409 186<438 795>
VStem: 92 213<284 489> 127 211<1066 1321> 907 207<1128 1299> 942 211<275 556>
LayerCount: 2
Back
Fore
SplineSet
647 1718 m 1,0,-1
 489 1718 l 1,1,-1
 686 2019 l 1,2,-1
 893 2019 l 1,3,-1
 647 1718 l 1,0,-1
429.5 1569.5 m 128,-1,5
 518 1595 518 1595 623.5 1595 c 128,-1,6
 729 1595 729 1595 816 1569.5 c 128,-1,7
 903 1544 903 1544 971 1492.5 c 128,-1,8
 1039 1441 1039 1441 1076.5 1354.5 c 128,-1,9
 1114 1268 1114 1268 1114 1153 c 2,10,-1
 1114 1128 l 1,11,-1
 907 1128 l 1,12,-1
 907 1161 l 2,13,14
 907 1278 907 1278 829 1343.5 c 128,-1,15
 751 1409 751 1409 624.5 1409 c 128,-1,16
 498 1409 498 1409 418 1354.5 c 128,-1,17
 338 1300 338 1300 338 1192 c 0,18,19
 338 1151 338 1151 350 1116.5 c 128,-1,20
 362 1082 362 1082 389 1055 c 128,-1,21
 416 1028 416 1028 442.5 1008.5 c 128,-1,22
 469 989 469 989 516.5 969 c 128,-1,23
 564 949 564 949 597 937.5 c 128,-1,24
 630 926 630 926 747.903000363 887.271616319 c 128,-1,25
 865.806000725 848.543232638 865.806000725 848.543232638 942.466454164 805.514280957 c 0,26,27
 1119.92977549 705.905416988 1119.92977549 705.905416988 1147.50324618 527.727680893 c 0,28,29
 1153 492.208062662 1153 492.208062662 1153 453 c 0,30,31
 1153 324 1153 324 1113.5 229.5 c 128,-1,32
 1074 135 1074 135 1001 79.5 c 128,-1,33
 928 24 928 24 833.5 -2.5 c 128,-1,34
 739 -29 739 -29 624.5 -29 c 128,-1,35
 510 -29 510 -29 417.5 -3 c 128,-1,36
 325 23 325 23 250.5 77 c 128,-1,37
 176 131 176 131 134 224 c 128,-1,38
 92 317 92 317 92 442 c 0,39,40
 92 469 92 469 96 489 c 1,41,-1
 305 489 l 1,42,-1
 305 442 l 2,43,44
 305 301 305 301 388.5 229.5 c 128,-1,45
 472 158 472 158 621 158 c 128,-1,46
 770 158 770 158 856 225.5 c 128,-1,47
 942 293 942 293 942 420 c 0,48,49
 942 453 942 453 935 481.5 c 128,-1,50
 928 510 928 510 912 534 c 128,-1,51
 896 558 896 558 879.5 577 c 128,-1,52
 863 596 863 596 834 613.5 c 128,-1,53
 805 631 805 631 783 643 c 128,-1,54
 761 655 761 655 722 669.5 c 128,-1,55
 683 684 683 684 658.5 692.5 c 128,-1,56
 634 701 634 701 568 722 c 128,-1,57
 502 743 502 743 454 761 c 128,-1,58
 406 779 406 779 333.5 818.5 c 128,-1,59
 261 858 261 858 223.5 901 c 128,-1,60
 186 944 186 944 156.5 1014.5 c 128,-1,61
 127 1085 127 1085 127 1182 c 128,-1,62
 127 1279 127 1279 165.5 1361 c 128,-1,63
 204 1443 204 1443 272.5 1493.5 c 128,-1,4
 341 1544 341 1544 429.5 1569.5 c 128,-1,5
EndSplineSet
Position2: "'cpsp' Capital Spacing lookup 0 subtable" dx=12 dy=0 dh=27 dv=0
EndChar

StartChar: Scaron
Encoding: 352 352 94
Width: 1251
VWidth: 2586
GlyphClass: 2
Flags: W
HStem: -29 186<430 821> 1409 186<438 795>
VStem: 92 213<284 489> 127 211<1066 1321> 907 207<1128 1299> 942 211<275 556>
LayerCount: 2
Back
Fore
SplineSet
342 2019 m 1,0,-1
 522 2019 l 1,1,-1
 623 1839 l 1,2,-1
 727 2019 l 1,3,-1
 911 2019 l 1,4,-1
 715 1710 l 1,5,-1
 535 1710 l 1,6,-1
 342 2019 l 1,0,-1
429.5 1569.5 m 128,-1,8
 518 1595 518 1595 623.5 1595 c 128,-1,9
 729 1595 729 1595 816 1569.5 c 128,-1,10
 903 1544 903 1544 971 1492.5 c 128,-1,11
 1039 1441 1039 1441 1076.5 1354.5 c 128,-1,12
 1114 1268 1114 1268 1114 1153 c 2,13,-1
 1114 1128 l 1,14,-1
 907 1128 l 1,15,-1
 907 1161 l 2,16,17
 907 1278 907 1278 829 1343.5 c 128,-1,18
 751 1409 751 1409 624.5 1409 c 128,-1,19
 498 1409 498 1409 418 1354.5 c 128,-1,20
 338 1300 338 1300 338 1192 c 0,21,22
 338 1151 338 1151 350 1116.5 c 128,-1,23
 362 1082 362 1082 389 1055 c 128,-1,24
 416 1028 416 1028 442.5 1008.5 c 128,-1,25
 469 989 469 989 516.5 969 c 128,-1,26
 564 949 564 949 597 937.5 c 128,-1,27
 630 926 630 926 747.903000363 887.271616319 c 128,-1,28
 865.806000725 848.543232638 865.806000725 848.543232638 942.466454164 805.514280957 c 0,29,30
 1119.92977549 705.905416988 1119.92977549 705.905416988 1147.50324618 527.727680893 c 0,31,32
 1153 492.208062662 1153 492.208062662 1153 453 c 0,33,34
 1153 324 1153 324 1113.5 229.5 c 128,-1,35
 1074 135 1074 135 1001 79.5 c 128,-1,36
 928 24 928 24 833.5 -2.5 c 128,-1,37
 739 -29 739 -29 624.5 -29 c 128,-1,38
 510 -29 510 -29 417.5 -3 c 128,-1,39
 325 23 325 23 250.5 77 c 128,-1,40
 176 131 176 131 134 224 c 128,-1,41
 92 317 92 317 92 442 c 0,42,43
 92 469 92 469 96 489 c 1,44,-1
 305 489 l 1,45,-1
 305 442 l 2,46,47
 305 301 305 301 388.5 229.5 c 128,-1,48
 472 158 472 158 621 158 c 128,-1,49
 770 158 770 158 856 225.5 c 128,-1,50
 942 293 942 293 942 420 c 0,51,52
 942 453 942 453 935 481.5 c 128,-1,53
 928 510 928 510 912 534 c 128,-1,54
 896 558 896 558 879.5 577 c 128,-1,55
 863 596 863 596 834 613.5 c 128,-1,56
 805 631 805 631 783 643 c 128,-1,57
 761 655 761 655 722 669.5 c 128,-1,58
 683 684 683 684 658.5 692.5 c 128,-1,59
 634 701 634 701 568 722 c 128,-1,60
 502 743 502 743 454 761 c 128,-1,61
 406 779 406 779 333.5 818.5 c 128,-1,62
 261 858 261 858 223.5 901 c 128,-1,63
 186 944 186 944 156.5 1014.5 c 128,-1,64
 127 1085 127 1085 127 1182 c 128,-1,65
 127 1279 127 1279 165.5 1361 c 128,-1,66
 204 1443 204 1443 272.5 1493.5 c 128,-1,7
 341 1544 341 1544 429.5 1569.5 c 128,-1,8
EndSplineSet
Position2: "'cpsp' Capital Spacing lookup 0 subtable" dx=12 dy=0 dh=27 dv=0
EndChar

StartChar: Scedilla
Encoding: 350 350 95
Width: 1251
VWidth: 2586
GlyphClass: 2
Flags: W
HStem: -416 129<414 663> -399 113<412 599> -27 184<436 539 662 813> 1409 186<438 795>
VStem: 92 213<278 489> 127 211<1066 1321> 668 172<-282 -180> 907 207<1128 1299> 942 211<273 556>
LayerCount: 2
Back
Fore
SplineSet
429.5 1569.5 m 128,-1,1
 518 1595 518 1595 623.5 1595 c 128,-1,2
 729 1595 729 1595 816 1569.5 c 128,-1,3
 903 1544 903 1544 971 1492.5 c 128,-1,4
 1039 1441 1039 1441 1076.5 1354.5 c 128,-1,5
 1114 1268 1114 1268 1114 1153 c 2,6,-1
 1114 1128 l 1,7,-1
 907 1128 l 1,8,-1
 907 1161 l 2,9,10
 907 1278 907 1278 829 1343.5 c 128,-1,11
 751 1409 751 1409 624.5 1409 c 128,-1,12
 498 1409 498 1409 418 1354.5 c 128,-1,13
 338 1300 338 1300 338 1192 c 0,14,15
 338 1151 338 1151 350 1116.5 c 128,-1,16
 362 1082 362 1082 389 1055 c 128,-1,17
 416 1028 416 1028 442.5 1008.5 c 128,-1,18
 469 989 469 989 516.5 969 c 128,-1,19
 564 949 564 949 597 937.5 c 128,-1,20
 630 926 630 926 747.903000363 887.271616319 c 128,-1,21
 865.806000725 848.543232638 865.806000725 848.543232638 942.466454164 805.514280957 c 0,22,23
 1119.92977549 705.905416988 1119.92977549 705.905416988 1147.50324618 527.727680893 c 0,24,25
 1153 492.208062662 1153 492.208062662 1153 453 c 0,26,27
 1153 330 1153 330 1117 238.5 c 128,-1,28
 1081 147 1081 147 1014 91 c 128,-1,29
 947 35 947 35 859.5 6.5 c 128,-1,30
 772 -22 772 -22 662 -27 c 1,31,-1
 662 -82 l 1,32,33
 840 -93 840 -93 840 -229 c 0,34,35
 840 -284 840 -284 816.5 -323.5 c 128,-1,36
 793 -363 793 -363 754.5 -381.5 c 128,-1,37
 716 -400 716 -400 679 -408 c 128,-1,38
 642 -416 642 -416 574 -416 c 128,-1,39
 506 -416 506 -416 412 -399 c 1,40,-1
 412 -287 l 1,41,-1
 584 -287 l 2,42,43
 668 -287 668 -287 668 -229 c 0,44,45
 668 -201 668 -201 650.5 -188.5 c 128,-1,46
 633 -176 633 -176 590 -176 c 2,47,-1
 514 -176 l 1,48,-1
 539 -23 l 1,49,50
 441 -14 441 -14 362 16.5 c 128,-1,51
 283 47 283 47 221.5 101 c 128,-1,52
 160 155 160 155 126 242 c 128,-1,53
 92 329 92 329 92 442 c 0,54,55
 92 469 92 469 96 489 c 1,56,-1
 305 489 l 1,57,-1
 305 442 l 2,58,59
 305 301 305 301 388.5 229.5 c 128,-1,60
 472 158 472 158 621 158 c 128,-1,61
 770 158 770 158 856 225.5 c 128,-1,62
 942 293 942 293 942 420 c 0,63,64
 942 453 942 453 935 481.5 c 128,-1,65
 928 510 928 510 912 534 c 128,-1,66
 896 558 896 558 879.5 577 c 128,-1,67
 863 596 863 596 834 613.5 c 128,-1,68
 805 631 805 631 783 643 c 128,-1,69
 761 655 761 655 722 669.5 c 128,-1,70
 683 684 683 684 658.5 692.5 c 128,-1,71
 634 701 634 701 568 722 c 128,-1,72
 502 743 502 743 454 761 c 128,-1,73
 406 779 406 779 333.5 818.5 c 128,-1,74
 261 858 261 858 223.5 901 c 128,-1,75
 186 944 186 944 156.5 1014.5 c 128,-1,76
 127 1085 127 1085 127 1182 c 128,-1,77
 127 1279 127 1279 165.5 1361 c 128,-1,78
 204 1443 204 1443 272.5 1493.5 c 128,-1,0
 341 1544 341 1544 429.5 1569.5 c 128,-1,1
EndSplineSet
Substitution2: "'locl' Localized Forms in Latin lookup 6 subtable" Scommaaccent
Substitution2: "'locl' Localized Forms in Latin lookup 5 subtable" Scommaaccent
Substitution2: "'aalt' Access All Alternates lookup 0 subtable" Scommaaccent
Position2: "'cpsp' Capital Spacing lookup 0 subtable" dx=12 dy=0 dh=27 dv=0
EndChar

StartChar: Scircumflex
Encoding: 348 348 96
Width: 1251
VWidth: 2586
GlyphClass: 2
Flags: W
HStem: -29 186<430 821> 1409 186<438 795>
VStem: 92 213<284 489> 127 211<1066 1321> 907 207<1128 1299> 942 211<275 556>
LayerCount: 2
Back
Fore
SplineSet
627 1888 m 1,0,-1
 522 1708 l 1,1,-1
 342 1708 l 1,2,-1
 539 2017 l 1,3,-1
 717 2017 l 1,4,-1
 911 1708 l 1,5,-1
 727 1708 l 1,6,-1
 627 1888 l 1,0,-1
429.5 1569.5 m 128,-1,8
 518 1595 518 1595 623.5 1595 c 128,-1,9
 729 1595 729 1595 816 1569.5 c 128,-1,10
 903 1544 903 1544 971 1492.5 c 128,-1,11
 1039 1441 1039 1441 1076.5 1354.5 c 128,-1,12
 1114 1268 1114 1268 1114 1153 c 2,13,-1
 1114 1128 l 1,14,-1
 907 1128 l 1,15,-1
 907 1161 l 2,16,17
 907 1278 907 1278 829 1343.5 c 128,-1,18
 751 1409 751 1409 624.5 1409 c 128,-1,19
 498 1409 498 1409 418 1354.5 c 128,-1,20
 338 1300 338 1300 338 1192 c 0,21,22
 338 1151 338 1151 350 1116.5 c 128,-1,23
 362 1082 362 1082 389 1055 c 128,-1,24
 416 1028 416 1028 442.5 1008.5 c 128,-1,25
 469 989 469 989 516.5 969 c 128,-1,26
 564 949 564 949 597 937.5 c 128,-1,27
 630 926 630 926 747.903000363 887.271616319 c 128,-1,28
 865.806000725 848.543232638 865.806000725 848.543232638 942.466454164 805.514280957 c 0,29,30
 1119.92977549 705.905416988 1119.92977549 705.905416988 1147.50324618 527.727680893 c 0,31,32
 1153 492.208062662 1153 492.208062662 1153 453 c 0,33,34
 1153 324 1153 324 1113.5 229.5 c 128,-1,35
 1074 135 1074 135 1001 79.5 c 128,-1,36
 928 24 928 24 833.5 -2.5 c 128,-1,37
 739 -29 739 -29 624.5 -29 c 128,-1,38
 510 -29 510 -29 417.5 -3 c 128,-1,39
 325 23 325 23 250.5 77 c 128,-1,40
 176 131 176 131 134 224 c 128,-1,41
 92 317 92 317 92 442 c 0,42,43
 92 469 92 469 96 489 c 1,44,-1
 305 489 l 1,45,-1
 305 442 l 2,46,47
 305 301 305 301 388.5 229.5 c 128,-1,48
 472 158 472 158 621 158 c 128,-1,49
 770 158 770 158 856 225.5 c 128,-1,50
 942 293 942 293 942 420 c 0,51,52
 942 453 942 453 935 481.5 c 128,-1,53
 928 510 928 510 912 534 c 128,-1,54
 896 558 896 558 879.5 577 c 128,-1,55
 863 596 863 596 834 613.5 c 128,-1,56
 805 631 805 631 783 643 c 128,-1,57
 761 655 761 655 722 669.5 c 128,-1,58
 683 684 683 684 658.5 692.5 c 128,-1,59
 634 701 634 701 568 722 c 128,-1,60
 502 743 502 743 454 761 c 128,-1,61
 406 779 406 779 333.5 818.5 c 128,-1,62
 261 858 261 858 223.5 901 c 128,-1,63
 186 944 186 944 156.5 1014.5 c 128,-1,64
 127 1085 127 1085 127 1182 c 128,-1,65
 127 1279 127 1279 165.5 1361 c 128,-1,66
 204 1443 204 1443 272.5 1493.5 c 128,-1,7
 341 1544 341 1544 429.5 1569.5 c 128,-1,8
EndSplineSet
Position2: "'cpsp' Capital Spacing lookup 0 subtable" dx=12 dy=0 dh=27 dv=0
EndChar

StartChar: Scommaaccent
Encoding: 536 536 97
Width: 1251
VWidth: 2586
GlyphClass: 2
Flags: W
HStem: -29 186<430 821> 1409 186<438 795>
VStem: 92 213<284 489> 127 211<1066 1321> 528 193<-328 -137> 907 207<1128 1299> 942 211<275 556>
AnchorPoint: "Anchor-1" 627 0 basechar 0
AnchorPoint: "Anchor-0" 627 1567 basechar 0
LayerCount: 2
Back
Fore
SplineSet
429.5 1569.5 m 128,-1,1
 518 1595 518 1595 623.5 1595 c 128,-1,2
 729 1595 729 1595 816 1569.5 c 128,-1,3
 903 1544 903 1544 971 1492.5 c 128,-1,4
 1039 1441 1039 1441 1076.5 1354.5 c 128,-1,5
 1114 1268 1114 1268 1114 1153 c 2,6,-1
 1114 1128 l 1,7,-1
 907 1128 l 1,8,-1
 907 1161 l 2,9,10
 907 1278 907 1278 829 1343.5 c 128,-1,11
 751 1409 751 1409 624.5 1409 c 128,-1,12
 498 1409 498 1409 418 1354.5 c 128,-1,13
 338 1300 338 1300 338 1192 c 0,14,15
 338 1151 338 1151 350 1116.5 c 128,-1,16
 362 1082 362 1082 389 1055 c 128,-1,17
 416 1028 416 1028 442.5 1008.5 c 128,-1,18
 469 989 469 989 516.5 969 c 128,-1,19
 564 949 564 949 597 937.5 c 128,-1,20
 630 926 630 926 747.903000363 887.271616319 c 128,-1,21
 865.806000725 848.543232638 865.806000725 848.543232638 942.466454164 805.514280957 c 0,22,23
 1119.92977549 705.905416988 1119.92977549 705.905416988 1147.50324618 527.727680893 c 0,24,25
 1153 492.208062662 1153 492.208062662 1153 453 c 0,26,27
 1153 324 1153 324 1113.5 229.5 c 128,-1,28
 1074 135 1074 135 1001 79.5 c 128,-1,29
 928 24 928 24 833.5 -2.5 c 128,-1,30
 739 -29 739 -29 624.5 -29 c 128,-1,31
 510 -29 510 -29 417.5 -3 c 128,-1,32
 325 23 325 23 250.5 77 c 128,-1,33
 176 131 176 131 134 224 c 128,-1,34
 92 317 92 317 92 442 c 0,35,36
 92 469 92 469 96 489 c 1,37,-1
 305 489 l 1,38,-1
 305 442 l 2,39,40
 305 301 305 301 388.5 229.5 c 128,-1,41
 472 158 472 158 621 158 c 128,-1,42
 770 158 770 158 856 225.5 c 128,-1,43
 942 293 942 293 942 420 c 0,44,45
 942 453 942 453 935 481.5 c 128,-1,46
 928 510 928 510 912 534 c 128,-1,47
 896 558 896 558 879.5 577 c 128,-1,48
 863 596 863 596 834 613.5 c 128,-1,49
 805 631 805 631 783 643 c 128,-1,50
 761 655 761 655 722 669.5 c 128,-1,51
 683 684 683 684 658.5 692.5 c 128,-1,52
 634 701 634 701 568 722 c 128,-1,53
 502 743 502 743 454 761 c 128,-1,54
 406 779 406 779 333.5 818.5 c 128,-1,55
 261 858 261 858 223.5 901 c 128,-1,56
 186 944 186 944 156.5 1014.5 c 128,-1,57
 127 1085 127 1085 127 1182 c 128,-1,58
 127 1279 127 1279 165.5 1361 c 128,-1,59
 204 1443 204 1443 272.5 1493.5 c 128,-1,0
 341 1544 341 1544 429.5 1569.5 c 128,-1,1
528 -344 m 1,60,-1
 528 -137 l 1,61,-1
 721 -137 l 1,62,-1
 721 -328 l 1,63,-1
 655 -508 l 1,64,-1
 551 -508 l 1,65,-1
 606 -344 l 1,66,-1
 528 -344 l 1,60,-1
EndSplineSet
Position2: "'cpsp' Capital Spacing lookup 0 subtable" dx=12 dy=0 dh=27 dv=0
EndChar

StartChar: T
Encoding: 84 84 98
Width: 1144
VWidth: 2586
GlyphClass: 2
Flags: W
HStem: 0 43G<471 672> 1386 180<43 471 672 1100>
VStem: 471 201<0 1386>
AnchorPoint: "Anchor-1" 573 0 basechar 0
AnchorPoint: "Anchor-0" 573 1567 basechar 0
LayerCount: 2
Back
Fore
SplineSet
672 1386 m 1,0,-1
 672 0 l 1,1,-1
 471 0 l 1,2,-1
 471 1386 l 1,3,-1
 43 1386 l 1,4,-1
 43 1567 l 1,5,-1
 1100 1567 l 1,6,-1
 1100 1386 l 1,7,-1
 672 1386 l 1,0,-1
EndSplineSet
Position2: "'cpsp' Capital Spacing lookup 0 subtable" dx=12 dy=0 dh=27 dv=0
EndChar

StartChar: Tbar
Encoding: 358 358 99
Width: 1144
VWidth: 2586
GlyphClass: 2
Flags: W
HStem: 0 43G<471 672> 731 166<176 471 672 973> 1386 180<43 471 672 1100>
VStem: 471 201<0 731 897 1386>
LayerCount: 2
Back
Fore
SplineSet
672 1386 m 1,0,-1
 672 897 l 1,1,-1
 973 897 l 1,2,-1
 973 731 l 1,3,-1
 672 731 l 1,4,-1
 672 0 l 1,5,-1
 471 0 l 1,6,-1
 471 731 l 1,7,-1
 176 731 l 1,8,-1
 176 897 l 1,9,-1
 471 897 l 1,10,-1
 471 1386 l 1,11,-1
 43 1386 l 1,12,-1
 43 1567 l 1,13,-1
 1100 1567 l 1,14,-1
 1100 1386 l 1,15,-1
 672 1386 l 1,0,-1
EndSplineSet
Position2: "'cpsp' Capital Spacing lookup 0 subtable" dx=12 dy=0 dh=27 dv=0
EndChar

StartChar: Tcaron
Encoding: 356 356 100
Width: 1144
VWidth: 2586
GlyphClass: 2
Flags: W
HStem: 0 43G<471 672> 1386 180<43 471 672 1100>
VStem: 471 201<0 1386>
LayerCount: 2
Back
Fore
SplineSet
483 1710 m 1,0,-1
 287 2019 l 1,1,-1
 471 2019 l 1,2,-1
 571 1839 l 1,3,-1
 676 2019 l 1,4,-1
 856 2019 l 1,5,-1
 659 1710 l 1,6,-1
 483 1710 l 1,0,-1
672 1386 m 1,7,-1
 672 0 l 1,8,-1
 471 0 l 1,9,-1
 471 1386 l 1,10,-1
 43 1386 l 1,11,-1
 43 1567 l 1,12,-1
 1100 1567 l 1,13,-1
 1100 1386 l 1,14,-1
 672 1386 l 1,7,-1
EndSplineSet
Position2: "'cpsp' Capital Spacing lookup 0 subtable" dx=12 dy=0 dh=27 dv=0
EndChar

StartChar: uni0162
Encoding: 354 354 101
Width: 1144
VWidth: 2586
GlyphClass: 2
Flags: W
HStem: -416 129<363 612> -399 113<360 548> 1386 180<43 489 672 1100>
VStem: 489 182<0 1386> 489 127<-87 0> 616 172<-282 -180>
AnchorPoint: "Anchor-1" 573 0 basechar 0
AnchorPoint: "Anchor-0" 573 1567 basechar 0
LayerCount: 2
Back
Fore
SplineSet
616 0 m 1,0,-1
 616 -82 l 1,1,2
 788 -93 788 -93 788 -229 c 0,3,4
 788 -274 788 -274 772 -308.5 c 128,-1,5
 756 -343 756 -343 731.5 -362.5 c 128,-1,6
 707 -382 707 -382 674 -394.5 c 128,-1,7
 641 -407 641 -407 611.5 -411.5 c 128,-1,8
 582 -416 582 -416 518 -416 c 0,9,10
 454 -416 454 -416 360 -399 c 1,11,-1
 360 -287 l 1,12,-1
 532 -287 l 2,13,14
 616 -287 616 -287 616 -229 c 0,15,16
 616 -201 616 -201 599 -188.5 c 128,-1,17
 582 -176 582 -176 539 -176 c 2,18,-1
 463 -176 l 1,19,-1
 489 0 l 1,20,-1
 489 1386 l 1,21,-1
 43 1386 l 1,22,-1
 43 1567 l 1,23,-1
 1100 1567 l 1,24,-1
 1100 1386 l 1,25,-1
 672 1386 l 1,26,-1
 672 0 l 1,27,-1
 616 0 l 1,0,-1
EndSplineSet
Substitution2: "'locl' Localized Forms in Latin lookup 6 subtable" uni021A
Substitution2: "'locl' Localized Forms in Latin lookup 5 subtable" uni021A
Substitution2: "'aalt' Access All Alternates lookup 0 subtable" uni021A
Position2: "'cpsp' Capital Spacing lookup 0 subtable" dx=12 dy=0 dh=27 dv=0
EndChar

StartChar: uni021A
Encoding: 538 538 102
Width: 1144
VWidth: 2586
GlyphClass: 2
Flags: W
HStem: 0 43G<471 672> 1386 180<43 471 672 1100>
VStem: 471 201<-328 -137 0 1386>
LayerCount: 2
Back
Fore
SplineSet
672 1386 m 1,0,-1
 672 0 l 1,1,-1
 471 0 l 1,2,-1
 471 1386 l 1,3,-1
 43 1386 l 1,4,-1
 43 1567 l 1,5,-1
 1100 1567 l 1,6,-1
 1100 1386 l 1,7,-1
 672 1386 l 1,0,-1
475 -344 m 1,8,-1
 475 -137 l 1,9,-1
 670 -137 l 1,10,-1
 670 -328 l 1,11,-1
 602 -508 l 1,12,-1
 502 -508 l 1,13,-1
 553 -344 l 1,14,-1
 475 -344 l 1,8,-1
EndSplineSet
Position2: "'cpsp' Capital Spacing lookup 0 subtable" dx=12 dy=0 dh=27 dv=0
EndChar

StartChar: U
Encoding: 85 85 103
Width: 1351
VWidth: 2586
GlyphClass: 2
Flags: W
HStem: -29 186<507 848> 1526 41G<160 362 993 1192>
VStem: 160 203<303 1567> 993 199<303 1567>
AnchorPoint: "Anchor-1" 0 0 basechar 0
AnchorPoint: "Anchor-0" 678 1567 basechar 0
LayerCount: 2
Back
Fore
SplineSet
1192 510 m 2,0,1
 1192 249 1192 249 1057 110 c 128,-1,2
 922 -29 922 -29 677 -29 c 0,3,4
 432 -29 432 -29 296 110 c 128,-1,5
 160 249 160 249 160 510 c 2,6,-1
 160 1567 l 1,7,-1
 362 1567 l 1,8,-1
 362 500 l 2,9,10
 362 335 362 335 445.5 246.5 c 128,-1,11
 529 158 529 158 678 158 c 128,-1,12
 827 158 827 158 910 246 c 128,-1,13
 993 334 993 334 993 500 c 2,14,-1
 993 1567 l 1,15,-1
 1192 1567 l 1,16,-1
 1192 510 l 2,0,1
EndSplineSet
Position2: "'cpsp' Capital Spacing lookup 0 subtable" dx=12 dy=0 dh=27 dv=0
EndChar

StartChar: Uacute
Encoding: 218 218 104
Width: 1351
VWidth: 2586
GlyphClass: 2
Flags: W
HStem: -29 186<507 848> 1526 41G<160 362 993 1192>
VStem: 160 203<303 1567> 993 199<303 1567>
LayerCount: 2
Back
Fore
SplineSet
700 1718 m 1,0,-1
 541 1718 l 1,1,-1
 737 2019 l 1,2,-1
 942 2019 l 1,3,-1
 700 1718 l 1,0,-1
1192 510 m 2,4,5
 1192 249 1192 249 1057 110 c 128,-1,6
 922 -29 922 -29 677 -29 c 0,7,8
 432 -29 432 -29 296 110 c 128,-1,9
 160 249 160 249 160 510 c 2,10,-1
 160 1567 l 1,11,-1
 362 1567 l 1,12,-1
 362 500 l 2,13,14
 362 335 362 335 445.5 246.5 c 128,-1,15
 529 158 529 158 678 158 c 128,-1,16
 827 158 827 158 910 246 c 128,-1,17
 993 334 993 334 993 500 c 2,18,-1
 993 1567 l 1,19,-1
 1192 1567 l 1,20,-1
 1192 510 l 2,4,5
EndSplineSet
Position2: "'cpsp' Capital Spacing lookup 0 subtable" dx=12 dy=0 dh=27 dv=0
EndChar

StartChar: Ubreve
Encoding: 364 364 105
Width: 1351
VWidth: 2586
GlyphClass: 2
Flags: W
HStem: -29 186<507 848> 1526 41G<160 362 993 1192> 1798 145<563 796>
VStem: 160 203<303 1567> 393 150<1970 2019> 815 145<1970 2019> 993 199<303 1567>
LayerCount: 2
Back
Fore
SplineSet
961 2019 m 1,0,1
 961 1935 961 1935 882 1866.5 c 128,-1,2
 803 1798 803 1798 678 1798 c 128,-1,3
 553 1798 553 1798 473 1866.5 c 128,-1,4
 393 1935 393 1935 393 2019 c 1,5,-1
 543 2019 l 1,6,7
 548 1991 548 1991 585.5 1967.5 c 128,-1,8
 623 1944 623 1944 678 1944 c 128,-1,9
 733 1944 733 1944 771.5 1968 c 128,-1,10
 810 1992 810 1992 815 2019 c 1,11,-1
 961 2019 l 1,0,1
1192 510 m 2,12,13
 1192 249 1192 249 1057 110 c 128,-1,14
 922 -29 922 -29 677 -29 c 0,15,16
 432 -29 432 -29 296 110 c 128,-1,17
 160 249 160 249 160 510 c 2,18,-1
 160 1567 l 1,19,-1
 362 1567 l 1,20,-1
 362 500 l 2,21,22
 362 335 362 335 445.5 246.5 c 128,-1,23
 529 158 529 158 678 158 c 128,-1,24
 827 158 827 158 910 246 c 128,-1,25
 993 334 993 334 993 500 c 2,26,-1
 993 1567 l 1,27,-1
 1192 1567 l 1,28,-1
 1192 510 l 2,12,13
EndSplineSet
Position2: "'cpsp' Capital Spacing lookup 0 subtable" dx=12 dy=0 dh=27 dv=0
EndChar

StartChar: Ucircumflex
Encoding: 219 219 106
Width: 1351
VWidth: 2586
GlyphClass: 2
Flags: W
HStem: -29 186<507 848> 1526 41G<160 362 993 1192>
VStem: 160 203<303 1567> 993 199<303 1567>
LayerCount: 2
Back
Fore
SplineSet
778 1708 m 1,0,-1
 680 1888 l 1,1,-1
 573 1708 l 1,2,-1
 391 1708 l 1,3,-1
 588 2017 l 1,4,-1
 766 2017 l 1,5,-1
 963 1708 l 1,6,-1
 778 1708 l 1,0,-1
1192 510 m 2,7,8
 1192 249 1192 249 1057 110 c 128,-1,9
 922 -29 922 -29 677 -29 c 0,10,11
 432 -29 432 -29 296 110 c 128,-1,12
 160 249 160 249 160 510 c 2,13,-1
 160 1567 l 1,14,-1
 362 1567 l 1,15,-1
 362 500 l 2,16,17
 362 335 362 335 445.5 246.5 c 128,-1,18
 529 158 529 158 678 158 c 128,-1,19
 827 158 827 158 910 246 c 128,-1,20
 993 334 993 334 993 500 c 2,21,-1
 993 1567 l 1,22,-1
 1192 1567 l 1,23,-1
 1192 510 l 2,7,8
EndSplineSet
Position2: "'cpsp' Capital Spacing lookup 0 subtable" dx=12 dy=0 dh=27 dv=0
EndChar

StartChar: Udieresis
Encoding: 220 220 107
Width: 1351
VWidth: 2586
GlyphClass: 2
Flags: W
HStem: -29 186<507 848> 1526 41G<160 362 993 1192> 1802 217<403 602 748 950>
VStem: 160 203<303 1567> 403 199<1802 2019> 748 203<1802 2019> 993 199<303 1567>
LayerCount: 2
Back
Fore
SplineSet
403 1802 m 1,0,-1
 403 2019 l 1,1,-1
 602 2019 l 1,2,-1
 602 1802 l 1,3,-1
 403 1802 l 1,0,-1
748 1802 m 1,4,-1
 748 2019 l 1,5,-1
 950 2019 l 1,6,-1
 950 1802 l 1,7,-1
 748 1802 l 1,4,-1
1192 510 m 2,8,9
 1192 249 1192 249 1057 110 c 128,-1,10
 922 -29 922 -29 677 -29 c 0,11,12
 432 -29 432 -29 296 110 c 128,-1,13
 160 249 160 249 160 510 c 2,14,-1
 160 1567 l 1,15,-1
 362 1567 l 1,16,-1
 362 500 l 2,17,18
 362 335 362 335 445.5 246.5 c 128,-1,19
 529 158 529 158 678 158 c 128,-1,20
 827 158 827 158 910 246 c 128,-1,21
 993 334 993 334 993 500 c 2,22,-1
 993 1567 l 1,23,-1
 1192 1567 l 1,24,-1
 1192 510 l 2,8,9
EndSplineSet
Position2: "'cpsp' Capital Spacing lookup 0 subtable" dx=12 dy=0 dh=27 dv=0
EndChar

StartChar: Ugrave
Encoding: 217 217 108
Width: 1351
VWidth: 2586
GlyphClass: 2
Flags: W
HStem: -29 186<507 848> 1526 41G<160 362 993 1192>
VStem: 160 203<303 1567> 993 199<303 1567>
LayerCount: 2
Back
Fore
SplineSet
657 1718 m 1,0,-1
 402 2017 l 1,1,-1
 618 2017 l 1,2,-1
 813 1718 l 1,3,-1
 657 1718 l 1,0,-1
1192 510 m 2,4,5
 1192 249 1192 249 1057 110 c 128,-1,6
 922 -29 922 -29 677 -29 c 0,7,8
 432 -29 432 -29 296 110 c 128,-1,9
 160 249 160 249 160 510 c 2,10,-1
 160 1567 l 1,11,-1
 362 1567 l 1,12,-1
 362 500 l 2,13,14
 362 335 362 335 445.5 246.5 c 128,-1,15
 529 158 529 158 678 158 c 128,-1,16
 827 158 827 158 910 246 c 128,-1,17
 993 334 993 334 993 500 c 2,18,-1
 993 1567 l 1,19,-1
 1192 1567 l 1,20,-1
 1192 510 l 2,4,5
EndSplineSet
Position2: "'cpsp' Capital Spacing lookup 0 subtable" dx=12 dy=0 dh=27 dv=0
EndChar

StartChar: Uhungarumlaut
Encoding: 368 368 109
Width: 1351
VWidth: 2586
GlyphClass: 2
Flags: W
HStem: -29 186<507 848> 1526 41G<160 362 993 1192>
VStem: 160 203<303 1567> 993 199<303 1567>
LayerCount: 2
Back
Fore
SplineSet
616 1718 m 1,0,-1
 459 1718 l 1,1,-1
 600 2019 l 1,2,-1
 805 2019 l 1,3,-1
 616 1718 l 1,0,-1
913 1718 m 1,4,-1
 758 1718 l 1,5,-1
 897 2019 l 1,6,-1
 1102 2019 l 1,7,-1
 913 1718 l 1,4,-1
1192 510 m 2,8,9
 1192 249 1192 249 1057 110 c 128,-1,10
 922 -29 922 -29 677 -29 c 0,11,12
 432 -29 432 -29 296 110 c 128,-1,13
 160 249 160 249 160 510 c 2,14,-1
 160 1567 l 1,15,-1
 362 1567 l 1,16,-1
 362 500 l 2,17,18
 362 335 362 335 445.5 246.5 c 128,-1,19
 529 158 529 158 678 158 c 128,-1,20
 827 158 827 158 910 246 c 128,-1,21
 993 334 993 334 993 500 c 2,22,-1
 993 1567 l 1,23,-1
 1192 1567 l 1,24,-1
 1192 510 l 2,8,9
EndSplineSet
Position2: "'cpsp' Capital Spacing lookup 0 subtable" dx=12 dy=0 dh=27 dv=0
EndChar

StartChar: Umacron
Encoding: 362 362 110
Width: 1351
VWidth: 2586
GlyphClass: 2
Flags: W
HStem: -29 186<507 848> 1526 41G<160 362 993 1192> 1735 166<391 963>
VStem: 160 203<303 1567> 993 199<303 1567>
LayerCount: 2
Back
Fore
SplineSet
391 1735 m 1,0,-1
 391 1901 l 1,1,-1
 963 1901 l 1,2,-1
 963 1735 l 1,3,-1
 391 1735 l 1,0,-1
1192 510 m 2,4,5
 1192 249 1192 249 1057 110 c 128,-1,6
 922 -29 922 -29 677 -29 c 0,7,8
 432 -29 432 -29 296 110 c 128,-1,9
 160 249 160 249 160 510 c 2,10,-1
 160 1567 l 1,11,-1
 362 1567 l 1,12,-1
 362 500 l 2,13,14
 362 335 362 335 445.5 246.5 c 128,-1,15
 529 158 529 158 678 158 c 128,-1,16
 827 158 827 158 910 246 c 128,-1,17
 993 334 993 334 993 500 c 2,18,-1
 993 1567 l 1,19,-1
 1192 1567 l 1,20,-1
 1192 510 l 2,4,5
EndSplineSet
Position2: "'cpsp' Capital Spacing lookup 0 subtable" dx=12 dy=0 dh=27 dv=0
EndChar

StartChar: Uogonek
Encoding: 370 370 111
Width: 1351
VWidth: 2586
GlyphClass: 2
Flags: W
HStem: -416 150<869 1020> -385 119<885 1022> -29 186<507 725> 1526 41G<160 362 993 1192>
VStem: 160 203<303 1567> 668 178<-246 -52> 993 199<304 1567>
LayerCount: 2
Back
Fore
SplineSet
1192 1567 m 1,0,-1
 1192 510 l 2,1,2
 1192 320 1192 320 1118.5 194 c 128,-1,3
 1045 68 1045 68 907 10 c 1,4,5
 882 -16 882 -16 864 -57.5 c 128,-1,6
 846 -99 846 -99 846 -147.5 c 0,7,8
 846 -196 846 -196 871.5 -231 c 128,-1,9
 897 -266 897 -266 952 -266 c 2,10,-1
 1022 -266 l 1,11,-1
 1022 -385 l 1,12,13
 941 -416 941 -416 892.5 -416 c 0,14,15
 844 -416 844 -416 808 -405.5 c 128,-1,16
 772 -395 772 -395 739.5 -372.5 c 128,-1,17
 707 -350 707 -350 687.5 -308 c 128,-1,18
 668 -266 668 -266 668 -209 c 0,19,20
 668 -108 668 -108 729 -27 c 1,21,22
 713 -29 713 -29 678 -29 c 0,23,24
 432 -29 432 -29 296 110 c 128,-1,25
 160 249 160 249 160 510 c 2,26,-1
 160 1567 l 1,27,-1
 362 1567 l 1,28,-1
 362 500 l 2,29,30
 362 335 362 335 445.5 246.5 c 128,-1,31
 529 158 529 158 678 158 c 128,-1,32
 827 158 827 158 910 246 c 128,-1,33
 993 334 993 334 993 500 c 2,34,-1
 993 1567 l 1,35,-1
 1192 1567 l 1,0,-1
EndSplineSet
Position2: "'cpsp' Capital Spacing lookup 0 subtable" dx=12 dy=0 dh=27 dv=0
EndChar

StartChar: Uring
Encoding: 366 366 112
Width: 1351
VWidth: 2586
GlyphClass: 2
Flags: W
HStem: -29 186<507 848> 1526 41G<160 362 993 1192> 1653 104<587 768> 1989 104<587 768>
VStem: 160 203<303 1567> 459 102<1783 1963> 795 102<1782 1962> 993 199<303 1567>
LayerCount: 2
Back
Fore
SplineSet
523 2028 m 128,-1,1
 587 2093 587 2093 677.5 2093 c 128,-1,2
 768 2093 768 2093 832.5 2027.5 c 128,-1,3
 897 1962 897 1962 897 1871.5 c 128,-1,4
 897 1781 897 1781 833 1717 c 128,-1,5
 769 1653 769 1653 678.5 1653 c 128,-1,6
 588 1653 588 1653 523.5 1716 c 128,-1,7
 459 1779 459 1779 459 1871 c 128,-1,0
 459 1963 459 1963 523 2028 c 128,-1,1
760 1955 m 128,-1,9
 725 1989 725 1989 676.5 1989 c 128,-1,10
 628 1989 628 1989 594.5 1955.5 c 128,-1,11
 561 1922 561 1922 561 1872.5 c 128,-1,12
 561 1823 561 1823 594.5 1790 c 128,-1,13
 628 1757 628 1757 676.5 1757 c 128,-1,14
 725 1757 725 1757 760 1790.5 c 128,-1,15
 795 1824 795 1824 795 1872.5 c 128,-1,8
 795 1921 795 1921 760 1955 c 128,-1,9
1192 510 m 2,16,17
 1192 249 1192 249 1057 110 c 128,-1,18
 922 -29 922 -29 677 -29 c 128,-1,19
 432 -29 432 -29 296 110 c 128,-1,20
 160 249 160 249 160 510 c 2,21,-1
 160 1567 l 1,22,-1
 362 1567 l 1,23,-1
 362 500 l 2,24,25
 362 335 362 335 445.5 246.5 c 128,-1,26
 529 158 529 158 678 158 c 128,-1,27
 827 158 827 158 910 246 c 128,-1,28
 993 334 993 334 993 500 c 2,29,-1
 993 1567 l 1,30,-1
 1192 1567 l 1,31,-1
 1192 510 l 2,16,17
EndSplineSet
Position2: "'cpsp' Capital Spacing lookup 0 subtable" dx=12 dy=0 dh=27 dv=0
EndChar

StartChar: Utilde
Encoding: 360 360 113
Width: 1351
VWidth: 2586
GlyphClass: 2
Flags: W
HStem: -29 186<507 848> 1526 41G<160 362 993 1192> 1782 168<660 871> 1851 168<485 696>
VStem: 160 203<303 1567> 344 131<1782 1842> 877 135<1958 2019> 993 199<303 1567>
LayerCount: 2
Back
Fore
SplineSet
673 1985.5 m 128,-1,1
 756 1950 756 1950 794.5 1950 c 128,-1,2
 833 1950 833 1950 853 1965 c 128,-1,3
 873 1980 873 1980 877 2019 c 1,4,-1
 1012 2019 l 1,5,6
 1012 1977 1012 1977 1000.5 1936.5 c 128,-1,7
 989 1896 989 1896 966.5 1861 c 128,-1,8
 944 1826 944 1826 905 1804 c 128,-1,9
 866 1782 866 1782 817 1782 c 128,-1,10
 768 1782 768 1782 683.5 1816.5 c 128,-1,11
 599 1851 599 1851 553 1851 c 0,12,13
 486 1851 486 1851 475 1782 c 1,14,-1
 344 1782 l 1,15,16
 344 1838 344 1838 363 1890 c 128,-1,17
 382 1942 382 1942 428.5 1980.5 c 128,-1,18
 475 2019 475 2019 532.5 2020 c 128,-1,0
 590 2021 590 2021 673 1985.5 c 128,-1,1
1192 510 m 2,19,20
 1192 249 1192 249 1057 110 c 128,-1,21
 922 -29 922 -29 677 -29 c 128,-1,22
 432 -29 432 -29 296 110 c 128,-1,23
 160 249 160 249 160 510 c 2,24,-1
 160 1567 l 1,25,-1
 362 1567 l 1,26,-1
 362 500 l 2,27,28
 362 335 362 335 445.5 246.5 c 128,-1,29
 529 158 529 158 678 158 c 128,-1,30
 827 158 827 158 910 246 c 128,-1,31
 993 334 993 334 993 500 c 2,32,-1
 993 1567 l 1,33,-1
 1192 1567 l 1,34,-1
 1192 510 l 2,19,20
EndSplineSet
Position2: "'cpsp' Capital Spacing lookup 0 subtable" dx=12 dy=0 dh=27 dv=0
EndChar

StartChar: V
Encoding: 86 86 114
Width: 1251
VWidth: 2586
GlyphClass: 2
Flags: W
HStem: 0 43G<483 768> 1526 41G<18 251 1024 1231>
LayerCount: 2
Back
Fore
SplineSet
18 1567 m 1,0,-1
 240 1567 l 1,1,-1
 629 223 l 1,2,-1
 1036 1567 l 1,3,-1
 1231 1567 l 1,4,-1
 756 0 l 1,5,-1
 496 0 l 1,6,-1
 18 1567 l 1,0,-1
EndSplineSet
Position2: "'cpsp' Capital Spacing lookup 0 subtable" dx=12 dy=0 dh=27 dv=0
EndChar

StartChar: W
Encoding: 87 87 115
Width: 1767
VWidth: 2586
GlyphClass: 2
Flags: W
HStem: 0 43G<376 654 1115 1394> 1526 41G<23 244 747 1039 1556 1747>
AnchorPoint: "Anchor-1" 0 0 basechar 0
AnchorPoint: "Anchor-0" 885 1567 basechar 0
LayerCount: 2
Back
Fore
SplineSet
876 1375 m 1,0,-1
 647 0 l 1,1,-1
 385 0 l 1,2,-1
 23 1567 l 1,3,-1
 236 1567 l 1,4,-1
 526 211 l 1,5,-1
 754 1567 l 1,6,-1
 1032 1567 l 1,7,-1
 1265 211 l 1,8,-1
 1565 1567 l 1,9,-1
 1747 1567 l 1,10,-1
 1384 0 l 1,11,-1
 1122 0 l 1,12,-1
 876 1375 l 1,0,-1
EndSplineSet
Position2: "'cpsp' Capital Spacing lookup 0 subtable" dx=12 dy=0 dh=27 dv=0
EndChar

StartChar: Wacute
Encoding: 7810 7810 116
Width: 1767
VWidth: 2586
GlyphClass: 2
Flags: W
HStem: 0 43G<376 654 1115 1394> 1526 41G<23 244 747 1039 1556 1747>
LayerCount: 2
Back
Fore
SplineSet
907 1718 m 1,0,-1
 750 1718 l 1,1,-1
 946 2019 l 1,2,-1
 1151 2019 l 1,3,-1
 907 1718 l 1,0,-1
1122 0 m 1,4,-1
 891 1374 l 1,5,-1
 647 0 l 1,6,-1
 385 0 l 1,7,-1
 23 1567 l 1,8,-1
 236 1567 l 1,9,-1
 526 211 l 1,10,-1
 754 1567 l 1,11,-1
 1032 1567 l 1,12,-1
 1265 211 l 1,13,-1
 1565 1567 l 1,14,-1
 1747 1567 l 1,15,-1
 1384 0 l 1,16,-1
 1122 0 l 1,4,-1
EndSplineSet
Position2: "'cpsp' Capital Spacing lookup 0 subtable" dx=12 dy=0 dh=27 dv=0
EndChar

StartChar: Wcircumflex
Encoding: 372 372 117
Width: 1767
VWidth: 2586
GlyphClass: 2
Flags: W
HStem: 0 43G<376 654 1115 1394> 1526 41G<23 244 747 1039 1556 1747>
LayerCount: 2
Back
Fore
SplineSet
887 1888 m 1,0,-1
 784 1708 l 1,1,-1
 600 1708 l 1,2,-1
 799 2017 l 1,3,-1
 975 2017 l 1,4,-1
 1171 1708 l 1,5,-1
 987 1708 l 1,6,-1
 887 1888 l 1,0,-1
876 1375 m 1,7,-1
 647 0 l 1,8,-1
 385 0 l 1,9,-1
 23 1567 l 1,10,-1
 236 1567 l 1,11,-1
 526 211 l 1,12,-1
 754 1567 l 1,13,-1
 1032 1567 l 1,14,-1
 1265 211 l 1,15,-1
 1565 1567 l 1,16,-1
 1747 1567 l 1,17,-1
 1384 0 l 1,18,-1
 1122 0 l 1,19,-1
 876 1375 l 1,7,-1
EndSplineSet
Position2: "'cpsp' Capital Spacing lookup 0 subtable" dx=12 dy=0 dh=27 dv=0
EndChar

StartChar: Wdieresis
Encoding: 7812 7812 118
Width: 1767
VWidth: 2586
GlyphClass: 2
Flags: W
HStem: 0 43G<376 654 1115 1394> 1526 41G<23 244 747 1039 1556 1747> 1802 217<616 813 956 1157>
VStem: 616 197<1802 2019> 956 201<1802 2019>
LayerCount: 2
Back
Fore
SplineSet
616 1802 m 1,0,-1
 616 2019 l 1,1,-1
 813 2019 l 1,2,-1
 813 1802 l 1,3,-1
 616 1802 l 1,0,-1
956 1802 m 1,4,-1
 956 2019 l 1,5,-1
 1157 2019 l 1,6,-1
 1157 1802 l 1,7,-1
 956 1802 l 1,4,-1
1122 0 m 1,8,-1
 891 1374 l 1,9,-1
 647 0 l 1,10,-1
 385 0 l 1,11,-1
 23 1567 l 1,12,-1
 236 1567 l 1,13,-1
 526 211 l 1,14,-1
 754 1567 l 1,15,-1
 1032 1567 l 1,16,-1
 1265 211 l 1,17,-1
 1565 1567 l 1,18,-1
 1747 1567 l 1,19,-1
 1384 0 l 1,20,-1
 1122 0 l 1,8,-1
EndSplineSet
Position2: "'cpsp' Capital Spacing lookup 0 subtable" dx=12 dy=0 dh=27 dv=0
EndChar

StartChar: Wgrave
Encoding: 7808 7808 119
Width: 1767
VWidth: 2586
GlyphClass: 2
Flags: W
HStem: 0 43G<376 654 1115 1394> 1526 41G<23 244 747 1039 1556 1747>
LayerCount: 2
Back
Fore
SplineSet
864 1718 m 1,0,-1
 615 2017 l 1,1,-1
 825 2017 l 1,2,-1
 1022 1718 l 1,3,-1
 864 1718 l 1,0,-1
1122 0 m 1,4,-1
 891 1374 l 1,5,-1
 647 0 l 1,6,-1
 385 0 l 1,7,-1
 23 1567 l 1,8,-1
 236 1567 l 1,9,-1
 526 211 l 1,10,-1
 754 1567 l 1,11,-1
 1032 1567 l 1,12,-1
 1265 211 l 1,13,-1
 1565 1567 l 1,14,-1
 1747 1567 l 1,15,-1
 1384 0 l 1,16,-1
 1122 0 l 1,4,-1
EndSplineSet
Position2: "'cpsp' Capital Spacing lookup 0 subtable" dx=12 dy=0 dh=27 dv=0
EndChar

StartChar: X
Encoding: 88 88 120
Width: 1251
VWidth: 2586
GlyphClass: 2
Flags: W
HStem: 0 43G<10 250 979 1241> 1526 41G<55 318 950 1192>
LayerCount: 2
Back
Fore
SplineSet
1004 0 m 1,0,-1
 618 641 l 1,1,-1
 225 0 l 1,2,-1
 10 0 l 1,3,-1
 510 815 l 1,4,-1
 55 1567 l 1,5,-1
 293 1567 l 1,6,-1
 631 1010 l 1,7,-1
 975 1567 l 1,8,-1
 1192 1567 l 1,9,-1
 737 834 l 1,10,-1
 1241 0 l 1,11,-1
 1004 0 l 1,0,-1
EndSplineSet
Position2: "'cpsp' Capital Spacing lookup 0 subtable" dx=12 dy=0 dh=27 dv=0
EndChar

StartChar: Y
Encoding: 89 89 121
Width: 1251
VWidth: 2586
GlyphClass: 2
Flags: W
HStem: 0 43G<524 727> 1526 41G<18 262 1014 1231>
VStem: 524 203<0 649>
AnchorPoint: "Anchor-1" 0 0 basechar 0
AnchorPoint: "Anchor-0" 627 1567 basechar 0
LayerCount: 2
Back
Fore
SplineSet
524 0 m 1,0,-1
 524 649 l 1,1,-1
 18 1567 l 1,2,-1
 240 1567 l 1,3,-1
 639 840 l 1,4,-1
 1036 1567 l 1,5,-1
 1231 1567 l 1,6,-1
 727 649 l 1,7,-1
 727 0 l 1,8,-1
 524 0 l 1,0,-1
EndSplineSet
Position2: "'cpsp' Capital Spacing lookup 0 subtable" dx=12 dy=0 dh=27 dv=0
EndChar

StartChar: Yacute
Encoding: 221 221 122
Width: 1251
VWidth: 2586
GlyphClass: 2
Flags: W
HStem: 0 43G<524 727> 1526 41G<18 262 1014 1231>
VStem: 524 203<0 649>
LayerCount: 2
Back
Fore
SplineSet
647 1718 m 1,0,-1
 489 1718 l 1,1,-1
 686 2019 l 1,2,-1
 893 2019 l 1,3,-1
 647 1718 l 1,0,-1
727 0 m 1,4,-1
 524 0 l 1,5,-1
 524 649 l 1,6,-1
 18 1567 l 1,7,-1
 240 1567 l 1,8,-1
 639 840 l 1,9,-1
 1036 1567 l 1,10,-1
 1231 1567 l 1,11,-1
 727 649 l 1,12,-1
 727 0 l 1,4,-1
EndSplineSet
Position2: "'cpsp' Capital Spacing lookup 0 subtable" dx=12 dy=0 dh=27 dv=0
EndChar

StartChar: Ycircumflex
Encoding: 374 374 123
Width: 1251
VWidth: 2586
GlyphClass: 2
Flags: W
HStem: 0 43G<524 727> 1526 41G<18 262 1014 1231>
VStem: 524 203<0 649>
LayerCount: 2
Back
Fore
SplineSet
627 1888 m 1,0,-1
 522 1708 l 1,1,-1
 342 1708 l 1,2,-1
 539 2017 l 1,3,-1
 717 2017 l 1,4,-1
 911 1708 l 1,5,-1
 727 1708 l 1,6,-1
 627 1888 l 1,0,-1
524 0 m 1,7,-1
 524 649 l 1,8,-1
 18 1567 l 1,9,-1
 240 1567 l 1,10,-1
 639 840 l 1,11,-1
 1036 1567 l 1,12,-1
 1231 1567 l 1,13,-1
 727 649 l 1,14,-1
 727 0 l 1,15,-1
 524 0 l 1,7,-1
EndSplineSet
Position2: "'cpsp' Capital Spacing lookup 0 subtable" dx=12 dy=0 dh=27 dv=0
EndChar

StartChar: Ydieresis
Encoding: 376 376 124
Width: 1251
VWidth: 2586
GlyphClass: 2
Flags: W
HStem: 0 43G<524 727> 1526 41G<18 262 1014 1231> 1802 217<354 553 698 897>
VStem: 354 199<1802 2019> 524 203<0 649> 698 199<1802 2019>
LayerCount: 2
Back
Fore
SplineSet
354 1802 m 1,0,-1
 354 2019 l 1,1,-1
 553 2019 l 1,2,-1
 553 1802 l 1,3,-1
 354 1802 l 1,0,-1
698 1802 m 1,4,-1
 698 2019 l 1,5,-1
 897 2019 l 1,6,-1
 897 1802 l 1,7,-1
 698 1802 l 1,4,-1
727 0 m 1,8,-1
 524 0 l 1,9,-1
 524 649 l 1,10,-1
 18 1567 l 1,11,-1
 240 1567 l 1,12,-1
 639 840 l 1,13,-1
 1036 1567 l 1,14,-1
 1231 1567 l 1,15,-1
 727 649 l 1,16,-1
 727 0 l 1,8,-1
EndSplineSet
Position2: "'cpsp' Capital Spacing lookup 0 subtable" dx=12 dy=0 dh=27 dv=0
EndChar

StartChar: Ygrave
Encoding: 7922 7922 125
Width: 1251
VWidth: 2586
GlyphClass: 2
Flags: W
HStem: 0 43G<524 727> 1526 41G<18 262 1014 1231>
VStem: 524 203<0 649>
LayerCount: 2
Back
Fore
SplineSet
602 1718 m 1,0,-1
 353 2017 l 1,1,-1
 563 2017 l 1,2,-1
 760 1718 l 1,3,-1
 602 1718 l 1,0,-1
727 0 m 1,4,-1
 524 0 l 1,5,-1
 524 649 l 1,6,-1
 18 1567 l 1,7,-1
 240 1567 l 1,8,-1
 639 840 l 1,9,-1
 1036 1567 l 1,10,-1
 1231 1567 l 1,11,-1
 727 649 l 1,12,-1
 727 0 l 1,4,-1
EndSplineSet
Position2: "'cpsp' Capital Spacing lookup 0 subtable" dx=12 dy=0 dh=27 dv=0
EndChar

StartChar: Z
Encoding: 90 90 126
Width: 1144
VWidth: 2586
GlyphClass: 2
Flags: W
HStem: 0 184<332 1094> 1386 180<92 791>
AnchorPoint: "Anchor-1" 0 0 basechar 0
AnchorPoint: "Anchor-0" 573 1567 basechar 0
LayerCount: 2
Back
Fore
SplineSet
1094 184 m 1,0,-1
 1094 0 l 1,1,-1
 47 0 l 1,2,-1
 47 88 l 1,3,-1
 791 1386 l 1,4,-1
 92 1386 l 1,5,-1
 92 1567 l 1,6,-1
 1079 1567 l 1,7,-1
 1079 1483 l 1,8,-1
 332 184 l 1,9,-1
 1094 184 l 1,0,-1
EndSplineSet
Position2: "'cpsp' Capital Spacing lookup 0 subtable" dx=12 dy=0 dh=27 dv=0
EndChar

StartChar: Zacute
Encoding: 377 377 127
Width: 1144
VWidth: 2586
GlyphClass: 2
Flags: W
HStem: 0 184<332 1094> 1386 180<92 791>
LayerCount: 2
Back
Fore
SplineSet
594 1718 m 1,0,-1
 436 1718 l 1,1,-1
 633 2019 l 1,2,-1
 838 2019 l 1,3,-1
 594 1718 l 1,0,-1
1094 184 m 1,4,-1
 1094 0 l 1,5,-1
 47 0 l 1,6,-1
 47 88 l 1,7,-1
 791 1386 l 1,8,-1
 92 1386 l 1,9,-1
 92 1567 l 1,10,-1
 1079 1567 l 1,11,-1
 1079 1483 l 1,12,-1
 332 184 l 1,13,-1
 1094 184 l 1,4,-1
EndSplineSet
Position2: "'cpsp' Capital Spacing lookup 0 subtable" dx=12 dy=0 dh=27 dv=0
EndChar

StartChar: Zcaron
Encoding: 381 381 128
Width: 1144
VWidth: 2586
GlyphClass: 2
Flags: W
HStem: 0 184<332 1094> 1386 180<92 791>
LayerCount: 2
Back
Fore
SplineSet
483 1710 m 1,0,-1
 287 2019 l 1,1,-1
 471 2019 l 1,2,-1
 571 1839 l 1,3,-1
 676 2019 l 1,4,-1
 856 2019 l 1,5,-1
 659 1710 l 1,6,-1
 483 1710 l 1,0,-1
1094 184 m 1,7,-1
 1094 0 l 1,8,-1
 47 0 l 1,9,-1
 47 88 l 1,10,-1
 791 1386 l 1,11,-1
 92 1386 l 1,12,-1
 92 1567 l 1,13,-1
 1079 1567 l 1,14,-1
 1079 1483 l 1,15,-1
 332 184 l 1,16,-1
 1094 184 l 1,7,-1
EndSplineSet
Position2: "'cpsp' Capital Spacing lookup 0 subtable" dx=12 dy=0 dh=27 dv=0
EndChar

StartChar: Zdotaccent
Encoding: 379 379 129
Width: 1144
VWidth: 2586
GlyphClass: 2
Flags: W
HStem: 0 184<332 1094> 1386 180<92 791> 1802 217<473 672>
VStem: 473 199<1802 2019>
LayerCount: 2
Back
Fore
SplineSet
473 1802 m 1,0,-1
 473 2019 l 1,1,-1
 672 2019 l 1,2,-1
 672 1802 l 1,3,-1
 473 1802 l 1,0,-1
1094 184 m 1,4,-1
 1094 0 l 1,5,-1
 47 0 l 1,6,-1
 47 88 l 1,7,-1
 791 1386 l 1,8,-1
 92 1386 l 1,9,-1
 92 1567 l 1,10,-1
 1079 1567 l 1,11,-1
 1079 1483 l 1,12,-1
 332 184 l 1,13,-1
 1094 184 l 1,4,-1
EndSplineSet
Position2: "'cpsp' Capital Spacing lookup 0 subtable" dx=12 dy=0 dh=27 dv=0
EndChar

StartChar: a
Encoding: 97 97 130
Width: 1040
VWidth: 2586
GlyphClass: 2
Flags: W
HStem: -29 168<313 569 882 1011> 10 129<890 1012> 545 170<390 686> 1063 168<369 637>
VStem: 78 197<180 451> 125 186<846 1008> 686 188<261 545 715 1013>
AnchorPoint: "Anchor-1" 0 0 basechar 0
AnchorPoint: "Anchor-0" 522 1202 basechar 0
LayerCount: 2
Back
Fore
SplineSet
231 1143.5 m 128,-1,1
 337 1231 337 1231 514 1231 c 128,-1,2
 691 1231 691 1231 782.5 1144 c 128,-1,3
 874 1057 874 1057 874 895 c 2,4,-1
 874 219 l 2,5,6
 874 179 874 179 892 159 c 128,-1,7
 910 139 910 139 936 139 c 2,8,-1
 1012 139 l 1,9,-1
 1012 10 l 1,10,11
 965 -18 965 -18 889.5 -18 c 128,-1,12
 814 -18 814 -18 763.5 22 c 128,-1,13
 713 62 713 62 698 129 c 1,14,15
 652 56 652 56 570 13.5 c 128,-1,16
 488 -29 488 -29 393 -29 c 0,17,18
 352 -29 352 -29 314 -22 c 128,-1,19
 276 -15 276 -15 231.5 7.5 c 128,-1,20
 187 30 187 30 154.5 66 c 128,-1,21
 122 102 122 102 100 165 c 128,-1,22
 78 228 78 228 78 318 c 128,-1,23
 78 408 78 408 108.5 480 c 128,-1,24
 139 552 139 552 190.5 596.5 c 128,-1,25
 242 641 242 641 321.5 668 c 128,-1,26
 401 695 401 695 487.5 705 c 128,-1,27
 574 715 574 715 686 715 c 1,28,-1
 686 868 l 2,29,30
 686 963 686 963 645 1013 c 128,-1,31
 604 1063 604 1063 501.5 1063 c 128,-1,32
 399 1063 399 1063 355 1007.5 c 128,-1,33
 311 952 311 952 311 874 c 2,34,-1
 311 846 l 1,35,-1
 127 846 l 1,36,37
 125 858 125 858 125 897 c 0,38,0
 125 1056 125 1056 231 1143.5 c 128,-1,1
686 545 m 1,39,40
 607 545 607 545 548.5 540 c 128,-1,41
 490 535 490 535 436 520.5 c 128,-1,42
 382 506 382 506 348 482 c 128,-1,43
 314 458 314 458 294 418.5 c 128,-1,44
 274 379 274 379 274 301.5 c 128,-1,45
 274 224 274 224 314 181.5 c 128,-1,46
 354 139 354 139 444 139 c 128,-1,47
 534 139 534 139 610 217.5 c 128,-1,48
 686 296 686 296 686 436 c 2,49,-1
 686 545 l 1,39,40
EndSplineSet
Substitution2: "Single Substitution lookup 40 subtable" ordfeminine
Substitution2: "'aalt' Access All Alternates lookup 0 subtable" ordfeminine
EndChar

StartChar: aacute
Encoding: 225 225 131
Width: 1040
VWidth: 2586
GlyphClass: 2
Flags: W
HStem: -29 168<313 569 882 1011> 10 129<890 1012> 545 170<390 686> 1063 168<369 637> 1612 41G<545 778>
VStem: 78 197<180 451> 125 186<846 1008> 686 188<261 545 715 1013>
LayerCount: 2
Back
Fore
SplineSet
532 1350 m 1,0,-1
 375 1350 l 1,1,-1
 571 1653 l 1,2,-1
 778 1653 l 1,3,-1
 532 1350 l 1,0,-1
231 1143.5 m 128,-1,5
 337 1231 337 1231 514 1231 c 128,-1,6
 691 1231 691 1231 782.5 1144 c 128,-1,7
 874 1057 874 1057 874 895 c 2,8,-1
 874 219 l 2,9,10
 874 179 874 179 892 159 c 128,-1,11
 910 139 910 139 936 139 c 2,12,-1
 1012 139 l 1,13,-1
 1012 10 l 1,14,15
 965 -18 965 -18 889.5 -18 c 128,-1,16
 814 -18 814 -18 763.5 22 c 128,-1,17
 713 62 713 62 698 129 c 1,18,19
 652 56 652 56 570 13.5 c 128,-1,20
 488 -29 488 -29 393 -29 c 0,21,22
 352 -29 352 -29 314 -22 c 128,-1,23
 276 -15 276 -15 231.5 7.5 c 128,-1,24
 187 30 187 30 154.5 66 c 128,-1,25
 122 102 122 102 100 165 c 128,-1,26
 78 228 78 228 78 318 c 128,-1,27
 78 408 78 408 108.5 480 c 128,-1,28
 139 552 139 552 190.5 596.5 c 128,-1,29
 242 641 242 641 321.5 668 c 128,-1,30
 401 695 401 695 487.5 705 c 128,-1,31
 574 715 574 715 686 715 c 1,32,-1
 686 868 l 2,33,34
 686 963 686 963 645 1013 c 128,-1,35
 604 1063 604 1063 501.5 1063 c 128,-1,36
 399 1063 399 1063 355 1007.5 c 128,-1,37
 311 952 311 952 311 874 c 2,38,-1
 311 846 l 1,39,-1
 127 846 l 1,40,41
 125 858 125 858 125 897 c 0,42,4
 125 1056 125 1056 231 1143.5 c 128,-1,5
686 545 m 1,43,44
 607 545 607 545 548.5 540 c 128,-1,45
 490 535 490 535 436 520.5 c 128,-1,46
 382 506 382 506 348 482 c 128,-1,47
 314 458 314 458 294 418.5 c 128,-1,48
 274 379 274 379 274 301.5 c 128,-1,49
 274 224 274 224 314 181.5 c 128,-1,50
 354 139 354 139 444 139 c 128,-1,51
 534 139 534 139 610 217.5 c 128,-1,52
 686 296 686 296 686 436 c 2,53,-1
 686 545 l 1,43,44
EndSplineSet
EndChar

StartChar: abreve
Encoding: 259 259 132
Width: 1040
VWidth: 2586
GlyphClass: 2
Flags: W
HStem: -29 168<313 569 882 1011> 10 129<890 1012> 545 170<390 686> 1063 168<369 637> 1430 147<407 641> 1612 41G<238 389 656 805>
VStem: 78 197<180 451> 125 186<846 1008> 238 147<1603 1653> 659 145<1603 1653> 686 188<261 545 715 1013>
LayerCount: 2
Back
Fore
SplineSet
805 1653 m 1,0,1
 805 1569 805 1569 726 1499.5 c 128,-1,2
 647 1430 647 1430 522 1430 c 128,-1,3
 397 1430 397 1430 317.5 1499.5 c 128,-1,4
 238 1569 238 1569 238 1653 c 1,5,-1
 385 1653 l 1,6,7
 392 1626 392 1626 429.5 1601.5 c 128,-1,8
 467 1577 467 1577 521.5 1577 c 128,-1,9
 576 1577 576 1577 615 1602 c 128,-1,10
 654 1627 654 1627 659 1653 c 1,11,-1
 805 1653 l 1,0,1
231 1143.5 m 128,-1,13
 337 1231 337 1231 514 1231 c 128,-1,14
 691 1231 691 1231 782.5 1144 c 128,-1,15
 874 1057 874 1057 874 895 c 2,16,-1
 874 219 l 2,17,18
 874 179 874 179 892 159 c 128,-1,19
 910 139 910 139 936 139 c 2,20,-1
 1012 139 l 1,21,-1
 1012 10 l 1,22,23
 965 -18 965 -18 889.5 -18 c 128,-1,24
 814 -18 814 -18 763.5 22 c 128,-1,25
 713 62 713 62 698 129 c 1,26,27
 652 56 652 56 570 13.5 c 128,-1,28
 488 -29 488 -29 393 -29 c 0,29,30
 352 -29 352 -29 314 -22 c 128,-1,31
 276 -15 276 -15 231.5 7.5 c 128,-1,32
 187 30 187 30 154.5 66 c 128,-1,33
 122 102 122 102 100 165 c 128,-1,34
 78 228 78 228 78 318 c 128,-1,35
 78 408 78 408 108.5 480 c 128,-1,36
 139 552 139 552 190.5 596.5 c 128,-1,37
 242 641 242 641 321.5 668 c 128,-1,38
 401 695 401 695 487.5 705 c 128,-1,39
 574 715 574 715 686 715 c 1,40,-1
 686 868 l 2,41,42
 686 963 686 963 645 1013 c 128,-1,43
 604 1063 604 1063 501.5 1063 c 128,-1,44
 399 1063 399 1063 355 1007.5 c 128,-1,45
 311 952 311 952 311 874 c 2,46,-1
 311 846 l 1,47,-1
 127 846 l 1,48,49
 125 858 125 858 125 897 c 0,50,12
 125 1056 125 1056 231 1143.5 c 128,-1,13
686 545 m 1,51,52
 607 545 607 545 548.5 540 c 128,-1,53
 490 535 490 535 436 520.5 c 128,-1,54
 382 506 382 506 348 482 c 128,-1,55
 314 458 314 458 294 418.5 c 128,-1,56
 274 379 274 379 274 301.5 c 128,-1,57
 274 224 274 224 314 181.5 c 128,-1,58
 354 139 354 139 444 139 c 128,-1,59
 534 139 534 139 610 217.5 c 128,-1,60
 686 296 686 296 686 436 c 2,61,-1
 686 545 l 1,51,52
EndSplineSet
EndChar

StartChar: acircumflex
Encoding: 226 226 133
Width: 1040
VWidth: 2586
GlyphClass: 2
Flags: W
HStem: -29 168<313 569 882 1011> 10 129<890 1012> 545 170<390 686> 1063 168<369 637>
VStem: 78 197<180 451> 125 186<846 1008> 686 188<261 545 715 1013>
LayerCount: 2
Back
Fore
SplineSet
522 1524 m 1,0,-1
 422 1341 l 1,1,-1
 238 1341 l 1,2,-1
 432 1651 l 1,3,-1
 612 1651 l 1,4,-1
 807 1341 l 1,5,-1
 623 1341 l 1,6,-1
 522 1524 l 1,0,-1
231 1143.5 m 128,-1,8
 337 1231 337 1231 514 1231 c 128,-1,9
 691 1231 691 1231 782.5 1144 c 128,-1,10
 874 1057 874 1057 874 895 c 2,11,-1
 874 219 l 2,12,13
 874 179 874 179 892 159 c 128,-1,14
 910 139 910 139 936 139 c 2,15,-1
 1012 139 l 1,16,-1
 1012 10 l 1,17,18
 965 -18 965 -18 889.5 -18 c 128,-1,19
 814 -18 814 -18 763.5 22 c 128,-1,20
 713 62 713 62 698 129 c 1,21,22
 652 56 652 56 570 13.5 c 128,-1,23
 488 -29 488 -29 393 -29 c 0,24,25
 352 -29 352 -29 314 -22 c 128,-1,26
 276 -15 276 -15 231.5 7.5 c 128,-1,27
 187 30 187 30 154.5 66 c 128,-1,28
 122 102 122 102 100 165 c 128,-1,29
 78 228 78 228 78 318 c 128,-1,30
 78 408 78 408 108.5 480 c 128,-1,31
 139 552 139 552 190.5 596.5 c 128,-1,32
 242 641 242 641 321.5 668 c 128,-1,33
 401 695 401 695 487.5 705 c 128,-1,34
 574 715 574 715 686 715 c 1,35,-1
 686 868 l 2,36,37
 686 963 686 963 645 1013 c 128,-1,38
 604 1063 604 1063 501.5 1063 c 128,-1,39
 399 1063 399 1063 355 1007.5 c 128,-1,40
 311 952 311 952 311 874 c 2,41,-1
 311 846 l 1,42,-1
 127 846 l 1,43,44
 125 858 125 858 125 897 c 0,45,7
 125 1056 125 1056 231 1143.5 c 128,-1,8
686 545 m 1,46,47
 607 545 607 545 548.5 540 c 128,-1,48
 490 535 490 535 436 520.5 c 128,-1,49
 382 506 382 506 348 482 c 128,-1,50
 314 458 314 458 294 418.5 c 128,-1,51
 274 379 274 379 274 301.5 c 128,-1,52
 274 224 274 224 314 181.5 c 128,-1,53
 354 139 354 139 444 139 c 128,-1,54
 534 139 534 139 610 217.5 c 128,-1,55
 686 296 686 296 686 436 c 2,56,-1
 686 545 l 1,46,47
EndSplineSet
EndChar

StartChar: adieresis
Encoding: 228 228 134
Width: 1040
VWidth: 2586
GlyphClass: 2
Flags: W
HStem: -29 168<313 569 882 1011> 10 129<890 1012> 545 170<390 686> 1063 168<369 637> 1436 217<248 446 592 795>
VStem: 78 197<180 451> 125 186<846 1008> 248 199<1436 1653> 592 203<1436 1653> 686 188<261 545 715 1013>
LayerCount: 2
Back
Fore
SplineSet
248 1436 m 1,0,-1
 248 1653 l 1,1,-1
 446 1653 l 1,2,-1
 446 1436 l 1,3,-1
 248 1436 l 1,0,-1
592 1436 m 1,4,-1
 592 1653 l 1,5,-1
 795 1653 l 1,6,-1
 795 1436 l 1,7,-1
 592 1436 l 1,4,-1
231 1143.5 m 128,-1,9
 337 1231 337 1231 514 1231 c 128,-1,10
 691 1231 691 1231 782.5 1144 c 128,-1,11
 874 1057 874 1057 874 895 c 2,12,-1
 874 219 l 2,13,14
 874 179 874 179 892 159 c 128,-1,15
 910 139 910 139 936 139 c 2,16,-1
 1012 139 l 1,17,-1
 1012 10 l 1,18,19
 965 -18 965 -18 889.5 -18 c 128,-1,20
 814 -18 814 -18 763.5 22 c 128,-1,21
 713 62 713 62 698 129 c 1,22,23
 652 56 652 56 570 13.5 c 128,-1,24
 488 -29 488 -29 393 -29 c 0,25,26
 352 -29 352 -29 314 -22 c 128,-1,27
 276 -15 276 -15 231.5 7.5 c 128,-1,28
 187 30 187 30 154.5 66 c 128,-1,29
 122 102 122 102 100 165 c 128,-1,30
 78 228 78 228 78 318 c 128,-1,31
 78 408 78 408 108.5 480 c 128,-1,32
 139 552 139 552 190.5 596.5 c 128,-1,33
 242 641 242 641 321.5 668 c 128,-1,34
 401 695 401 695 487.5 705 c 128,-1,35
 574 715 574 715 686 715 c 1,36,-1
 686 868 l 2,37,38
 686 963 686 963 645 1013 c 128,-1,39
 604 1063 604 1063 501.5 1063 c 128,-1,40
 399 1063 399 1063 355 1007.5 c 128,-1,41
 311 952 311 952 311 874 c 2,42,-1
 311 846 l 1,43,-1
 127 846 l 1,44,45
 125 858 125 858 125 897 c 0,46,8
 125 1056 125 1056 231 1143.5 c 128,-1,9
686 545 m 1,47,48
 607 545 607 545 548.5 540 c 128,-1,49
 490 535 490 535 436 520.5 c 128,-1,50
 382 506 382 506 348 482 c 128,-1,51
 314 458 314 458 294 418.5 c 128,-1,52
 274 379 274 379 274 301.5 c 128,-1,53
 274 224 274 224 314 181.5 c 128,-1,54
 354 139 354 139 444 139 c 128,-1,55
 534 139 534 139 610 217.5 c 128,-1,56
 686 296 686 296 686 436 c 2,57,-1
 686 545 l 1,47,48
EndSplineSet
EndChar

StartChar: agrave
Encoding: 224 224 135
Width: 1040
VWidth: 2586
GlyphClass: 2
Flags: W
HStem: -29 168<313 569 882 1011> 10 129<890 1012> 545 170<390 686> 1063 168<369 637>
VStem: 78 197<180 451> 125 186<846 1008> 686 188<261 545 715 1013>
LayerCount: 2
Back
Fore
SplineSet
489 1350 m 1,0,-1
 240 1649 l 1,1,-1
 451 1649 l 1,2,-1
 647 1350 l 1,3,-1
 489 1350 l 1,0,-1
231 1143.5 m 128,-1,5
 337 1231 337 1231 514 1231 c 128,-1,6
 691 1231 691 1231 782.5 1144 c 128,-1,7
 874 1057 874 1057 874 895 c 2,8,-1
 874 219 l 2,9,10
 874 179 874 179 892 159 c 128,-1,11
 910 139 910 139 936 139 c 2,12,-1
 1012 139 l 1,13,-1
 1012 10 l 1,14,15
 965 -18 965 -18 889.5 -18 c 128,-1,16
 814 -18 814 -18 763.5 22 c 128,-1,17
 713 62 713 62 698 129 c 1,18,19
 652 56 652 56 570 13.5 c 128,-1,20
 488 -29 488 -29 393 -29 c 0,21,22
 352 -29 352 -29 314 -22 c 128,-1,23
 276 -15 276 -15 231.5 7.5 c 128,-1,24
 187 30 187 30 154.5 66 c 128,-1,25
 122 102 122 102 100 165 c 128,-1,26
 78 228 78 228 78 318 c 128,-1,27
 78 408 78 408 108.5 480 c 128,-1,28
 139 552 139 552 190.5 596.5 c 128,-1,29
 242 641 242 641 321.5 668 c 128,-1,30
 401 695 401 695 487.5 705 c 128,-1,31
 574 715 574 715 686 715 c 1,32,-1
 686 868 l 2,33,34
 686 963 686 963 645 1013 c 128,-1,35
 604 1063 604 1063 501.5 1063 c 128,-1,36
 399 1063 399 1063 355 1007.5 c 128,-1,37
 311 952 311 952 311 874 c 2,38,-1
 311 846 l 1,39,-1
 127 846 l 1,40,41
 125 858 125 858 125 897 c 0,42,4
 125 1056 125 1056 231 1143.5 c 128,-1,5
686 545 m 1,43,44
 607 545 607 545 548.5 540 c 128,-1,45
 490 535 490 535 436 520.5 c 128,-1,46
 382 506 382 506 348 482 c 128,-1,47
 314 458 314 458 294 418.5 c 128,-1,48
 274 379 274 379 274 301.5 c 128,-1,49
 274 224 274 224 314 181.5 c 128,-1,50
 354 139 354 139 444 139 c 128,-1,51
 534 139 534 139 610 217.5 c 128,-1,52
 686 296 686 296 686 436 c 2,53,-1
 686 545 l 1,43,44
EndSplineSet
EndChar

StartChar: amacron
Encoding: 257 257 136
Width: 1040
VWidth: 2586
GlyphClass: 2
Flags: W
HStem: -29 168<313 569 882 1011> 10 129<890 1012> 545 170<390 686> 1063 168<369 637> 1370 164<236 809>
VStem: 78 197<180 451> 125 186<846 1008> 686 188<261 545 715 1013>
LayerCount: 2
Back
Fore
SplineSet
236 1534 m 1,0,-1
 809 1534 l 1,1,-1
 809 1370 l 1,2,-1
 236 1370 l 1,3,-1
 236 1534 l 1,0,-1
231 1143.5 m 128,-1,5
 337 1231 337 1231 514 1231 c 128,-1,6
 691 1231 691 1231 782.5 1144 c 128,-1,7
 874 1057 874 1057 874 895 c 2,8,-1
 874 219 l 2,9,10
 874 179 874 179 892 159 c 128,-1,11
 910 139 910 139 936 139 c 2,12,-1
 1012 139 l 1,13,-1
 1012 10 l 1,14,15
 965 -18 965 -18 889.5 -18 c 128,-1,16
 814 -18 814 -18 763.5 22 c 128,-1,17
 713 62 713 62 698 129 c 1,18,19
 652 56 652 56 570 13.5 c 128,-1,20
 488 -29 488 -29 393 -29 c 0,21,22
 352 -29 352 -29 314 -22 c 128,-1,23
 276 -15 276 -15 231.5 7.5 c 128,-1,24
 187 30 187 30 154.5 66 c 128,-1,25
 122 102 122 102 100 165 c 128,-1,26
 78 228 78 228 78 318 c 128,-1,27
 78 408 78 408 108.5 480 c 128,-1,28
 139 552 139 552 190.5 596.5 c 128,-1,29
 242 641 242 641 321.5 668 c 128,-1,30
 401 695 401 695 487.5 705 c 128,-1,31
 574 715 574 715 686 715 c 1,32,-1
 686 868 l 2,33,34
 686 963 686 963 645 1013 c 128,-1,35
 604 1063 604 1063 501.5 1063 c 128,-1,36
 399 1063 399 1063 355 1007.5 c 128,-1,37
 311 952 311 952 311 874 c 2,38,-1
 311 846 l 1,39,-1
 127 846 l 1,40,41
 125 858 125 858 125 897 c 0,42,4
 125 1056 125 1056 231 1143.5 c 128,-1,5
686 545 m 1,43,44
 607 545 607 545 548.5 540 c 128,-1,45
 490 535 490 535 436 520.5 c 128,-1,46
 382 506 382 506 348 482 c 128,-1,47
 314 458 314 458 294 418.5 c 128,-1,48
 274 379 274 379 274 301.5 c 128,-1,49
 274 224 274 224 314 181.5 c 128,-1,50
 354 139 354 139 444 139 c 128,-1,51
 534 139 534 139 610 217.5 c 128,-1,52
 686 296 686 296 686 436 c 2,53,-1
 686 545 l 1,43,44
EndSplineSet
EndChar

StartChar: aogonek
Encoding: 261 261 137
Width: 1040
VWidth: 2586
GlyphClass: 2
Flags: W
HStem: -416 150<973 1126> -385 119<989 1128> -29 168<313 569> 545 170<390 686> 1063 168<369 637>
VStem: 78 197<180 451> 125 186<846 1008> 686 188<261 545 715 1013> 774 178<-250 -42>
LayerCount: 2
Back
Fore
SplineSet
1128 -385 m 1,0,1
 1044 -416 1044 -416 996 -416 c 128,-1,2
 948 -416 948 -416 912 -405.5 c 128,-1,3
 876 -395 876 -395 844 -372.5 c 128,-1,4
 812 -350 812 -350 793 -308 c 128,-1,5
 774 -266 774 -266 774 -209 c 0,6,7
 774 -98 774 -98 840 -12 c 1,8,9
 785 0 785 0 748 36.5 c 128,-1,10
 711 73 711 73 698 129 c 1,11,12
 652 56 652 56 570 13.5 c 128,-1,13
 488 -29 488 -29 393 -29 c 0,14,15
 352 -29 352 -29 314 -22 c 128,-1,16
 276 -15 276 -15 231.5 7.5 c 128,-1,17
 187 30 187 30 154.5 66 c 128,-1,18
 122 102 122 102 100 165 c 128,-1,19
 78 228 78 228 78 318 c 128,-1,20
 78 408 78 408 108.5 480 c 128,-1,21
 139 552 139 552 190.5 596.5 c 128,-1,22
 242 641 242 641 321.5 668 c 128,-1,23
 401 695 401 695 487.5 705 c 128,-1,24
 574 715 574 715 686 715 c 1,25,-1
 686 868 l 2,26,27
 686 963 686 963 645 1013 c 128,-1,28
 604 1063 604 1063 501.5 1063 c 128,-1,29
 399 1063 399 1063 355 1007.5 c 128,-1,30
 311 952 311 952 311 874 c 2,31,-1
 311 846 l 1,32,-1
 127 846 l 1,33,34
 125 858 125 858 125 897 c 0,35,36
 125 1056 125 1056 231 1143.5 c 128,-1,37
 337 1231 337 1231 514 1231 c 128,-1,38
 691 1231 691 1231 782.5 1144 c 128,-1,39
 874 1057 874 1057 874 895 c 2,40,-1
 874 219 l 2,41,42
 874 179 874 179 892 159 c 128,-1,43
 910 139 910 139 936 139 c 2,44,-1
 1012 139 l 1,45,-1
 1012 10 l 1,46,47
 952 -67 952 -67 952 -131.5 c 128,-1,48
 952 -196 952 -196 976.5 -231 c 128,-1,49
 1001 -266 1001 -266 1055 -266 c 2,50,-1
 1128 -266 l 1,51,-1
 1128 -385 l 1,0,1
686 545 m 1,52,53
 607 545 607 545 548.5 540 c 128,-1,54
 490 535 490 535 436 520.5 c 128,-1,55
 382 506 382 506 348 482 c 128,-1,56
 314 458 314 458 294 418.5 c 128,-1,57
 274 379 274 379 274 301.5 c 128,-1,58
 274 224 274 224 314 181.5 c 128,-1,59
 354 139 354 139 444 139 c 128,-1,60
 534 139 534 139 610 217.5 c 128,-1,61
 686 296 686 296 686 436 c 2,62,-1
 686 545 l 1,52,53
EndSplineSet
EndChar

StartChar: aring
Encoding: 229 229 138
Width: 1040
VWidth: 2586
GlyphClass: 2
Flags: W
HStem: -29 168<313 569 882 1011> 10 129<890 1012> 545 170<390 686> 1063 168<369 637> 1286 102<432 611> 1622 102<430 612>
VStem: 78 197<180 451> 125 186<846 1008> 303 100<1415 1596> 639 100<1418 1595> 686 188<261 545 715 1013>
LayerCount: 2
Back
Fore
SplineSet
367 1660 m 128,-1,1
 431 1724 431 1724 521.5 1724 c 128,-1,2
 612 1724 612 1724 675.5 1659.5 c 128,-1,3
 739 1595 739 1595 739 1504.5 c 128,-1,4
 739 1414 739 1414 675.5 1350 c 128,-1,5
 612 1286 612 1286 522 1286 c 128,-1,6
 432 1286 432 1286 367.5 1349.5 c 128,-1,7
 303 1413 303 1413 303 1504.5 c 128,-1,0
 303 1596 303 1596 367 1660 c 128,-1,1
603 1587 m 128,-1,9
 567 1622 567 1622 520 1622 c 128,-1,10
 473 1622 473 1622 438 1587.5 c 128,-1,11
 403 1553 403 1553 403 1505.5 c 128,-1,12
 403 1458 403 1458 437.5 1423.5 c 128,-1,13
 472 1389 472 1389 519.5 1389 c 128,-1,14
 567 1389 567 1389 603 1424 c 128,-1,15
 639 1459 639 1459 639 1505.5 c 128,-1,8
 639 1552 639 1552 603 1587 c 128,-1,9
231 1143.5 m 128,-1,17
 337 1231 337 1231 514 1231 c 128,-1,18
 691 1231 691 1231 782.5 1144 c 128,-1,19
 874 1057 874 1057 874 895 c 2,20,-1
 874 219 l 2,21,22
 874 179 874 179 892 159 c 128,-1,23
 910 139 910 139 936 139 c 2,24,-1
 1012 139 l 1,25,-1
 1012 10 l 1,26,27
 965 -18 965 -18 889.5 -18 c 128,-1,28
 814 -18 814 -18 763.5 22 c 128,-1,29
 713 62 713 62 698 129 c 1,30,31
 652 56 652 56 570 13.5 c 128,-1,32
 488 -29 488 -29 393 -29 c 0,33,34
 352 -29 352 -29 314 -22 c 128,-1,35
 276 -15 276 -15 231.5 7.5 c 128,-1,36
 187 30 187 30 154.5 66 c 128,-1,37
 122 102 122 102 100 165 c 128,-1,38
 78 228 78 228 78 318 c 128,-1,39
 78 408 78 408 108.5 480 c 128,-1,40
 139 552 139 552 190.5 596.5 c 128,-1,41
 242 641 242 641 321.5 668 c 128,-1,42
 401 695 401 695 487.5 705 c 128,-1,43
 574 715 574 715 686 715 c 1,44,-1
 686 868 l 2,45,46
 686 963 686 963 645 1013 c 128,-1,47
 604 1063 604 1063 501.5 1063 c 128,-1,48
 399 1063 399 1063 355 1007.5 c 128,-1,49
 311 952 311 952 311 874 c 2,50,-1
 311 846 l 1,51,-1
 127 846 l 1,52,53
 125 858 125 858 125 897 c 0,54,16
 125 1056 125 1056 231 1143.5 c 128,-1,17
686 545 m 1,55,56
 607 545 607 545 548.5 540 c 128,-1,57
 490 535 490 535 436 520.5 c 128,-1,58
 382 506 382 506 348 482 c 128,-1,59
 314 458 314 458 294 418.5 c 128,-1,60
 274 379 274 379 274 301.5 c 128,-1,61
 274 224 274 224 314 181.5 c 128,-1,62
 354 139 354 139 444 139 c 128,-1,63
 534 139 534 139 610 217.5 c 128,-1,64
 686 296 686 296 686 436 c 2,65,-1
 686 545 l 1,55,56
EndSplineSet
EndChar

StartChar: aringacute
Encoding: 507 507 139
Width: 1040
VWidth: 2586
GlyphClass: 2
Flags: W
HStem: -29 168<313 569 882 1011> 10 129<890 1012> 545 170<390 686> 1063 168<369 637> 1290 98<428 613> 1604 100<427 615>
VStem: 78 197<180 451> 125 186<846 1008> 303 100<1414 1579> 639 100<1414 1579> 686 188<261 545 715 1013>
LayerCount: 2
Back
Fore
SplineSet
606 1757 m 1,0,-1
 446 1757 l 1,1,-1
 621 2019 l 1,2,-1
 825 2019 l 1,3,-1
 606 1757 l 1,0,-1
367 1644 m 128,-1,5
 431 1704 431 1704 523 1704 c 128,-1,6
 615 1704 615 1704 677 1644 c 128,-1,7
 739 1584 739 1584 739 1497 c 128,-1,8
 739 1410 739 1410 676 1350 c 128,-1,9
 613 1290 613 1290 522.5 1290 c 128,-1,10
 432 1290 432 1290 367.5 1349.5 c 128,-1,11
 303 1409 303 1409 303 1496.5 c 128,-1,4
 303 1584 303 1584 367 1644 c 128,-1,5
603.5 1573 m 128,-1,13
 568 1604 568 1604 521.5 1604 c 128,-1,14
 475 1604 475 1604 439 1573 c 128,-1,15
 403 1542 403 1542 403 1497 c 128,-1,16
 403 1452 403 1452 439 1420.5 c 128,-1,17
 475 1389 475 1389 521 1389 c 128,-1,18
 567 1389 567 1389 603 1420.5 c 128,-1,19
 639 1452 639 1452 639 1497 c 128,-1,12
 639 1542 639 1542 603.5 1573 c 128,-1,13
231 1143.5 m 128,-1,21
 337 1231 337 1231 514 1231 c 128,-1,22
 691 1231 691 1231 782.5 1144 c 128,-1,23
 874 1057 874 1057 874 895 c 2,24,-1
 874 219 l 2,25,26
 874 179 874 179 892 159 c 128,-1,27
 910 139 910 139 936 139 c 2,28,-1
 1012 139 l 1,29,-1
 1012 10 l 1,30,31
 965 -18 965 -18 889.5 -18 c 128,-1,32
 814 -18 814 -18 763.5 22 c 128,-1,33
 713 62 713 62 698 129 c 1,34,35
 652 56 652 56 570 13.5 c 128,-1,36
 488 -29 488 -29 393 -29 c 0,37,38
 352 -29 352 -29 314 -22 c 128,-1,39
 276 -15 276 -15 231.5 7.5 c 128,-1,40
 187 30 187 30 154.5 66 c 128,-1,41
 122 102 122 102 100 165 c 128,-1,42
 78 228 78 228 78 318 c 128,-1,43
 78 408 78 408 108.5 480 c 128,-1,44
 139 552 139 552 190.5 596.5 c 128,-1,45
 242 641 242 641 321.5 668 c 128,-1,46
 401 695 401 695 487.5 705 c 128,-1,47
 574 715 574 715 686 715 c 1,48,-1
 686 868 l 2,49,50
 686 963 686 963 645 1013 c 128,-1,51
 604 1063 604 1063 501.5 1063 c 128,-1,52
 399 1063 399 1063 355 1007.5 c 128,-1,53
 311 952 311 952 311 874 c 2,54,-1
 311 846 l 1,55,-1
 127 846 l 1,56,57
 125 858 125 858 125 897 c 0,58,20
 125 1056 125 1056 231 1143.5 c 128,-1,21
686 545 m 1,59,60
 607 545 607 545 548.5 540 c 128,-1,61
 490 535 490 535 436 520.5 c 128,-1,62
 382 506 382 506 348 482 c 128,-1,63
 314 458 314 458 294 418.5 c 128,-1,64
 274 379 274 379 274 301.5 c 128,-1,65
 274 224 274 224 314 181.5 c 128,-1,66
 354 139 354 139 444 139 c 128,-1,67
 534 139 534 139 610 217.5 c 128,-1,68
 686 296 686 296 686 436 c 2,69,-1
 686 545 l 1,59,60
EndSplineSet
EndChar

StartChar: atilde
Encoding: 227 227 140
Width: 1040
VWidth: 2586
GlyphClass: 2
Flags: W
HStem: -29 168<313 569 882 1011> 10 129<890 1012> 545 170<390 686> 1063 168<369 637> 1415 168<510 714> 1487 166<329 537>
VStem: 78 197<180 451> 125 186<846 1008> 186 135<1415 1482> 686 188<261 545 715 1013> 721 135<1591 1653>
LayerCount: 2
Back
Fore
SplineSet
271.5 1614.5 m 128,-1,1
 318 1653 318 1653 375 1653 c 128,-1,2
 432 1653 432 1653 514.5 1618 c 128,-1,3
 597 1583 597 1583 643 1583 c 0,4,5
 713 1583 713 1583 721 1653 c 1,6,-1
 856 1653 l 1,7,8
 856 1611 856 1611 844.5 1570.5 c 128,-1,9
 833 1530 833 1530 810 1494.5 c 128,-1,10
 787 1459 787 1459 748 1437 c 128,-1,11
 709 1415 709 1415 660 1415 c 128,-1,12
 611 1415 611 1415 528.5 1451 c 128,-1,13
 446 1487 446 1487 399 1487 c 0,14,15
 330 1487 330 1487 322 1415 c 1,16,-1
 186 1415 l 1,17,18
 186 1472 186 1472 205.5 1524 c 128,-1,0
 225 1576 225 1576 271.5 1614.5 c 128,-1,1
231 1143.5 m 128,-1,20
 337 1231 337 1231 514 1231 c 128,-1,21
 691 1231 691 1231 782.5 1144 c 128,-1,22
 874 1057 874 1057 874 895 c 2,23,-1
 874 219 l 2,24,25
 874 179 874 179 892 159 c 128,-1,26
 910 139 910 139 936 139 c 2,27,-1
 1012 139 l 1,28,-1
 1012 10 l 1,29,30
 965 -18 965 -18 889.5 -18 c 128,-1,31
 814 -18 814 -18 763.5 22 c 128,-1,32
 713 62 713 62 698 129 c 1,33,34
 652 56 652 56 570 13.5 c 128,-1,35
 488 -29 488 -29 393 -29 c 0,36,37
 352 -29 352 -29 314 -22 c 128,-1,38
 276 -15 276 -15 231.5 7.5 c 128,-1,39
 187 30 187 30 154.5 66 c 128,-1,40
 122 102 122 102 100 165 c 128,-1,41
 78 228 78 228 78 318 c 128,-1,42
 78 408 78 408 108.5 480 c 128,-1,43
 139 552 139 552 190.5 596.5 c 128,-1,44
 242 641 242 641 321.5 668 c 128,-1,45
 401 695 401 695 487.5 705 c 128,-1,46
 574 715 574 715 686 715 c 1,47,-1
 686 868 l 2,48,49
 686 963 686 963 645 1013 c 128,-1,50
 604 1063 604 1063 501.5 1063 c 128,-1,51
 399 1063 399 1063 355 1007.5 c 128,-1,52
 311 952 311 952 311 874 c 2,53,-1
 311 846 l 1,54,-1
 127 846 l 1,55,56
 125 858 125 858 125 897 c 0,57,19
 125 1056 125 1056 231 1143.5 c 128,-1,20
686 545 m 1,58,59
 607 545 607 545 548.5 540 c 128,-1,60
 490 535 490 535 436 520.5 c 128,-1,61
 382 506 382 506 348 482 c 128,-1,62
 314 458 314 458 294 418.5 c 128,-1,63
 274 379 274 379 274 301.5 c 128,-1,64
 274 224 274 224 314 181.5 c 128,-1,65
 354 139 354 139 444 139 c 128,-1,66
 534 139 534 139 610 217.5 c 128,-1,67
 686 296 686 296 686 436 c 2,68,-1
 686 545 l 1,58,59
EndSplineSet
EndChar

StartChar: ae
Encoding: 230 230 141
Width: 1665
VWidth: 2586
GlyphClass: 2
Flags: W
HStem: -29 168<329 589 1012 1276> 545 170<403 700 897 1350> 1063 168<382 654 1012 1265>
VStem: 90 197<180 451> 137 188<846 1008> 700 197<279 545 715 924> 1350 197<715 963> 1364 182<238 410>
AnchorPoint: "Anchor-1" 0 0 basechar 0
AnchorPoint: "Anchor-0" 836 1202 basechar 0
LayerCount: 2
Back
Fore
SplineSet
834 1094 m 1,0,1
 947 1231 947 1231 1150 1231 c 128,-1,2
 1353 1231 1353 1231 1449.5 1097 c 128,-1,3
 1546 963 1546 963 1546 666 c 2,4,-1
 1546 545 l 1,5,-1
 897 545 l 1,6,7
 897 336 897 336 961 237.5 c 128,-1,8
 1025 139 1025 139 1159 139 c 0,9,10
 1249 139 1249 139 1306.5 213 c 128,-1,11
 1364 287 1364 287 1364 410 c 1,12,-1
 1546 410 l 1,13,14
 1546 210 1546 210 1438.5 90.5 c 128,-1,15
 1331 -29 1331 -29 1153 -29 c 0,16,17
 899 -29 899 -29 788 156 c 1,18,19
 721 70 721 70 632 20.5 c 128,-1,20
 543 -29 543 -29 442 -29 c 0,21,22
 392 -29 392 -29 347.5 -21.5 c 128,-1,23
 303 -14 303 -14 254 8 c 128,-1,24
 205 30 205 30 170 66 c 128,-1,25
 135 102 135 102 112.5 165 c 128,-1,26
 90 228 90 228 90 318 c 128,-1,27
 90 408 90 408 120.5 480 c 128,-1,28
 151 552 151 552 202.5 596.5 c 128,-1,29
 254 641 254 641 334 668 c 128,-1,30
 414 695 414 695 500.5 705 c 128,-1,31
 587 715 587 715 700 715 c 1,32,-1
 700 868 l 2,33,34
 700 963 700 963 659 1013 c 128,-1,35
 618 1063 618 1063 510 1063 c 0,36,37
 459 1063 459 1063 422 1046.5 c 128,-1,38
 385 1030 385 1030 365 1002 c 128,-1,39
 345 974 345 974 335.5 942 c 128,-1,40
 326 910 326 910 326 874 c 2,41,-1
 326 846 l 1,42,-1
 139 846 l 1,43,44
 137 858 137 858 137 897 c 0,45,46
 137 1056 137 1056 243 1143.5 c 128,-1,47
 349 1231 349 1231 522 1231 c 0,48,49
 745 1231 745 1231 834 1094 c 1,0,1
1300 974 m 128,-1,51
 1250 1063 1250 1063 1140 1063 c 128,-1,52
 1030 1063 1030 1063 970.5 977.5 c 128,-1,53
 911 892 911 892 897 715 c 1,54,-1
 1350 715 l 1,55,50
 1350 885 1350 885 1300 974 c 128,-1,51
700 545 m 1,56,57
 621 545 621 545 562 540 c 128,-1,58
 503 535 503 535 449 520.5 c 128,-1,59
 395 506 395 506 361 482 c 128,-1,60
 327 458 327 458 307 418.5 c 128,-1,61
 287 379 287 379 287 301.5 c 128,-1,62
 287 224 287 224 327.5 181.5 c 128,-1,63
 368 139 368 139 458.5 139 c 128,-1,64
 549 139 549 139 624.5 213.5 c 128,-1,65
 700 288 700 288 700 420 c 2,66,-1
 700 545 l 1,56,57
EndSplineSet
EndChar

StartChar: aeacute
Encoding: 509 509 142
Width: 1665
VWidth: 2586
GlyphClass: 2
Flags: W
HStem: -29 168<329 589 1012 1276> 545 170<403 700 897 1350> 1063 168<382 654 1012 1265> 1612 41G<868 1100>
VStem: 90 197<180 451> 137 188<846 1008> 700 197<279 545 715 924> 1350 197<715 963> 1364 182<238 410>
LayerCount: 2
Back
Fore
SplineSet
856 1350 m 1,0,-1
 698 1350 l 1,1,-1
 895 1653 l 1,2,-1
 1100 1653 l 1,3,-1
 856 1350 l 1,0,-1
834 1094 m 1,4,5
 947 1231 947 1231 1150 1231 c 128,-1,6
 1353 1231 1353 1231 1449.5 1097 c 128,-1,7
 1546 963 1546 963 1546 666 c 2,8,-1
 1546 545 l 1,9,-1
 897 545 l 1,10,11
 897 336 897 336 961 237.5 c 128,-1,12
 1025 139 1025 139 1159 139 c 0,13,14
 1249 139 1249 139 1306.5 213 c 128,-1,15
 1364 287 1364 287 1364 410 c 1,16,-1
 1546 410 l 1,17,18
 1546 210 1546 210 1438.5 90.5 c 128,-1,19
 1331 -29 1331 -29 1153 -29 c 0,20,21
 899 -29 899 -29 788 156 c 1,22,23
 721 70 721 70 632 20.5 c 128,-1,24
 543 -29 543 -29 442 -29 c 0,25,26
 392 -29 392 -29 347.5 -21.5 c 128,-1,27
 303 -14 303 -14 254 8 c 128,-1,28
 205 30 205 30 170 66 c 128,-1,29
 135 102 135 102 112.5 165 c 128,-1,30
 90 228 90 228 90 318 c 128,-1,31
 90 408 90 408 120.5 480 c 128,-1,32
 151 552 151 552 202.5 596.5 c 128,-1,33
 254 641 254 641 334 668 c 128,-1,34
 414 695 414 695 500.5 705 c 128,-1,35
 587 715 587 715 700 715 c 1,36,-1
 700 868 l 2,37,38
 700 963 700 963 659 1013 c 128,-1,39
 618 1063 618 1063 510 1063 c 0,40,41
 459 1063 459 1063 422 1046.5 c 128,-1,42
 385 1030 385 1030 365 1002 c 128,-1,43
 345 974 345 974 335.5 942 c 128,-1,44
 326 910 326 910 326 874 c 2,45,-1
 326 846 l 1,46,-1
 139 846 l 1,47,48
 137 858 137 858 137 897 c 0,49,50
 137 1056 137 1056 243 1143.5 c 128,-1,51
 349 1231 349 1231 522 1231 c 0,52,53
 745 1231 745 1231 834 1094 c 1,4,5
1300 974 m 128,-1,55
 1250 1063 1250 1063 1140 1063 c 128,-1,56
 1030 1063 1030 1063 970.5 977.5 c 128,-1,57
 911 892 911 892 897 715 c 1,58,-1
 1350 715 l 1,59,54
 1350 885 1350 885 1300 974 c 128,-1,55
700 545 m 1,60,61
 621 545 621 545 562 540 c 128,-1,62
 503 535 503 535 449 520.5 c 128,-1,63
 395 506 395 506 361 482 c 128,-1,64
 327 458 327 458 307 418.5 c 128,-1,65
 287 379 287 379 287 301.5 c 128,-1,66
 287 224 287 224 327.5 181.5 c 128,-1,67
 368 139 368 139 458.5 139 c 128,-1,68
 549 139 549 139 624.5 213.5 c 128,-1,69
 700 288 700 288 700 420 c 2,70,-1
 700 545 l 1,60,61
EndSplineSet
EndChar

StartChar: b
Encoding: 98 98 143
Width: 1040
VWidth: 2586
GlyphClass: 2
Flags: W
HStem: -29 168<427 662> 0 43G<137 289> 1063 168<426 659> 1612 41G<137 326>
VStem: 137 188<266 935 1090 1653> 137 141<0 54> 756 197<261 939>
LayerCount: 2
Back
Fore
SplineSet
592 1231 m 0,0,1
 751 1231 751 1231 851.5 1072.5 c 128,-1,2
 952 914 952 914 952 598 c 0,3,4
 952 282 952 282 854 126.5 c 128,-1,5
 756 -29 756 -29 580 -29 c 0,6,7
 495 -29 495 -29 426 14 c 128,-1,8
 357 57 357 57 315 139 c 1,9,-1
 279 0 l 1,10,-1
 137 0 l 1,11,-1
 137 1653 l 1,12,-1
 326 1653 l 1,13,-1
 326 1090 l 1,14,15
 356 1155 356 1155 429.5 1193 c 128,-1,16
 503 1231 503 1231 592 1231 c 0,0,1
541 1063 m 0,17,18
 326 1063 326 1063 326 637 c 2,19,-1
 326 559 l 2,20,21
 326 139 326 139 541 139 c 0,22,23
 649 139 649 139 702.5 238.5 c 128,-1,24
 756 338 756 338 756 559 c 2,25,-1
 756 643 l 2,26,27
 756 864 756 864 702.5 963.5 c 128,-1,28
 649 1063 649 1063 541 1063 c 0,17,18
EndSplineSet
EndChar

StartChar: c
Encoding: 99 99 144
Width: 935
VWidth: 2586
GlyphClass: 2
Flags: W
HStem: -29 168<380 609> 1063 168<380 607>
VStem: 82 197<266 936> 678 184<213 444 758 982>
AnchorPoint: "Anchor-1" 469 0 basechar 0
AnchorPoint: "Anchor-0" 469 1202 basechar 0
LayerCount: 2
Back
Fore
SplineSet
182 1078 m 128,-1,1
 282 1231 282 1231 484 1231 c 128,-1,2
 686 1231 686 1231 774 1112 c 128,-1,3
 862 993 862 993 862 758 c 1,4,-1
 668 758 l 1,5,6
 668 919 668 919 630 991 c 128,-1,7
 592 1063 592 1063 487.5 1063 c 128,-1,8
 383 1063 383 1063 331 958 c 128,-1,9
 279 853 279 853 279 643 c 2,10,-1
 279 559 l 2,11,12
 279 349 279 349 331 244 c 128,-1,13
 383 139 383 139 487.5 139 c 128,-1,14
 592 139 592 139 635 214.5 c 128,-1,15
 678 290 678 290 678 444 c 1,16,-1
 862 444 l 1,17,18
 862 346 862 346 841 263 c 128,-1,19
 820 180 820 180 777.5 113.5 c 128,-1,20
 735 47 735 47 662.5 9 c 128,-1,21
 590 -29 590 -29 494 -29 c 0,22,23
 281 -29 281 -29 181.5 123 c 128,-1,24
 82 275 82 275 82 600 c 128,-1,0
 82 925 82 925 182 1078 c 128,-1,1
EndSplineSet
EndChar

StartChar: cacute
Encoding: 263 263 145
Width: 935
VWidth: 2586
GlyphClass: 2
Flags: W
HStem: -29 168<380 609> 1063 168<380 607> 1612 41G<524 758>
VStem: 82 197<266 936> 678 184<213 444 758 982>
LayerCount: 2
Back
Fore
SplineSet
514 1350 m 1,0,-1
 354 1350 l 1,1,-1
 551 1653 l 1,2,-1
 758 1653 l 1,3,-1
 514 1350 l 1,0,-1
182 1078 m 128,-1,5
 282 1231 282 1231 484 1231 c 128,-1,6
 686 1231 686 1231 774 1112 c 128,-1,7
 862 993 862 993 862 758 c 1,8,-1
 668 758 l 1,9,10
 668 919 668 919 630 991 c 128,-1,11
 592 1063 592 1063 487.5 1063 c 128,-1,12
 383 1063 383 1063 331 958 c 128,-1,13
 279 853 279 853 279 643 c 2,14,-1
 279 559 l 2,15,16
 279 349 279 349 331 244 c 128,-1,17
 383 139 383 139 487.5 139 c 128,-1,18
 592 139 592 139 635 214.5 c 128,-1,19
 678 290 678 290 678 444 c 1,20,-1
 862 444 l 1,21,22
 862 346 862 346 841 263 c 128,-1,23
 820 180 820 180 777.5 113.5 c 128,-1,24
 735 47 735 47 662.5 9 c 128,-1,25
 590 -29 590 -29 494 -29 c 0,26,27
 281 -29 281 -29 181.5 123 c 128,-1,28
 82 275 82 275 82 600 c 128,-1,4
 82 925 82 925 182 1078 c 128,-1,5
EndSplineSet
EndChar

StartChar: ccaron
Encoding: 269 269 146
Width: 935
VWidth: 2586
GlyphClass: 2
Flags: W
HStem: -29 168<380 609> 1063 168<380 607> 1612 41G<186 390 548 756>
VStem: 82 197<266 936> 678 184<213 444 758 982>
LayerCount: 2
Back
Fore
SplineSet
186 1653 m 1,0,-1
 367 1653 l 1,1,-1
 469 1473 l 1,2,-1
 571 1653 l 1,3,-1
 756 1653 l 1,4,-1
 559 1346 l 1,5,-1
 381 1346 l 1,6,-1
 186 1653 l 1,0,-1
182 1078 m 128,-1,8
 282 1231 282 1231 484 1231 c 128,-1,9
 686 1231 686 1231 774 1112 c 128,-1,10
 862 993 862 993 862 758 c 1,11,-1
 668 758 l 1,12,13
 668 919 668 919 630 991 c 128,-1,14
 592 1063 592 1063 487.5 1063 c 128,-1,15
 383 1063 383 1063 331 958 c 128,-1,16
 279 853 279 853 279 643 c 2,17,-1
 279 559 l 2,18,19
 279 349 279 349 331 244 c 128,-1,20
 383 139 383 139 487.5 139 c 128,-1,21
 592 139 592 139 635 214.5 c 128,-1,22
 678 290 678 290 678 444 c 1,23,-1
 862 444 l 1,24,25
 862 346 862 346 841 263 c 128,-1,26
 820 180 820 180 777.5 113.5 c 128,-1,27
 735 47 735 47 662.5 9 c 128,-1,28
 590 -29 590 -29 494 -29 c 0,29,30
 281 -29 281 -29 181.5 123 c 128,-1,31
 82 275 82 275 82 600 c 128,-1,7
 82 925 82 925 182 1078 c 128,-1,8
EndSplineSet
EndChar

StartChar: ccedilla
Encoding: 231 231 147
Width: 935
VWidth: 2586
GlyphClass: 2
Flags: W
HStem: -416 129<257 507> -399 113<254 442> -29 168<504 603> 1063 168<380 607>
VStem: 82 197<267 936> 510 172<-282 -180> 678 184<218 444 758 982>
LayerCount: 2
Back
Fore
SplineSet
182 1078 m 128,-1,1
 282 1231 282 1231 484 1231 c 128,-1,2
 686 1231 686 1231 774 1112 c 128,-1,3
 862 993 862 993 862 758 c 1,4,-1
 668 758 l 1,5,6
 668 919 668 919 630 991 c 128,-1,7
 592 1063 592 1063 487.5 1063 c 128,-1,8
 383 1063 383 1063 331 958 c 128,-1,9
 279 853 279 853 279 643 c 2,10,-1
 279 559 l 2,11,12
 279 349 279 349 331 244 c 128,-1,13
 383 139 383 139 487.5 139 c 128,-1,14
 592 139 592 139 635 214.5 c 128,-1,15
 678 290 678 290 678 444 c 1,16,-1
 862 444 l 1,17,18
 862 368 862 368 849.5 301 c 128,-1,19
 837 234 837 234 809.5 174 c 128,-1,20
 782 114 782 114 741 70 c 128,-1,21
 700 26 700 26 639.5 -0.5 c 128,-1,22
 579 -27 579 -27 504 -29 c 1,23,-1
 504 -82 l 1,24,25
 682 -93 682 -93 682 -229 c 0,26,27
 682 -284 682 -284 659 -323.5 c 128,-1,28
 636 -363 636 -363 598 -381.5 c 128,-1,29
 560 -400 560 -400 522.5 -408 c 128,-1,30
 485 -416 485 -416 416.5 -416 c 128,-1,31
 348 -416 348 -416 254 -399 c 1,32,-1
 254 -287 l 1,33,-1
 426 -287 l 2,34,35
 510 -287 510 -287 510 -229 c 0,36,37
 510 -201 510 -201 492.5 -188.5 c 128,-1,38
 475 -176 475 -176 432 -176 c 2,39,-1
 356 -176 l 1,40,-1
 383 -12 l 1,41,42
 228 23 228 23 155 172 c 128,-1,43
 82 321 82 321 82 623 c 128,-1,0
 82 925 82 925 182 1078 c 128,-1,1
EndSplineSet
EndChar

StartChar: ccircumflex
Encoding: 265 265 148
Width: 935
VWidth: 2586
GlyphClass: 2
Flags: W
HStem: -29 168<380 609> 1063 168<380 607>
VStem: 82 197<266 936> 678 184<213 444 758 982>
LayerCount: 2
Back
Fore
SplineSet
471 1524 m 1,0,-1
 367 1341 l 1,1,-1
 186 1341 l 1,2,-1
 383 1651 l 1,3,-1
 561 1651 l 1,4,-1
 756 1341 l 1,5,-1
 571 1341 l 1,6,-1
 471 1524 l 1,0,-1
182 1078 m 128,-1,8
 282 1231 282 1231 484 1231 c 128,-1,9
 686 1231 686 1231 774 1112 c 128,-1,10
 862 993 862 993 862 758 c 1,11,-1
 668 758 l 1,12,13
 668 919 668 919 630 991 c 128,-1,14
 592 1063 592 1063 487.5 1063 c 128,-1,15
 383 1063 383 1063 331 958 c 128,-1,16
 279 853 279 853 279 643 c 2,17,-1
 279 559 l 2,18,19
 279 349 279 349 331 244 c 128,-1,20
 383 139 383 139 487.5 139 c 128,-1,21
 592 139 592 139 635 214.5 c 128,-1,22
 678 290 678 290 678 444 c 1,23,-1
 862 444 l 1,24,25
 862 346 862 346 841 263 c 128,-1,26
 820 180 820 180 777.5 113.5 c 128,-1,27
 735 47 735 47 662.5 9 c 128,-1,28
 590 -29 590 -29 494 -29 c 0,29,30
 281 -29 281 -29 181.5 123 c 128,-1,31
 82 275 82 275 82 600 c 128,-1,7
 82 925 82 925 182 1078 c 128,-1,8
EndSplineSet
EndChar

StartChar: cdotaccent
Encoding: 267 267 149
Width: 935
VWidth: 2586
GlyphClass: 2
Flags: W
HStem: -29 168<380 609> 1063 168<380 607> 1436 217<371 569>
VStem: 82 197<266 936> 371 199<1436 1653> 678 184<213 444 758 982>
LayerCount: 2
Back
Fore
SplineSet
371 1653 m 1,0,-1
 569 1653 l 1,1,-1
 569 1436 l 1,2,-1
 371 1436 l 1,3,-1
 371 1653 l 1,0,-1
182 1078 m 128,-1,5
 282 1231 282 1231 484 1231 c 128,-1,6
 686 1231 686 1231 774 1112 c 128,-1,7
 862 993 862 993 862 758 c 1,8,-1
 668 758 l 1,9,10
 668 919 668 919 630 991 c 128,-1,11
 592 1063 592 1063 487.5 1063 c 128,-1,12
 383 1063 383 1063 331 958 c 128,-1,13
 279 853 279 853 279 643 c 2,14,-1
 279 559 l 2,15,16
 279 349 279 349 331 244 c 128,-1,17
 383 139 383 139 487.5 139 c 128,-1,18
 592 139 592 139 635 214.5 c 128,-1,19
 678 290 678 290 678 444 c 1,20,-1
 862 444 l 1,21,22
 862 346 862 346 841 263 c 128,-1,23
 820 180 820 180 777.5 113.5 c 128,-1,24
 735 47 735 47 662.5 9 c 128,-1,25
 590 -29 590 -29 494 -29 c 0,26,27
 281 -29 281 -29 181.5 123 c 128,-1,28
 82 275 82 275 82 600 c 128,-1,4
 82 925 82 925 182 1078 c 128,-1,5
EndSplineSet
EndChar

StartChar: d
Encoding: 100 100 150
Width: 1040
VWidth: 2586
GlyphClass: 2
Flags: W
HStem: -29 168<381 617> 0 43G<757 905> 1063 168<384 618> 1612 41G<707 905>
VStem: 90 197<261 939> 707 199<246 956 1090 1653> 764 141<0 81>
LayerCount: 2
Back
Fore
SplineSet
463 -29 m 0,0,1
 286 -29 286 -29 188 126.5 c 128,-1,2
 90 282 90 282 90 598 c 0,3,4
 90 914 90 914 191 1072.5 c 128,-1,5
 292 1231 292 1231 451 1231 c 0,6,7
 539 1231 539 1231 607.5 1193.5 c 128,-1,8
 676 1156 676 1156 707 1090 c 1,9,-1
 707 1653 l 1,10,-1
 905 1653 l 1,11,-1
 905 0 l 1,12,-1
 764 0 l 1,13,-1
 739 139 l 1,14,15
 697 58 697 58 623 14.5 c 128,-1,16
 549 -29 549 -29 463 -29 c 0,0,1
502 1063 m 0,17,18
 394 1063 394 1063 340.5 963.5 c 128,-1,19
 287 864 287 864 287 643 c 2,20,-1
 287 559 l 2,21,22
 287 338 287 338 340.5 238.5 c 128,-1,23
 394 139 394 139 502 139 c 0,24,25
 719 139 719 139 719 559 c 2,26,-1
 719 637 l 2,27,28
 719 1063 719 1063 502 1063 c 0,17,18
EndSplineSet
EndChar

StartChar: eth
Encoding: 240 240 151
Width: 1040
VWidth: 2586
GlyphClass: 2
Flags: W
HStem: -31 168<399 644> 1061 168<399 608> 1370 137<213 371> 1427 139<688 844> 1612 41G<266 489>
VStem: 90 197<274 913> 756 197<274 919>
LayerCount: 2
Back
Fore
SplineSet
844 1427 m 1,0,-1
 680 1427 l 1,1,2
 952 1064 952 1064 952 598 c 0,3,4
 952 -31 952 -31 522 -31 c 0,5,6
 307 -31 307 -31 198.5 123.5 c 128,-1,7
 90 278 90 278 90 597.5 c 0,8,9
 90 917 90 917 199.5 1073 c 128,-1,10
 309 1229 309 1229 496 1229 c 0,11,12
 543 1229 543 1229 610 1200 c 1,13,14
 572 1271 572 1271 483 1395 c 1,15,-1
 213 1370 l 1,16,-1
 213 1507 l 1,17,-1
 375 1507 l 1,18,19
 362 1523 362 1523 325 1576.5 c 128,-1,20
 288 1630 288 1630 266 1653 c 1,21,-1
 473 1653 l 1,22,23
 489 1634 489 1634 525 1598 c 128,-1,24
 561 1562 561 1562 578 1542 c 1,25,-1
 844 1567 l 1,26,-1
 844 1427 l 1,0,-1
756 641 m 2,27,28
 756 848 756 848 696.5 954.5 c 128,-1,29
 637 1061 637 1061 522 1061 c 0,30,31
 287 1061 287 1061 287 641 c 2,32,-1
 287 557 l 2,33,34
 287 137 287 137 521.5 137 c 0,35,36
 756 137 756 137 756 557 c 2,37,-1
 756 641 l 2,27,28
EndSplineSet
EndChar

StartChar: dcaron
Encoding: 271 271 152
Width: 1153
VWidth: 2586
GlyphClass: 2
Flags: W
HStem: -29 168<381 617> 0 43G<757 905> 1063 168<384 618> 1526 41G<995 1227> 1612 41G<707 905>
VStem: 90 197<261 939> 707 199<246 956 1090 1653> 764 141<0 81> 995 231<1341 1567>
LayerCount: 2
Back
Fore
SplineSet
463 -29 m 0,0,1
 286 -29 286 -29 188 126.5 c 128,-1,2
 90 282 90 282 90 598 c 0,3,4
 90 914 90 914 191 1072.5 c 128,-1,5
 292 1231 292 1231 451 1231 c 0,6,7
 539 1231 539 1231 607.5 1193.5 c 128,-1,8
 676 1156 676 1156 707 1090 c 1,9,-1
 707 1653 l 1,10,-1
 905 1653 l 1,11,-1
 905 0 l 1,12,-1
 764 0 l 1,13,-1
 739 139 l 1,14,15
 697 58 697 58 623 14.5 c 128,-1,16
 549 -29 549 -29 463 -29 c 0,0,1
995 1321 m 1,17,-1
 995 1567 l 1,18,-1
 1227 1567 l 1,19,-1
 1227 1341 l 1,20,-1
 1114 1036 l 1,21,-1
 995 1036 l 1,22,-1
 1090 1321 l 1,23,-1
 995 1321 l 1,17,-1
502 1063 m 0,24,25
 394 1063 394 1063 340.5 963.5 c 128,-1,26
 287 864 287 864 287 643 c 2,27,-1
 287 559 l 2,28,29
 287 338 287 338 340.5 238.5 c 128,-1,30
 394 139 394 139 502 139 c 0,31,32
 719 139 719 139 719 559 c 2,33,-1
 719 637 l 2,34,35
 719 1063 719 1063 502 1063 c 0,24,25
EndSplineSet
EndChar

StartChar: dcroat
Encoding: 273 273 153
Width: 1034
VWidth: 2586
GlyphClass: 2
Flags: W
HStem: -29 168<381 617> 0 43G<757 905> 1063 168<384 618> 1331 156<463 707 905 1036> 1612 41G<719 905>
VStem: 90 197<261 939> 719 186<266 935 1090 1331 1487 1653> 764 141<0 81>
LayerCount: 2
Back
Fore
SplineSet
1036 1487 m 1,0,-1
 1036 1331 l 1,1,-1
 905 1331 l 1,2,-1
 905 0 l 1,3,-1
 764 0 l 1,4,-1
 739 139 l 1,5,6
 697 58 697 58 623 14.5 c 128,-1,7
 549 -29 549 -29 463 -29 c 0,8,9
 286 -29 286 -29 188 126.5 c 128,-1,10
 90 282 90 282 90 598 c 0,11,12
 90 914 90 914 191 1072.5 c 128,-1,13
 292 1231 292 1231 451 1231 c 0,14,15
 539 1231 539 1231 607.5 1193.5 c 128,-1,16
 676 1156 676 1156 707 1090 c 1,17,-1
 707 1331 l 1,18,-1
 463 1331 l 1,19,-1
 463 1487 l 1,20,-1
 719 1487 l 1,21,-1
 719 1653 l 1,22,-1
 905 1653 l 1,23,-1
 905 1487 l 1,24,-1
 1036 1487 l 1,0,-1
502 1063 m 0,25,26
 394 1063 394 1063 340.5 963.5 c 128,-1,27
 287 864 287 864 287 643 c 2,28,-1
 287 559 l 2,29,30
 287 338 287 338 340.5 238.5 c 128,-1,31
 394 139 394 139 502 139 c 0,32,33
 719 139 719 139 719 559 c 2,34,-1
 719 637 l 2,35,36
 719 1063 719 1063 502 1063 c 0,25,26
EndSplineSet
EndChar

StartChar: e
Encoding: 101 101 154
Width: 1040
VWidth: 2586
GlyphClass: 2
Flags: W
HStem: -29 168<410 673> 545 170<295 748> 1063 168<408 662>
VStem: 96 197<285 545 715 911> 748 197<218 410 715 963>
AnchorPoint: "Anchor-1" 522 0 basechar 0
AnchorPoint: "Anchor-0" 522 1202 basechar 0
LayerCount: 2
Back
Fore
SplineSet
208 1077 m 128,-1,1
 320 1231 320 1231 535 1231 c 128,-1,2
 750 1231 750 1231 847 1097 c 128,-1,3
 944 963 944 963 944 666 c 2,4,-1
 944 545 l 1,5,-1
 293 545 l 1,6,7
 294 336 294 336 358.5 237.5 c 128,-1,8
 423 139 423 139 557 139 c 0,9,10
 647 139 647 139 702.5 212.5 c 128,-1,11
 758 286 758 286 758 410 c 1,12,-1
 944 410 l 1,13,14
 944 210 944 210 835.5 90.5 c 128,-1,15
 727 -29 727 -29 551 -29 c 0,16,17
 321 -29 321 -29 208.5 121.5 c 128,-1,18
 96 272 96 272 96 597.5 c 128,-1,0
 96 923 96 923 208 1077 c 128,-1,1
697.5 974.5 m 128,-1,20
 647 1063 647 1063 537 1063 c 128,-1,21
 427 1063 427 1063 367 977 c 128,-1,22
 307 891 307 891 295 715 c 1,23,-1
 748 715 l 1,24,19
 748 886 748 886 697.5 974.5 c 128,-1,20
EndSplineSet
EndChar

StartChar: eacute
Encoding: 233 233 155
Width: 1040
VWidth: 2586
GlyphClass: 2
Flags: W
HStem: -29 168<410 673> 545 170<295 748> 1063 168<408 662> 1612 41G<582 815>
VStem: 96 197<285 545 715 911> 748 197<218 410 715 963>
LayerCount: 2
Back
Fore
SplineSet
571 1350 m 1,0,-1
 412 1350 l 1,1,-1
 608 1653 l 1,2,-1
 815 1653 l 1,3,-1
 571 1350 l 1,0,-1
208 1077 m 128,-1,5
 320 1231 320 1231 535 1231 c 128,-1,6
 750 1231 750 1231 847 1097 c 128,-1,7
 944 963 944 963 944 666 c 2,8,-1
 944 545 l 1,9,-1
 293 545 l 1,10,11
 294 336 294 336 358.5 237.5 c 128,-1,12
 423 139 423 139 557 139 c 0,13,14
 647 139 647 139 702.5 212.5 c 128,-1,15
 758 286 758 286 758 410 c 1,16,-1
 944 410 l 1,17,18
 944 210 944 210 835.5 90.5 c 128,-1,19
 727 -29 727 -29 551 -29 c 0,20,21
 321 -29 321 -29 208.5 121.5 c 128,-1,22
 96 272 96 272 96 597.5 c 128,-1,4
 96 923 96 923 208 1077 c 128,-1,5
697.5 974.5 m 128,-1,24
 647 1063 647 1063 537 1063 c 128,-1,25
 427 1063 427 1063 367 977 c 128,-1,26
 307 891 307 891 295 715 c 1,27,-1
 748 715 l 1,28,23
 748 886 748 886 697.5 974.5 c 128,-1,24
EndSplineSet
EndChar

StartChar: ebreve
Encoding: 277 277 156
Width: 1040
VWidth: 2586
GlyphClass: 2
Flags: W
HStem: -29 168<410 673> 545 170<295 748> 1063 168<408 662> 1430 147<407 641> 1612 41G<238 389 656 805>
VStem: 96 197<285 545 715 911> 238 147<1603 1653> 659 145<1603 1653> 748 197<218 410 715 963>
LayerCount: 2
Back
Fore
SplineSet
805 1653 m 1,0,1
 805 1569 805 1569 726 1499.5 c 128,-1,2
 647 1430 647 1430 522 1430 c 128,-1,3
 397 1430 397 1430 317.5 1499.5 c 128,-1,4
 238 1569 238 1569 238 1653 c 1,5,-1
 385 1653 l 1,6,7
 392 1626 392 1626 429.5 1601.5 c 128,-1,8
 467 1577 467 1577 521.5 1577 c 128,-1,9
 576 1577 576 1577 615 1602 c 128,-1,10
 654 1627 654 1627 659 1653 c 1,11,-1
 805 1653 l 1,0,1
208 1077 m 128,-1,13
 320 1231 320 1231 535 1231 c 128,-1,14
 750 1231 750 1231 847 1097 c 128,-1,15
 944 963 944 963 944 666 c 2,16,-1
 944 545 l 1,17,-1
 293 545 l 1,18,19
 294 336 294 336 358.5 237.5 c 128,-1,20
 423 139 423 139 557 139 c 0,21,22
 647 139 647 139 702.5 212.5 c 128,-1,23
 758 286 758 286 758 410 c 1,24,-1
 944 410 l 1,25,26
 944 210 944 210 835.5 90.5 c 128,-1,27
 727 -29 727 -29 551 -29 c 0,28,29
 321 -29 321 -29 208.5 121.5 c 128,-1,30
 96 272 96 272 96 597.5 c 128,-1,12
 96 923 96 923 208 1077 c 128,-1,13
697.5 974.5 m 128,-1,32
 647 1063 647 1063 537 1063 c 128,-1,33
 427 1063 427 1063 367 977 c 128,-1,34
 307 891 307 891 295 715 c 1,35,-1
 748 715 l 1,36,31
 748 886 748 886 697.5 974.5 c 128,-1,32
EndSplineSet
EndChar

StartChar: ecaron
Encoding: 283 283 157
Width: 1040
VWidth: 2586
GlyphClass: 2
Flags: W
HStem: -29 168<410 673> 545 170<295 748> 1063 168<408 662> 1612 41G<238 445 600 807>
VStem: 96 197<285 545 715 911> 748 197<218 410 715 963>
LayerCount: 2
Back
Fore
SplineSet
238 1653 m 1,0,-1
 422 1653 l 1,1,-1
 522 1473 l 1,2,-1
 623 1653 l 1,3,-1
 807 1653 l 1,4,-1
 610 1346 l 1,5,-1
 430 1346 l 1,6,-1
 238 1653 l 1,0,-1
208 1077 m 128,-1,8
 320 1231 320 1231 535 1231 c 128,-1,9
 750 1231 750 1231 847 1097 c 128,-1,10
 944 963 944 963 944 666 c 2,11,-1
 944 545 l 1,12,-1
 293 545 l 1,13,14
 294 336 294 336 358.5 237.5 c 128,-1,15
 423 139 423 139 557 139 c 0,16,17
 647 139 647 139 702.5 212.5 c 128,-1,18
 758 286 758 286 758 410 c 1,19,-1
 944 410 l 1,20,21
 944 210 944 210 835.5 90.5 c 128,-1,22
 727 -29 727 -29 551 -29 c 0,23,24
 321 -29 321 -29 208.5 121.5 c 128,-1,25
 96 272 96 272 96 597.5 c 128,-1,7
 96 923 96 923 208 1077 c 128,-1,8
697.5 974.5 m 128,-1,27
 647 1063 647 1063 537 1063 c 128,-1,28
 427 1063 427 1063 367 977 c 128,-1,29
 307 891 307 891 295 715 c 1,30,-1
 748 715 l 1,31,26
 748 886 748 886 697.5 974.5 c 128,-1,27
EndSplineSet
EndChar

StartChar: ecircumflex
Encoding: 234 234 158
Width: 1040
VWidth: 2586
GlyphClass: 2
Flags: W
HStem: -29 168<410 673> 545 170<295 748> 1063 168<408 662>
VStem: 96 197<285 545 715 911> 748 197<218 410 715 963>
LayerCount: 2
Back
Fore
SplineSet
522 1524 m 1,0,-1
 422 1341 l 1,1,-1
 238 1341 l 1,2,-1
 432 1651 l 1,3,-1
 612 1651 l 1,4,-1
 807 1341 l 1,5,-1
 623 1341 l 1,6,-1
 522 1524 l 1,0,-1
208 1077 m 128,-1,8
 320 1231 320 1231 535 1231 c 128,-1,9
 750 1231 750 1231 847 1097 c 128,-1,10
 944 963 944 963 944 666 c 2,11,-1
 944 545 l 1,12,-1
 293 545 l 1,13,14
 294 336 294 336 358.5 237.5 c 128,-1,15
 423 139 423 139 557 139 c 0,16,17
 647 139 647 139 702.5 212.5 c 128,-1,18
 758 286 758 286 758 410 c 1,19,-1
 944 410 l 1,20,21
 944 210 944 210 835.5 90.5 c 128,-1,22
 727 -29 727 -29 551 -29 c 0,23,24
 321 -29 321 -29 208.5 121.5 c 128,-1,25
 96 272 96 272 96 597.5 c 128,-1,7
 96 923 96 923 208 1077 c 128,-1,8
697.5 974.5 m 128,-1,27
 647 1063 647 1063 537 1063 c 128,-1,28
 427 1063 427 1063 367 977 c 128,-1,29
 307 891 307 891 295 715 c 1,30,-1
 748 715 l 1,31,26
 748 886 748 886 697.5 974.5 c 128,-1,27
EndSplineSet
EndChar

StartChar: edieresis
Encoding: 235 235 159
Width: 1040
VWidth: 2586
GlyphClass: 2
Flags: W
HStem: -29 168<410 673> 545 170<295 748> 1063 168<408 662> 1436 217<248 446 592 795>
VStem: 96 197<285 545 715 911> 248 199<1436 1653> 592 203<1436 1653> 748 197<218 410 715 963>
LayerCount: 2
Back
Fore
SplineSet
248 1436 m 1,0,-1
 248 1653 l 1,1,-1
 446 1653 l 1,2,-1
 446 1436 l 1,3,-1
 248 1436 l 1,0,-1
592 1436 m 1,4,-1
 592 1653 l 1,5,-1
 795 1653 l 1,6,-1
 795 1436 l 1,7,-1
 592 1436 l 1,4,-1
208 1077 m 128,-1,9
 320 1231 320 1231 535 1231 c 128,-1,10
 750 1231 750 1231 847 1097 c 128,-1,11
 944 963 944 963 944 666 c 2,12,-1
 944 545 l 1,13,-1
 293 545 l 1,14,15
 294 336 294 336 358.5 237.5 c 128,-1,16
 423 139 423 139 557 139 c 0,17,18
 647 139 647 139 702.5 212.5 c 128,-1,19
 758 286 758 286 758 410 c 1,20,-1
 944 410 l 1,21,22
 944 210 944 210 835.5 90.5 c 128,-1,23
 727 -29 727 -29 551 -29 c 0,24,25
 321 -29 321 -29 208.5 121.5 c 128,-1,26
 96 272 96 272 96 597.5 c 128,-1,8
 96 923 96 923 208 1077 c 128,-1,9
697.5 974.5 m 128,-1,28
 647 1063 647 1063 537 1063 c 128,-1,29
 427 1063 427 1063 367 977 c 128,-1,30
 307 891 307 891 295 715 c 1,31,-1
 748 715 l 1,32,27
 748 886 748 886 697.5 974.5 c 128,-1,28
EndSplineSet
EndChar

StartChar: edotaccent
Encoding: 279 279 160
Width: 1040
VWidth: 2586
GlyphClass: 2
Flags: W
HStem: -29 168<410 673> 545 170<295 748> 1063 168<408 662> 1436 217<424 621>
VStem: 96 197<285 545 715 911> 424 197<1436 1653> 748 197<218 410 715 963>
LayerCount: 2
Back
Fore
SplineSet
424 1653 m 1,0,-1
 621 1653 l 1,1,-1
 621 1436 l 1,2,-1
 424 1436 l 1,3,-1
 424 1653 l 1,0,-1
208 1077 m 128,-1,5
 320 1231 320 1231 535 1231 c 128,-1,6
 750 1231 750 1231 847 1097 c 128,-1,7
 944 963 944 963 944 666 c 2,8,-1
 944 545 l 1,9,-1
 293 545 l 1,10,11
 294 336 294 336 358.5 237.5 c 128,-1,12
 423 139 423 139 557 139 c 0,13,14
 647 139 647 139 702.5 212.5 c 128,-1,15
 758 286 758 286 758 410 c 1,16,-1
 944 410 l 1,17,18
 944 210 944 210 835.5 90.5 c 128,-1,19
 727 -29 727 -29 551 -29 c 0,20,21
 321 -29 321 -29 208.5 121.5 c 128,-1,22
 96 272 96 272 96 597.5 c 128,-1,4
 96 923 96 923 208 1077 c 128,-1,5
697.5 974.5 m 128,-1,24
 647 1063 647 1063 537 1063 c 128,-1,25
 427 1063 427 1063 367 977 c 128,-1,26
 307 891 307 891 295 715 c 1,27,-1
 748 715 l 1,28,23
 748 886 748 886 697.5 974.5 c 128,-1,24
EndSplineSet
EndChar

StartChar: egrave
Encoding: 232 232 161
Width: 1040
VWidth: 2586
GlyphClass: 2
Flags: W
HStem: -29 168<410 673> 545 170<295 748> 1063 168<408 662>
VStem: 96 197<285 545 715 911> 748 197<218 410 715 963>
LayerCount: 2
Back
Fore
SplineSet
524 1350 m 1,0,-1
 274 1649 l 1,1,-1
 485 1649 l 1,2,-1
 682 1350 l 1,3,-1
 524 1350 l 1,0,-1
208 1077 m 128,-1,5
 320 1231 320 1231 535 1231 c 128,-1,6
 750 1231 750 1231 847 1097 c 128,-1,7
 944 963 944 963 944 666 c 2,8,-1
 944 545 l 1,9,-1
 293 545 l 1,10,11
 294 336 294 336 358.5 237.5 c 128,-1,12
 423 139 423 139 557 139 c 0,13,14
 647 139 647 139 702.5 212.5 c 128,-1,15
 758 286 758 286 758 410 c 1,16,-1
 944 410 l 1,17,18
 944 210 944 210 835.5 90.5 c 128,-1,19
 727 -29 727 -29 551 -29 c 0,20,21
 321 -29 321 -29 208.5 121.5 c 128,-1,22
 96 272 96 272 96 597.5 c 128,-1,4
 96 923 96 923 208 1077 c 128,-1,5
697.5 974.5 m 128,-1,24
 647 1063 647 1063 537 1063 c 128,-1,25
 427 1063 427 1063 367 977 c 128,-1,26
 307 891 307 891 295 715 c 1,27,-1
 748 715 l 1,28,23
 748 886 748 886 697.5 974.5 c 128,-1,24
EndSplineSet
EndChar

StartChar: emacron
Encoding: 275 275 162
Width: 1040
VWidth: 2586
GlyphClass: 2
Flags: W
HStem: -29 168<410 673> 545 170<295 748> 1063 168<408 662> 1370 164<236 809>
VStem: 96 197<285 545 715 911> 748 197<218 410 715 963>
LayerCount: 2
Back
Fore
SplineSet
236 1534 m 1,0,-1
 809 1534 l 1,1,-1
 809 1370 l 1,2,-1
 236 1370 l 1,3,-1
 236 1534 l 1,0,-1
208 1077 m 128,-1,5
 320 1231 320 1231 535 1231 c 128,-1,6
 750 1231 750 1231 847 1097 c 128,-1,7
 944 963 944 963 944 666 c 2,8,-1
 944 545 l 1,9,-1
 293 545 l 1,10,11
 294 336 294 336 358.5 237.5 c 128,-1,12
 423 139 423 139 557 139 c 0,13,14
 647 139 647 139 702.5 212.5 c 128,-1,15
 758 286 758 286 758 410 c 1,16,-1
 944 410 l 1,17,18
 944 210 944 210 835.5 90.5 c 128,-1,19
 727 -29 727 -29 551 -29 c 0,20,21
 321 -29 321 -29 208.5 121.5 c 128,-1,22
 96 272 96 272 96 597.5 c 128,-1,4
 96 923 96 923 208 1077 c 128,-1,5
697.5 974.5 m 128,-1,24
 647 1063 647 1063 537 1063 c 128,-1,25
 427 1063 427 1063 367 977 c 128,-1,26
 307 891 307 891 295 715 c 1,27,-1
 748 715 l 1,28,23
 748 886 748 886 697.5 974.5 c 128,-1,24
EndSplineSet
EndChar

StartChar: eogonek
Encoding: 281 281 163
Width: 1040
VWidth: 2586
GlyphClass: 2
Flags: W
HStem: -416 150<697 850> -385 119<713 852> -29 168<416 559> 545 170<297 750> 1063 168<415 663>
VStem: 96 199<285 545 715 911> 496 180<-250 -55> 750 195<217 410 715 963>
LayerCount: 2
Back
Fore
SplineSet
944 545 m 1,0,-1
 295 545 l 1,1,2
 296 336 296 336 360.5 237.5 c 128,-1,3
 425 139 425 139 559 139 c 0,4,5
 649 139 649 139 704.5 212.5 c 128,-1,6
 760 286 760 286 760 410 c 1,7,-1
 946 410 l 1,8,9
 946 272 946 272 891.5 170 c 128,-1,10
 837 68 837 68 741 16 c 1,11,12
 715 -12 715 -12 695.5 -54 c 128,-1,13
 676 -96 676 -96 676 -146 c 0,14,15
 676 -196 676 -196 700.5 -231 c 128,-1,16
 725 -266 725 -266 778 -266 c 2,17,-1
 852 -266 l 1,18,-1
 852 -385 l 1,19,20
 768 -416 768 -416 720 -416 c 0,21,22
 672 -416 672 -416 636 -405.5 c 128,-1,23
 600 -395 600 -395 567.5 -372.5 c 128,-1,24
 535 -350 535 -350 515.5 -308 c 128,-1,25
 496 -266 496 -266 496 -209 c 0,26,27
 496 -109 496 -109 559 -29 c 1,28,29
 328 -29 328 -29 212 122 c 128,-1,30
 96 273 96 273 96 598 c 0,31,32
 96 923 96 923 208 1077 c 128,-1,33
 320 1231 320 1231 535 1231 c 0,34,35
 750 1231 750 1231 847 1097 c 128,-1,36
 944 963 944 963 944 666 c 2,37,-1
 944 545 l 1,0,-1
750 715 m 1,38,39
 750 886 750 886 699.5 974.5 c 128,-1,40
 649 1063 649 1063 539 1063 c 0,41,42
 429 1063 429 1063 369 977 c 128,-1,43
 309 891 309 891 297 715 c 1,44,-1
 750 715 l 1,38,39
EndSplineSet
EndChar

StartChar: f
Encoding: 102 102 164
Width: 522
VWidth: 2586
GlyphClass: 2
Flags: W
HStem: 0 43G<127 313> 1034 168<20 127 313 522> 1513 158<332 520> 1513 131<367 522>
VStem: 127 186<0 1034 1202 1496>
LayerCount: 2
Back
Fore
SplineSet
250.5 1647.5 m 128,-1,1
 299 1671 299 1671 368 1671 c 128,-1,2
 437 1671 437 1671 522 1645 c 1,3,-1
 522 1513 l 1,4,-1
 422 1513 l 2,5,6
 313 1513 313 1513 313 1405 c 2,7,-1
 313 1202 l 1,8,-1
 522 1202 l 1,9,-1
 522 1034 l 1,10,-1
 313 1034 l 1,11,-1
 313 0 l 1,12,-1
 127 0 l 1,13,-1
 127 1034 l 1,14,-1
 20 1034 l 1,15,-1
 20 1202 l 1,16,-1
 127 1202 l 1,17,-1
 127 1395 l 2,18,19
 127 1450 127 1450 139 1496.5 c 128,-1,20
 151 1543 151 1543 176.5 1583.5 c 128,-1,0
 202 1624 202 1624 250.5 1647.5 c 128,-1,1
EndSplineSet
EndChar

StartChar: g
Encoding: 103 103 165
Width: 1040
VWidth: 2586
GlyphClass: 2
Flags: W
HStem: -416 162<256 785> 29 178<308 792> 422 156<378 633> 1073 158<381 642>
VStem: 29 188<-221 -3> 88 197<228 401> 117 188<654 995> 715 188<657 996> 829 190<-212 -4> 834 162<1279 1397>
AnchorPoint: "Anchor-1" 0 0 basechar 0
AnchorPoint: "Anchor-0" 522 1202 basechar 0
LayerCount: 2
Back
Fore
SplineSet
995 1397 m 1,0,1
 995 1287 995 1287 942.5 1210 c 128,-1,2
 890 1133 890 1133 797 1110 c 1,3,4
 903 998 903 998 903 819 c 128,-1,5
 903 640 903 640 799.5 532 c 128,-1,6
 696 424 696 424 520 422 c 1,7,-1
 393 422 l 2,8,9
 348 422 348 422 316.5 390 c 128,-1,10
 285 358 285 358 285 313.5 c 128,-1,11
 285 269 285 269 317 238 c 128,-1,12
 349 207 349 207 393 207 c 2,13,-1
 737 207 l 2,14,15
 864 207 864 207 942 125 c 128,-1,16
 1020 43 1020 43 1020 -90.5 c 128,-1,17
 1020 -224 1020 -224 927 -320 c 128,-1,18
 834 -416 834 -416 668 -416 c 2,19,-1
 326 -416 l 2,20,21
 184 -416 184 -416 106.5 -335 c 128,-1,22
 29 -254 29 -254 29 -147.5 c 128,-1,23
 29 -41 29 -41 71 28.5 c 128,-1,24
 113 98 113 98 186 127 c 1,25,26
 141 156 141 156 114.5 204 c 128,-1,27
 88 252 88 252 88 314.5 c 128,-1,28
 88 377 88 377 133.5 431 c 128,-1,29
 179 485 179 485 256 514 c 1,30,31
 117 625 117 625 117 819.5 c 128,-1,32
 117 1014 117 1014 222 1122.5 c 128,-1,33
 327 1231 327 1231 510 1231 c 0,34,35
 604 1231 604 1231 682 1188 c 1,36,37
 757 1227 757 1227 790.5 1279 c 128,-1,38
 824 1331 824 1331 834 1397 c 1,39,-1
 995 1397 l 1,0,1
662 1009 m 128,-1,41
 609 1073 609 1073 510 1073 c 128,-1,42
 411 1073 411 1073 358 1007.5 c 128,-1,43
 305 942 305 942 305 823.5 c 128,-1,44
 305 705 305 705 357.5 641.5 c 128,-1,45
 410 578 410 578 509 578 c 128,-1,46
 608 578 608 578 661.5 643 c 128,-1,47
 715 708 715 708 715 826.5 c 128,-1,40
 715 945 715 945 662 1009 c 128,-1,41
356 29 m 2,48,49
 287 29 287 29 252 -10 c 128,-1,50
 217 -49 217 -49 217 -111 c 128,-1,51
 217 -173 217 -173 253.5 -213.5 c 128,-1,52
 290 -254 290 -254 356 -254 c 2,53,-1
 688 -254 l 2,54,55
 747 -254 747 -254 788 -212 c 128,-1,56
 829 -170 829 -170 829 -109.5 c 128,-1,57
 829 -49 829 -49 793 -10 c 128,-1,58
 757 29 757 29 688 29 c 2,59,-1
 356 29 l 2,48,49
EndSplineSet
EndChar

StartChar: gbreve
Encoding: 287 287 166
Width: 1040
VWidth: 2586
GlyphClass: 2
Flags: W
HStem: -416 162<256 785> 29 178<308 792> 422 156<378 633> 1073 158<381 642> 1430 147<407 641> 1612 41G<238 389 656 805>
VStem: 29 188<-221 -3> 88 197<228 401> 117 188<654 995> 238 147<1603 1653> 659 145<1603 1653> 715 188<657 996> 829 190<-212 -4> 834 162<1279 1397>
LayerCount: 2
Back
Fore
SplineSet
805 1653 m 1,0,1
 805 1569 805 1569 726 1499.5 c 128,-1,2
 647 1430 647 1430 522 1430 c 128,-1,3
 397 1430 397 1430 317.5 1499.5 c 128,-1,4
 238 1569 238 1569 238 1653 c 1,5,-1
 385 1653 l 1,6,7
 392 1626 392 1626 429.5 1601.5 c 128,-1,8
 467 1577 467 1577 521.5 1577 c 128,-1,9
 576 1577 576 1577 615 1602 c 128,-1,10
 654 1627 654 1627 659 1653 c 1,11,-1
 805 1653 l 1,0,1
995 1397 m 1,12,13
 995 1287 995 1287 942.5 1210 c 128,-1,14
 890 1133 890 1133 797 1110 c 1,15,16
 903 998 903 998 903 819 c 128,-1,17
 903 640 903 640 799.5 532 c 128,-1,18
 696 424 696 424 520 422 c 1,19,-1
 393 422 l 2,20,21
 348 422 348 422 316.5 390 c 128,-1,22
 285 358 285 358 285 313.5 c 128,-1,23
 285 269 285 269 317 238 c 128,-1,24
 349 207 349 207 393 207 c 2,25,-1
 737 207 l 2,26,27
 864 207 864 207 942 125 c 128,-1,28
 1020 43 1020 43 1020 -90.5 c 128,-1,29
 1020 -224 1020 -224 927 -320 c 128,-1,30
 834 -416 834 -416 668 -416 c 2,31,-1
 326 -416 l 2,32,33
 184 -416 184 -416 106.5 -335 c 128,-1,34
 29 -254 29 -254 29 -147.5 c 128,-1,35
 29 -41 29 -41 71 28.5 c 128,-1,36
 113 98 113 98 186 127 c 1,37,38
 141 156 141 156 114.5 204 c 128,-1,39
 88 252 88 252 88 314.5 c 128,-1,40
 88 377 88 377 133.5 431 c 128,-1,41
 179 485 179 485 256 514 c 1,42,43
 117 625 117 625 117 819.5 c 128,-1,44
 117 1014 117 1014 222 1122.5 c 128,-1,45
 327 1231 327 1231 510 1231 c 0,46,47
 604 1231 604 1231 682 1188 c 1,48,49
 757 1227 757 1227 790.5 1279 c 128,-1,50
 824 1331 824 1331 834 1397 c 1,51,-1
 995 1397 l 1,12,13
662 1009 m 128,-1,53
 609 1073 609 1073 510 1073 c 128,-1,54
 411 1073 411 1073 358 1007.5 c 128,-1,55
 305 942 305 942 305 823.5 c 128,-1,56
 305 705 305 705 357.5 641.5 c 128,-1,57
 410 578 410 578 509 578 c 128,-1,58
 608 578 608 578 661.5 643 c 128,-1,59
 715 708 715 708 715 826.5 c 128,-1,52
 715 945 715 945 662 1009 c 128,-1,53
356 29 m 2,60,61
 287 29 287 29 252 -10 c 128,-1,62
 217 -49 217 -49 217 -111 c 128,-1,63
 217 -173 217 -173 253.5 -213.5 c 128,-1,64
 290 -254 290 -254 356 -254 c 2,65,-1
 688 -254 l 2,66,67
 747 -254 747 -254 788 -212 c 128,-1,68
 829 -170 829 -170 829 -109.5 c 128,-1,69
 829 -49 829 -49 793 -10 c 128,-1,70
 757 29 757 29 688 29 c 2,71,-1
 356 29 l 2,60,61
EndSplineSet
EndChar

StartChar: gcircumflex
Encoding: 285 285 167
Width: 1040
VWidth: 2586
GlyphClass: 2
Flags: W
HStem: -416 162<256 785> 29 178<308 792> 422 156<378 633> 1073 158<381 642>
VStem: 29 188<-221 -3> 88 197<228 401> 117 188<654 995> 715 188<657 996> 829 190<-212 -4> 844 152<1267 1397>
LayerCount: 2
Back
Fore
SplineSet
522 1524 m 1,0,-1
 422 1341 l 1,1,-1
 238 1341 l 1,2,-1
 432 1651 l 1,3,-1
 612 1651 l 1,4,-1
 807 1341 l 1,5,-1
 623 1341 l 1,6,-1
 522 1524 l 1,0,-1
995 1397 m 1,7,8
 995 1287 995 1287 942.5 1210 c 128,-1,9
 890 1133 890 1133 797 1110 c 1,10,11
 903 998 903 998 903 819 c 128,-1,12
 903 640 903 640 799.5 532 c 128,-1,13
 696 424 696 424 520 422 c 1,14,-1
 393 422 l 2,15,16
 348 422 348 422 316.5 390 c 128,-1,17
 285 358 285 358 285 313.5 c 128,-1,18
 285 269 285 269 317 238 c 128,-1,19
 349 207 349 207 393 207 c 2,20,-1
 737 207 l 2,21,22
 864 207 864 207 942 125 c 128,-1,23
 1020 43 1020 43 1020 -90.5 c 128,-1,24
 1020 -224 1020 -224 927 -320 c 128,-1,25
 834 -416 834 -416 668 -416 c 2,26,-1
 326 -416 l 2,27,28
 184 -416 184 -416 106.5 -335 c 128,-1,29
 29 -254 29 -254 29 -147.5 c 128,-1,30
 29 -41 29 -41 71 28.5 c 128,-1,31
 113 98 113 98 186 127 c 1,32,33
 141 156 141 156 114.5 204 c 128,-1,34
 88 252 88 252 88 314.5 c 128,-1,35
 88 377 88 377 133.5 431 c 128,-1,36
 179 485 179 485 256 514 c 1,37,38
 117 625 117 625 117 819.5 c 128,-1,39
 117 1014 117 1014 222 1122.5 c 128,-1,40
 327 1231 327 1231 510 1231 c 0,41,42
 604 1231 604 1231 682 1188 c 1,43,44
 772 1232 772 1232 806 1274.5 c 128,-1,45
 840 1317 840 1317 844 1397 c 1,46,-1
 995 1397 l 1,7,8
662 1009 m 128,-1,48
 609 1073 609 1073 510 1073 c 128,-1,49
 411 1073 411 1073 358 1007.5 c 128,-1,50
 305 942 305 942 305 823.5 c 128,-1,51
 305 705 305 705 357.5 641.5 c 128,-1,52
 410 578 410 578 509 578 c 128,-1,53
 608 578 608 578 661.5 643 c 128,-1,54
 715 708 715 708 715 826.5 c 128,-1,47
 715 945 715 945 662 1009 c 128,-1,48
356 29 m 2,55,56
 287 29 287 29 252 -10 c 128,-1,57
 217 -49 217 -49 217 -111 c 128,-1,58
 217 -173 217 -173 253.5 -213.5 c 128,-1,59
 290 -254 290 -254 356 -254 c 2,60,-1
 688 -254 l 2,61,62
 747 -254 747 -254 788 -212 c 128,-1,63
 829 -170 829 -170 829 -109.5 c 128,-1,64
 829 -49 829 -49 793 -10 c 128,-1,65
 757 29 757 29 688 29 c 2,66,-1
 356 29 l 2,55,56
EndSplineSet
EndChar

StartChar: gcommaaccent
Encoding: 291 291 168
Width: 1040
VWidth: 2586
GlyphClass: 2
Flags: W
HStem: -416 162<256 785> 29 178<308 792> 422 156<378 633> 1073 158<381 642>
VStem: 29 188<-221 -3> 88 197<228 401> 117 188<654 995> 387 197<1360 1552> 715 188<657 996> 829 190<-212 -4> 834 162<1279 1397>
LayerCount: 2
Back
Fore
SplineSet
584 1567 m 1,0,-1
 584 1360 l 1,1,-1
 387 1360 l 1,2,-1
 387 1552 l 1,3,-1
 459 1731 l 1,4,-1
 559 1731 l 1,5,-1
 508 1567 l 1,6,-1
 584 1567 l 1,0,-1
995 1397 m 1,7,8
 995 1287 995 1287 942.5 1210 c 128,-1,9
 890 1133 890 1133 797 1110 c 1,10,11
 903 998 903 998 903 819 c 128,-1,12
 903 640 903 640 799.5 532 c 128,-1,13
 696 424 696 424 520 422 c 1,14,-1
 393 422 l 2,15,16
 348 422 348 422 316.5 390 c 128,-1,17
 285 358 285 358 285 313.5 c 128,-1,18
 285 269 285 269 317 238 c 128,-1,19
 349 207 349 207 393 207 c 2,20,-1
 737 207 l 2,21,22
 864 207 864 207 942 125 c 128,-1,23
 1020 43 1020 43 1020 -90.5 c 128,-1,24
 1020 -224 1020 -224 927 -320 c 128,-1,25
 834 -416 834 -416 668 -416 c 2,26,-1
 326 -416 l 2,27,28
 184 -416 184 -416 106.5 -335 c 128,-1,29
 29 -254 29 -254 29 -147.5 c 128,-1,30
 29 -41 29 -41 71 28.5 c 128,-1,31
 113 98 113 98 186 127 c 1,32,33
 141 156 141 156 114.5 204 c 128,-1,34
 88 252 88 252 88 314.5 c 128,-1,35
 88 377 88 377 133.5 431 c 128,-1,36
 179 485 179 485 256 514 c 1,37,38
 117 625 117 625 117 819.5 c 128,-1,39
 117 1014 117 1014 222 1122.5 c 128,-1,40
 327 1231 327 1231 510 1231 c 0,41,42
 604 1231 604 1231 682 1188 c 1,43,44
 757 1227 757 1227 790.5 1279 c 128,-1,45
 824 1331 824 1331 834 1397 c 1,46,-1
 995 1397 l 1,7,8
662 1009 m 128,-1,48
 609 1073 609 1073 510 1073 c 128,-1,49
 411 1073 411 1073 358 1007.5 c 128,-1,50
 305 942 305 942 305 823.5 c 128,-1,51
 305 705 305 705 357.5 641.5 c 128,-1,52
 410 578 410 578 509 578 c 128,-1,53
 608 578 608 578 661.5 643 c 128,-1,54
 715 708 715 708 715 826.5 c 128,-1,47
 715 945 715 945 662 1009 c 128,-1,48
356 29 m 2,55,56
 287 29 287 29 252 -10 c 128,-1,57
 217 -49 217 -49 217 -111 c 128,-1,58
 217 -173 217 -173 253.5 -213.5 c 128,-1,59
 290 -254 290 -254 356 -254 c 2,60,-1
 688 -254 l 2,61,62
 747 -254 747 -254 788 -212 c 128,-1,63
 829 -170 829 -170 829 -109.5 c 128,-1,64
 829 -49 829 -49 793 -10 c 128,-1,65
 757 29 757 29 688 29 c 2,66,-1
 356 29 l 2,55,56
EndSplineSet
EndChar

StartChar: gdotaccent
Encoding: 289 289 169
Width: 1040
VWidth: 2586
GlyphClass: 2
Flags: W
HStem: -416 162<256 785> 29 178<308 792> 422 156<378 633> 1073 158<381 642> 1436 217<424 621>
VStem: 29 188<-221 -3> 88 197<228 401> 117 188<654 995> 424 197<1436 1653> 715 188<657 996> 829 190<-212 -4> 834 162<1279 1397>
LayerCount: 2
Back
Fore
SplineSet
424 1653 m 1,0,-1
 621 1653 l 1,1,-1
 621 1436 l 1,2,-1
 424 1436 l 1,3,-1
 424 1653 l 1,0,-1
995 1397 m 1,4,5
 995 1287 995 1287 942.5 1210 c 128,-1,6
 890 1133 890 1133 797 1110 c 1,7,8
 903 998 903 998 903 819 c 128,-1,9
 903 640 903 640 799.5 532 c 128,-1,10
 696 424 696 424 520 422 c 1,11,-1
 393 422 l 2,12,13
 348 422 348 422 316.5 390 c 128,-1,14
 285 358 285 358 285 313.5 c 128,-1,15
 285 269 285 269 317 238 c 128,-1,16
 349 207 349 207 393 207 c 2,17,-1
 737 207 l 2,18,19
 864 207 864 207 942 125 c 128,-1,20
 1020 43 1020 43 1020 -90.5 c 128,-1,21
 1020 -224 1020 -224 927 -320 c 128,-1,22
 834 -416 834 -416 668 -416 c 2,23,-1
 326 -416 l 2,24,25
 184 -416 184 -416 106.5 -335 c 128,-1,26
 29 -254 29 -254 29 -147.5 c 128,-1,27
 29 -41 29 -41 71 28.5 c 128,-1,28
 113 98 113 98 186 127 c 1,29,30
 141 156 141 156 114.5 204 c 128,-1,31
 88 252 88 252 88 314.5 c 128,-1,32
 88 377 88 377 133.5 431 c 128,-1,33
 179 485 179 485 256 514 c 1,34,35
 117 625 117 625 117 819.5 c 128,-1,36
 117 1014 117 1014 222 1122.5 c 128,-1,37
 327 1231 327 1231 510 1231 c 0,38,39
 604 1231 604 1231 682 1188 c 1,40,41
 757 1227 757 1227 790.5 1279 c 128,-1,42
 824 1331 824 1331 834 1397 c 1,43,-1
 995 1397 l 1,4,5
662 1009 m 128,-1,45
 609 1073 609 1073 510 1073 c 128,-1,46
 411 1073 411 1073 358 1007.5 c 128,-1,47
 305 942 305 942 305 823.5 c 128,-1,48
 305 705 305 705 357.5 641.5 c 128,-1,49
 410 578 410 578 509 578 c 128,-1,50
 608 578 608 578 661.5 643 c 128,-1,51
 715 708 715 708 715 826.5 c 128,-1,44
 715 945 715 945 662 1009 c 128,-1,45
356 29 m 2,52,53
 287 29 287 29 252 -10 c 128,-1,54
 217 -49 217 -49 217 -111 c 128,-1,55
 217 -173 217 -173 253.5 -213.5 c 128,-1,56
 290 -254 290 -254 356 -254 c 2,57,-1
 688 -254 l 2,58,59
 747 -254 747 -254 788 -212 c 128,-1,60
 829 -170 829 -170 829 -109.5 c 128,-1,61
 829 -49 829 -49 793 -10 c 128,-1,62
 757 29 757 29 688 29 c 2,63,-1
 356 29 l 2,52,53
EndSplineSet
EndChar

StartChar: h
Encoding: 104 104 170
Width: 1040
VWidth: 2586
GlyphClass: 2
Flags: W
HStem: 0 43G<137 326 719 905> 1063 168<434 672> 1612 41G<137 326>
VStem: 137 188<0 936 1075 1653> 719 186<0 1018>
AnchorPoint: "Anchor-1" 0 0 basechar 0
AnchorPoint: "Anchor-0" 522 1202 basechar 0
LayerCount: 2
Back
Fore
SplineSet
608 1231 m 0,0,1
 905 1231 905 1231 905 866 c 2,2,-1
 905 0 l 1,3,-1
 719 0 l 1,4,-1
 719 854 l 2,5,6
 719 971 719 971 675 1017 c 128,-1,7
 631 1063 631 1063 543.5 1063 c 0,8,9
 456 1063 456 1063 391 974 c 128,-1,10
 326 885 326 885 326 735 c 2,11,-1
 326 0 l 1,12,-1
 137 0 l 1,13,-1
 137 1653 l 1,14,-1
 326 1653 l 1,15,-1
 326 1075 l 1,16,17
 413 1231 413 1231 608 1231 c 0,0,1
EndSplineSet
EndChar

StartChar: hbar
Encoding: 295 295 171
Width: 1040
VWidth: 2586
GlyphClass: 2
Flags: W
HStem: 0 43G<137 326 719 905> 1063 168<434 672> 1331 156<0 137 326 571> 1612 41G<137 326>
VStem: 137 188<0 936 1075 1331 1487 1653> 719 186<0 1018>
LayerCount: 2
Back
Fore
SplineSet
571 1487 m 1,0,-1
 571 1331 l 1,1,-1
 326 1331 l 1,2,-1
 326 1075 l 1,3,4
 413 1231 413 1231 608 1231 c 0,5,6
 905 1231 905 1231 905 866 c 2,7,-1
 905 0 l 1,8,-1
 719 0 l 1,9,-1
 719 854 l 2,10,11
 719 971 719 971 675 1017 c 128,-1,12
 631 1063 631 1063 543.5 1063 c 0,13,14
 456 1063 456 1063 391 974 c 128,-1,15
 326 885 326 885 326 735 c 2,16,-1
 326 0 l 1,17,-1
 137 0 l 1,18,-1
 137 1331 l 1,19,-1
 0 1331 l 1,20,-1
 0 1487 l 1,21,-1
 137 1487 l 1,22,-1
 137 1653 l 1,23,-1
 326 1653 l 1,24,-1
 326 1487 l 1,25,-1
 571 1487 l 1,0,-1
EndSplineSet
EndChar

StartChar: hcircumflex
Encoding: 293 293 172
Width: 1040
VWidth: 2586
GlyphClass: 2
Flags: W
HStem: 0 43G<137 326 719 905> 1063 168<434 672> 1612 41G<137 326>
VStem: 137 188<0 936 1075 1653> 719 186<0 1018>
LayerCount: 2
Back
Fore
SplineSet
238 1888 m 1,0,-1
 135 1708 l 1,1,-1
 -49 1708 l 1,2,-1
 147 2017 l 1,3,-1
 326 2017 l 1,4,-1
 522 1708 l 1,5,-1
 338 1708 l 1,6,-1
 238 1888 l 1,0,-1
608 1231 m 0,7,8
 905 1231 905 1231 905 866 c 2,9,-1
 905 0 l 1,10,-1
 719 0 l 1,11,-1
 719 854 l 2,12,13
 719 971 719 971 675 1017 c 128,-1,14
 631 1063 631 1063 543.5 1063 c 0,15,16
 456 1063 456 1063 391 974 c 128,-1,17
 326 885 326 885 326 735 c 2,18,-1
 326 0 l 1,19,-1
 137 0 l 1,20,-1
 137 1653 l 1,21,-1
 326 1653 l 1,22,-1
 326 1075 l 1,23,24
 413 1231 413 1231 608 1231 c 0,7,8
EndSplineSet
EndChar

StartChar: i
Encoding: 105 105 173
Width: 415
VWidth: 2586
GlyphClass: 2
Flags: W
HStem: 0 43G<115 303> 1161 41G<115 303> 1427 225<115 303>
VStem: 115 188<0 1202 1427 1653>
LayerCount: 2
Back
Fore
SplineSet
115 1653 m 1,0,-1
 303 1653 l 1,1,-1
 303 1427 l 1,2,-1
 115 1427 l 1,3,-1
 115 1653 l 1,0,-1
115 1202 m 1,4,-1
 303 1202 l 1,5,-1
 303 0 l 1,6,-1
 115 0 l 1,7,-1
 115 1202 l 1,4,-1
EndSplineSet
EndChar

StartChar: dotlessi
Encoding: 305 305 174
Width: 522
VWidth: 2586
GlyphClass: 2
Flags: W
HStem: 0 43G<168 354> 1161 41G<168 354>
VStem: 168 186<0 1202>
AnchorPoint: "Anchor-1" 0 0 basechar 0
AnchorPoint: "Anchor-0" 262 1202 basechar 0
LayerCount: 2
Back
Fore
SplineSet
168 1202 m 1,0,-1
 354 1202 l 1,1,-1
 354 0 l 1,2,-1
 168 0 l 1,3,-1
 168 1202 l 1,0,-1
EndSplineSet
EndChar

StartChar: iacute
Encoding: 237 237 175
Width: 522
VWidth: 2586
GlyphClass: 2
Flags: W
HStem: 0 43G<168 354> 1161 41G<168 354> 1612 41G<297 524>
VStem: 168 186<0 1202>
LayerCount: 2
Back
Fore
SplineSet
285 1350 m 1,0,-1
 127 1350 l 1,1,-1
 324 1653 l 1,2,-1
 524 1653 l 1,3,-1
 285 1350 l 1,0,-1
168 0 m 1,4,-1
 168 1202 l 1,5,-1
 354 1202 l 1,6,-1
 354 0 l 1,7,-1
 168 0 l 1,4,-1
EndSplineSet
EndChar

StartChar: ibreve
Encoding: 301 301 176
Width: 522
VWidth: 2586
GlyphClass: 2
Flags: W
HStem: 0 43G<168 354> 1161 41G<168 354> 1430 147<148 380> 1612 41G<-23 130 396 543>
VStem: -23 150<1603 1653> 168 186<0 1202> 399 143<1603 1653>
LayerCount: 2
Back
Fore
SplineSet
543 1653 m 1,0,1
 543 1569 543 1569 465 1499.5 c 128,-1,2
 387 1430 387 1430 262.5 1430 c 0,3,4
 138 1430 138 1430 57.5 1499.5 c 128,-1,5
 -23 1569 -23 1569 -23 1653 c 1,6,-1
 127 1653 l 1,7,8
 132 1627 132 1627 170.5 1602 c 128,-1,9
 209 1577 209 1577 262.5 1577 c 0,10,11
 316 1577 316 1577 355 1602 c 128,-1,12
 394 1627 394 1627 399 1653 c 1,13,-1
 543 1653 l 1,0,1
168 1202 m 1,14,-1
 354 1202 l 1,15,-1
 354 0 l 1,16,-1
 168 0 l 1,17,-1
 168 1202 l 1,14,-1
EndSplineSet
EndChar

StartChar: icircumflex
Encoding: 238 238 177
Width: 522
VWidth: 2586
GlyphClass: 2
Flags: W
HStem: 0 43G<168 354> 1161 41G<168 354>
VStem: 168 186<0 1202>
LayerCount: 2
Back
Fore
SplineSet
264 1524 m 1,0,-1
 160 1341 l 1,1,-1
 -27 1341 l 1,2,-1
 174 1651 l 1,3,-1
 352 1651 l 1,4,-1
 545 1341 l 1,5,-1
 365 1341 l 1,6,-1
 264 1524 l 1,0,-1
168 1202 m 1,7,-1
 354 1202 l 1,8,-1
 354 0 l 1,9,-1
 168 0 l 1,10,-1
 168 1202 l 1,7,-1
EndSplineSet
EndChar

StartChar: idieresis
Encoding: 239 239 178
Width: 522
VWidth: 2586
GlyphClass: 2
Flags: W
HStem: 0 43G<168 354> 1161 41G<168 354> 1436 217<-10 188 334 532>
VStem: -10 199<1436 1653> 168 186<0 1202> 334 199<1436 1653>
LayerCount: 2
Back
Fore
SplineSet
-10 1436 m 1,0,-1
 -10 1653 l 1,1,-1
 188 1653 l 1,2,-1
 188 1436 l 1,3,-1
 -10 1436 l 1,0,-1
334 1436 m 1,4,-1
 334 1653 l 1,5,-1
 532 1653 l 1,6,-1
 532 1436 l 1,7,-1
 334 1436 l 1,4,-1
168 0 m 1,8,-1
 168 1202 l 1,9,-1
 354 1202 l 1,10,-1
 354 0 l 1,11,-1
 168 0 l 1,8,-1
EndSplineSet
EndChar

StartChar: igrave
Encoding: 236 236 179
Width: 522
VWidth: 2586
GlyphClass: 2
Flags: W
HStem: 0 43G<168 354> 1161 41G<168 354>
VStem: 168 186<0 1202>
LayerCount: 2
Back
Fore
SplineSet
240 1350 m 1,0,-1
 -12 1649 l 1,1,-1
 203 1649 l 1,2,-1
 399 1350 l 1,3,-1
 240 1350 l 1,0,-1
168 0 m 1,4,-1
 168 1202 l 1,5,-1
 354 1202 l 1,6,-1
 354 0 l 1,7,-1
 168 0 l 1,4,-1
EndSplineSet
EndChar

StartChar: ij
Encoding: 307 307 180
Width: 831
VWidth: 2586
GlyphClass: 2
Flags: W
HStem: -416 158<325 514> -387 129<324 479> 0 43G<115 303> 1161 41G<115 303 530 719> 1427 225<115 303 530 719>
VStem: 115 188<0 1202 1427 1653> 530 188<-240 1202 1427 1653>
LayerCount: 2
Back
Fore
SplineSet
115 1427 m 1,0,-1
 115 1653 l 1,1,-1
 303 1653 l 1,2,-1
 303 1427 l 1,3,-1
 115 1427 l 1,0,-1
530 1427 m 1,4,-1
 530 1653 l 1,5,-1
 719 1653 l 1,6,-1
 719 1427 l 1,7,-1
 530 1427 l 1,4,-1
115 0 m 1,8,-1
 115 1202 l 1,9,-1
 303 1202 l 1,10,-1
 303 0 l 1,11,-1
 115 0 l 1,8,-1
719 -139 m 2,12,13
 719 -193 719 -193 706.5 -240.5 c 128,-1,14
 694 -288 694 -288 668 -328.5 c 128,-1,15
 642 -369 642 -369 594 -392.5 c 128,-1,16
 546 -416 546 -416 470.5 -416 c 0,17,18
 395 -416 395 -416 324 -387 c 1,19,-1
 324 -258 l 1,20,-1
 424 -258 l 2,21,22
 530 -258 530 -258 530 -147 c 2,23,-1
 530 1202 l 1,24,-1
 719 1202 l 1,25,-1
 719 -139 l 2,12,13
EndSplineSet
EndChar

StartChar: imacron
Encoding: 299 299 181
Width: 522
VWidth: 2586
GlyphClass: 2
Flags: W
HStem: 0 43G<168 354> 1161 41G<168 354> 1370 164<-27 549>
VStem: 168 186<0 1202>
LayerCount: 2
Back
Fore
SplineSet
-27 1534 m 1,0,-1
 549 1534 l 1,1,-1
 549 1370 l 1,2,-1
 -27 1370 l 1,3,-1
 -27 1534 l 1,0,-1
168 1202 m 1,4,-1
 354 1202 l 1,5,-1
 354 0 l 1,6,-1
 168 0 l 1,7,-1
 168 1202 l 1,4,-1
EndSplineSet
EndChar

